<svg xmlns="http://www.w3.org/2000/svg" xmlns:xlink="http://www.w3.org/1999/xlink" viewBox="0,0,256,256" width="24px" height="24px"><g fill="#BC4A4F" fill-rule="nonzero" stroke="none" stroke-width="1" stroke-linecap="butt" stroke-linejoin="miter" stroke-miterlimit="10" stroke-dasharray="" stroke-dashoffset="0" font-family="none" font-weight="none" font-size="none" text-anchor="none" style="mix-blend-mode: normal"><g transform="scale(5.12,5.12)"><path  d="M30.93359,32.52734c-0.14844,-1.61328 -0.08984,-2.73828 -0.08984,-4.21094c0.73047,-0.38281 2.03906,-2.82422 2.25781,-4.88672c0.57422,-0.04687 1.48047,-0.60547 1.74609,-2.81641c0.14063,-1.1875 -0.42578,-1.85547 -0.77344,-2.06641c0.93359,-2.80859 2.875,-11.5 -3.58594,-12.39844c-0.66797,-1.16797 -2.37109,-1.75781 -4.58203,-1.75781c-8.85547,0.16406 -9.92187,6.6875 -7.98047,14.15625c-0.34766,0.21094 -0.91406,0.87891 -0.77344,2.06641c0.26953,2.21094 1.17188,2.76953 1.74609,2.81641c0.21875,2.0625 1.57813,4.50391 2.3125,4.88672c0,1.47266 0.05469,2.59766 -0.09375,4.21094c-1.75,4.71094 -13.57031,3.38672 -14.11719,12.47266h38c-0.54687,-9.08594 -12.31641,-7.76172 -14.06641,-12.47266z"></path></g></g></svg>