<svg width="24" height="24" viewBox="0 0 24 24" fill="none" xmlns="http://www.w3.org/2000/svg">
<path  d="M11.6317 2.66152L11.6178 2.67361L1.53186 11.4744L1.51645 11.4878L1.5 11.5V11.5H4H4.5V12V20C4.5 20.2759 4.72414 20.5 5 20.5H9C9.27586 20.5 9.5 20.2759 9.5 20V14V13.5H10H14H14.5V14V20C14.5 20.2759 14.7241 20.5 15 20.5H19C19.2759 20.5 19.5 20.2759 19.5 20V12V11.5H20L22.5 11.5L22.4836 11.4878L22.4682 11.4744L12.3881 2.67949L12.3745 2.66762L12.3618 2.65481L12.3588 2.65188L12.3554 2.64845L12.3554 2.64844C12.3089 2.60142 12.2536 2.56409 12.1925 2.53861C12.1316 2.51315 12.0661 2.50002 12.0001 2.5L11.6317 2.66152ZM11.6317 2.66152L11.6446 2.64844M11.6317 2.66152L11.6446 2.64844M11.6446 2.64844C11.6911 2.60142 11.7464 2.56409 11.8075 2.53861C11.8684 2.51315 11.9339 2.50003 11.9999 2.5L11.6446 2.64844Z" stroke="black"/>
</svg>
