<svg width="22" height="14" viewBox="0 0 22 14" fill="none" xmlns="http://www.w3.org/2000/svg">
<path d="M7 0C5.34315 0 4 1.34315 4 3C4 4.65685 5.34315 6 7 6C8.65685 6 10 4.65685 10 3C10 1.34315 8.65685 0 7 0ZM15 0C13.3432 0 12 1.34315 12 3C12 4.65685 13.3432 6 15 6C16.6569 6 18 4.65685 18 3C18 1.34315 16.6569 0 15 0ZM7 8C4 8 0 9.464 0 11.5V14H14V11.5C14 9.464 10 8 7 8ZM15 8C14.683 8 14.3535 8.01978 14.0215 8.05078C15.2035 8.91578 16 10.059 16 11.5V14H22V11.5C22 9.464 18 8 15 8Z" fill="#BC4A4F"/>
</svg>
