<svg width="22" height="14" viewBox="0 0 22 14" fill="none" xmlns="http://www.w3.org/2000/svg">
<path  d="M4.5 3C4.5 1.61929 5.61929 0.5 7 0.5C8.38071 0.5 9.5 1.61929 9.5 3C9.5 4.38071 8.38071 5.5 7 5.5C5.61929 5.5 4.5 4.38071 4.5 3ZM12.5 3C12.5 1.61929 13.6193 0.5 15 0.5C16.3807 0.5 17.5 1.61929 17.5 3C17.5 4.38071 16.3807 5.5 15 5.5C13.6193 5.5 12.5 4.38071 12.5 3ZM0.5 11.5C0.5 11.1661 0.662282 10.8123 1.02613 10.447C1.39086 10.0808 1.92648 9.73746 2.58067 9.44225C3.88924 8.85172 5.56893 8.5 7 8.5C8.43107 8.5 10.1108 8.85172 11.4193 9.44225C12.0735 9.73746 12.6091 10.0808 12.9739 10.447C13.3377 10.8123 13.5 11.1661 13.5 11.5V13.5H0.5V11.5ZM16.5 11.5C16.5 10.3095 16.0218 9.31374 15.2819 8.50443C16.6478 8.54672 18.1958 8.89009 19.4193 9.44225C20.0735 9.73746 20.6091 10.0808 20.9739 10.447C21.3377 10.8123 21.5 11.1661 21.5 11.5V13.5H16.5V11.5Z" stroke="black"/>
</svg>
