<svg width="14" height="17" viewBox="0 0 14 17"  xmlns="http://www.w3.org/2000/svg">
<g id="Group">
<g id="user, account, people, man">
<path id="Vector" d="M12.6874 13.217C12.6896 12.4545 12.5395 11.6993 12.246 10.9957C11.9524 10.292 11.5212 9.65411 10.9777 9.11935L10.9778 9.11934L10.9767 9.11837C10.926 9.06981 10.8854 9.01162 10.8573 8.94722C10.8293 8.88281 10.8144 8.81346 10.8134 8.74322C10.8124 8.67298 10.8254 8.60324 10.8517 8.53808C10.8779 8.47292 10.9169 8.41363 10.9663 8.36368C11.0157 8.31372 11.0745 8.2741 11.1394 8.24712C11.2042 8.22013 11.2738 8.20633 11.3441 8.20651C11.4143 8.20669 11.4838 8.22085 11.5485 8.24816C11.6133 8.27548 11.6719 8.3154 11.721 8.36561L11.721 8.36562L11.7224 8.36696C12.3658 8.9997 12.8762 9.75463 13.2237 10.5874C13.5713 11.4202 13.7489 12.314 13.7461 13.2164V13.2167C13.7461 14.1723 12.9108 14.9353 11.6057 15.464C10.3095 15.9891 8.59222 16.2635 6.92308 16.2635C5.25394 16.2635 3.53665 15.9891 2.24044 15.464C0.935372 14.9353 0.100029 14.1723 0.10003 13.2167L0.100029 13.2164C0.0974124 12.3201 0.272633 11.4321 0.615544 10.6039C0.958456 9.77577 1.46225 9.02386 2.09775 8.39174L2.09776 8.39175L2.09915 8.39031C2.14799 8.33975 2.2064 8.29942 2.27098 8.27168C2.33557 8.24393 2.40503 8.22933 2.47532 8.22872C2.54561 8.22811 2.61532 8.2415 2.68038 8.26812C2.74543 8.29474 2.80454 8.33405 2.85424 8.38375C2.90394 8.43345 2.94325 8.49256 2.96987 8.55762C2.99649 8.62267 3.00988 8.69238 3.00927 8.76267C3.00866 8.83296 2.99406 8.90242 2.96631 8.96701C2.93857 9.03159 2.89824 9.09001 2.84768 9.13884L2.84767 9.13883L2.84663 9.13986C2.30973 9.67386 1.88409 10.3091 1.59437 11.0087C1.30466 11.7083 1.1566 12.4584 1.15877 13.2156C1.15885 13.4545 1.32688 13.6945 1.59428 13.9131C1.86611 14.1352 2.26045 14.352 2.75856 14.5424C3.75569 14.9235 5.18418 15.2048 6.92308 15.2048C8.66198 15.2048 10.0905 14.9237 11.0876 14.5428C11.5857 14.3525 11.98 14.1359 12.2518 13.9139C12.5192 13.6955 12.6873 13.4557 12.6874 13.217ZM12.6874 13.217L12.5874 13.2167H12.6874C12.6874 13.2168 12.6874 13.2169 12.6874 13.217Z" fill="black" stroke="#F3F3F3" stroke-width="0.2"/>
<path id="Vector_2" d="M6.92303 1.15874L6.92291 1.15874C6.06215 1.15977 5.23693 1.50216 4.62827 2.11082C4.01962 2.71947 3.67722 3.54469 3.67619 4.40546V4.40558C3.67619 5.04774 3.86662 5.67549 4.22338 6.20943C4.58015 6.74337 5.08724 7.15952 5.68052 7.40527C6.2738 7.65101 6.92664 7.71531 7.55646 7.59003C8.18629 7.46475 8.76482 7.15552 9.2189 6.70144C9.67297 6.24736 9.98221 5.66883 10.1075 5.03901C10.2328 4.40918 10.1685 3.75635 9.92272 3.16307C9.67698 2.56978 9.26082 2.0627 8.72688 1.70593C8.19294 1.34916 7.5652 1.15874 6.92303 1.15874ZM9.31508 7.98554C8.60707 8.45862 7.77467 8.71113 6.92315 8.71116C5.78161 8.70985 4.68719 8.2558 3.88 7.44861C3.07282 6.64143 2.61877 5.54704 2.61746 4.40552C2.61747 3.55398 2.86998 2.72156 3.34308 2.01353C3.81618 1.30548 4.48862 0.753623 5.27536 0.427745C6.0621 0.101866 6.92781 0.0166008 7.76301 0.182732C8.59821 0.348864 9.36539 0.758931 9.96754 1.36108C10.5697 1.96322 10.9797 2.7304 11.1459 3.5656C11.312 4.4008 11.2267 5.26651 10.9009 6.05325C10.575 6.83999 10.0231 7.51243 9.31508 7.98554Z" fill="black" stroke="#F3F3F3" stroke-width="0.2"/>
</g>
</g>
</svg>
