

<svg width="50" height="50" viewBox="0 0 50 50" fill="none" xmlns="http://www.w3.org/2000/svg">
<circle cx="25" cy="25" r="25" fill="#F8F8F8"/>
<path d="M23.5 24.25H18.25V27.25H23.5V31.75H26.5V27.25H31.75V24.25H26.5V19.75H23.5V24.25Z" fill="#D9D9D9" stroke="#D9D9D9" stroke-width="1.2"/>
<path d="M26.709 32.5H23.291C22.9567 32.5 22.6864 32.2567 22.6864 31.9559V27.8322H18.1045C17.7703 27.8322 17.5 27.5889 17.5 27.2881V24.2119C17.5 23.9111 17.7703 23.6678 18.1045 23.6678H22.6864V19.5441C22.6864 19.2433 22.9567 19 23.291 19H26.709C27.0433 19 27.3136 19.2433 27.3136 19.5441V23.6678H31.8955C32.2297 23.6678 32.5 23.9111 32.5 24.2119V27.2881C32.5 27.5889 32.2297 27.8322 31.8955 27.8322H27.3136V31.9559C27.3136 32.2554 27.0433 32.5 26.709 32.5ZM23.8955 31.4118H26.1045V27.2881C26.1045 26.9873 26.3748 26.744 26.709 26.744H31.2909V24.756H26.709C26.3748 24.756 26.1045 24.5127 26.1045 24.2119V20.0882H23.8955V24.2119C23.8955 24.5127 23.6252 24.756 23.291 24.756H18.7091V26.744H23.291C23.6252 26.744 23.8955 26.9873 23.8955 27.2881V31.4118Z" fill="#D9D9D9"/>
<path d="M26.709 31H23.291C22.9567 31 22.6864 30.7567 22.6864 30.4559V26.3322H18.1045C17.7703 26.3322 17.5 26.0889 17.5 25.7881V22.7119C17.5 22.4111 17.7703 22.1678 18.1045 22.1678H22.6864V18.0441C22.6864 17.7433 22.9567 17.5 23.291 17.5H26.709C27.0433 17.5 27.3136 17.7433 27.3136 18.0441V22.1678H31.8955C32.2297 22.1678 32.5 22.4111 32.5 22.7119V25.7881C32.5 26.0889 32.2297 26.3322 31.8955 26.3322H27.3136V30.4559C27.3136 30.7554 27.0433 31 26.709 31ZM23.8955 29.9118H26.1045V25.7881C26.1045 25.4873 26.3748 25.244 26.709 25.244H31.2909V23.256H26.709C26.3748 23.256 26.1045 23.0127 26.1045 22.7119V18.5882H23.8955V22.7119C23.8955 23.0127 23.6252 23.256 23.291 23.256H18.7091V25.244H23.291C23.6252 25.244 23.8955 25.4873 23.8955 25.7881V29.9118Z" fill="#D51B1B"/>
<path d="M25.0001 40C24.8286 40 24.6666 39.9197 24.559 39.7818C22.392 36.9969 19.5185 35.5439 17.4905 34.8162C15.2704 34.0194 13.5459 33.8898 13.5281 33.8884C13.2314 33.8673 13 33.6125 13 33.3041V12.5121C13 12.2249 13.2015 11.9799 13.4751 11.9334L24.9088 10.0074C24.9687 9.99754 25.0299 9.99754 25.0912 10.0074L36.5249 11.9334C36.7985 11.9799 37 12.2249 37 12.5121V33.3041C37 33.6125 36.7686 33.8687 36.4719 33.8884C36.4555 33.8898 34.7296 34.0194 32.5095 34.8162C30.4814 35.5441 27.608 36.9971 25.441 39.7818C25.3334 39.9197 25.1716 40 25.0001 40ZM14.1322 32.7789C14.8414 32.8747 16.1999 33.1168 17.8266 33.6983C19.2096 34.1925 20.5027 34.8302 21.6705 35.5933C22.9337 36.4198 24.0512 37.3983 25 38.5077C25.9487 37.3997 27.0662 36.4211 28.3294 35.5933C29.496 34.8288 30.7891 34.1911 32.1733 33.6983C33.7999 33.1182 35.1584 32.8761 35.8677 32.7789V13.0105L24.9999 11.1788L14.132 13.0105L14.1322 32.7789Z" fill="#D51B1B"/>
</svg>
