<svg width="51" height="50" viewBox="0 0 51 50" fill="none" xmlns="http://www.w3.org/2000/svg">
<circle cx="25.5" cy="25" r="25" fill="#F8F8F8"/>
<path d="M21.6365 14.3031L23.5759 18.1818H28.9092L29.8789 16.7273L30.8486 14.7879V12.8485L29.3941 11.8788L27.4547 11.394L26.0001 10.9091L25.0304 11.394L23.5759 11.8788L21.6365 12.3637V14.3031Z" fill="#D9D9D9"/>
<path d="M36.8219 20.3122C36.6938 20.1682 36.5664 20.0232 36.4398 19.8784C36.0762 19.4639 35.7033 19.0408 35.318 18.6486C35.6724 18.3201 35.9022 17.8365 35.9022 17.2911C35.9022 16.4857 35.4084 15.8109 34.7356 15.5869C35.9349 13.6833 37.0371 11.4049 36.4714 10.1178C36.3135 9.75829 35.9538 9.30389 35.1394 9.17838C34.1383 9.02407 33.7046 8.78229 33.2855 8.54798C32.7942 8.27349 32.3299 8.01429 31.2676 8.00007C30.3582 7.99438 29.9288 8.3254 29.557 8.623C29.1966 8.91136 28.8565 9.18336 27.8842 9.26585C27.5419 9.295 27.2534 9.39136 27.0179 9.5478C26.74 9.47527 26.4081 9.42691 25.9719 9.42122C25.9563 9.42122 25.9406 9.42122 25.9253 9.42122C25.5468 9.42122 25.2575 9.4838 25.0184 9.57625C24.7769 9.40451 24.4791 9.29642 24.1176 9.2662C23.1457 9.18407 22.8052 8.91207 22.4452 8.62372C22.0734 8.32576 21.6589 7.99332 20.735 8.00078C19.6723 8.01501 19.2083 8.27385 18.7167 8.54869C18.2972 8.78265 17.8635 9.02478 16.8627 9.17909C16.0484 9.30425 15.6887 9.759 15.5307 10.1185C14.9647 11.4063 16.0672 13.6843 17.2665 15.5876C16.5938 15.812 16.1 16.4868 16.1 17.2918C16.1 17.8376 16.3298 18.3208 16.6845 18.6493C16.2988 19.0418 15.9253 19.4653 15.5613 19.8802C15.435 20.0242 15.308 20.1689 15.1803 20.3126C9.41466 26.7951 9.49115 31.0717 10.5706 33.5179C11.9022 36.5365 15.5201 38.458 20.0277 38.5554C21.8752 39.5172 24.107 40 26.3323 40C28.5776 40 30.8122 39.5072 32.6337 38.5269C36.8937 38.251 40.2807 36.2901 41.4864 33.3878C42.4979 30.954 42.51 26.7094 36.8219 20.3122ZM34.2585 18.0822H30.4963C30.317 17.567 29.927 17.1702 29.44 17.0077C29.5449 16.8409 29.6495 16.6721 29.752 16.5003H34.2585C34.6072 16.5003 34.9021 16.8623 34.9021 17.2911C34.9021 17.7199 34.6072 18.0822 34.2585 18.0822ZM23.4168 19.503C23.0677 19.503 22.7728 19.1407 22.7728 18.7119C22.7728 18.2831 23.0677 17.9211 23.4168 17.9211H28.9629C29.3115 17.9211 29.6065 18.2831 29.6065 18.7119C29.6065 19.1407 29.3115 19.503 28.9629 19.503H23.4168ZM30.1814 9.40345C30.5016 9.14709 30.6802 8.98887 31.2537 8.99954C32.0627 9.0102 32.3705 9.18194 32.7974 9.42016C33.2474 9.67154 33.8078 9.98442 34.9872 10.1658C35.3796 10.2262 35.497 10.3866 35.5557 10.5195C35.8837 11.2662 35.1352 13.1638 33.6007 15.5009H30.3113C31.0915 14.0065 31.5974 12.4975 31.1758 11.5386C31.0178 11.1791 30.6585 10.7247 29.8441 10.5992C29.1778 10.4964 28.7647 10.3546 28.4381 10.2024C29.3788 10.0438 29.8192 9.69322 30.1814 9.40345ZM25.9584 10.4207C26.7674 10.4314 27.0755 10.6031 27.5021 10.8417C27.9525 11.0927 28.5128 11.4056 29.6922 11.5869C30.0846 11.6474 30.202 11.8074 30.2604 11.9407C30.5888 12.6874 29.8402 14.5849 28.3054 16.922H23.8921C21.7635 13.3138 22.0022 12.2123 22.1314 11.9595C22.1648 11.8938 22.2548 11.7185 22.6728 11.6833C23.9486 11.5755 24.4684 11.1592 24.8861 10.8246C25.1992 10.5739 25.3909 10.4207 25.9218 10.4207C25.9335 10.4207 25.9456 10.4207 25.9584 10.4207ZM16.4454 10.5195C16.5041 10.3866 16.6215 10.2262 17.0139 10.1658C18.1933 9.98442 18.7537 9.67154 19.2037 9.42051C19.6303 9.18229 19.9387 9.0102 20.7478 8.99954C21.3106 8.97607 21.4995 9.14709 21.8201 9.40345C22.232 9.73305 22.7468 10.1409 23.9835 10.2557C23.6904 10.4573 23.3168 10.6255 22.5889 10.687C21.7859 10.7549 21.4127 11.1691 21.2412 11.5044C20.8339 12.3002 21.0783 13.6178 21.9858 15.5009H18.4011C16.8663 13.1645 16.1174 11.2669 16.4454 10.5195ZM17.7426 16.5003H22.4999C22.5978 16.6799 22.7006 16.8637 22.8087 17.0521C22.3822 17.2381 22.0463 17.6132 21.8834 18.0822H17.7426C17.3939 18.0822 17.099 17.7199 17.099 17.2911C17.099 16.8623 17.3939 16.5003 17.7426 16.5003ZM11.4853 33.1147C10.1073 29.9915 11.6432 25.7938 15.9267 20.976C16.0558 20.8306 16.1843 20.6848 16.3124 20.5387C16.777 20.0093 17.2192 19.5101 17.6782 19.0745C17.6999 19.0756 17.7205 19.0816 17.7426 19.0816H21.809C21.8766 19.4315 22.0385 19.7433 22.2641 19.9855C21.6223 20.5433 21.0484 21.1712 20.5574 21.7384C12.892 30.5981 16.1583 35.418 17.9183 37.0788C18.0379 37.1918 18.1624 37.3006 18.2894 37.4069C15.0455 36.9277 12.4682 35.3429 11.4853 33.1147ZM18.605 36.3524C15.2788 33.2132 16.2408 28.2557 21.3142 22.3919C21.861 21.7597 22.5135 21.0518 23.2339 20.4822C23.2947 20.4896 23.3541 20.5024 23.4171 20.5024H28.9632C28.9857 20.5024 29.0063 20.4964 29.0283 20.4953C29.4859 20.9298 29.9263 21.4276 30.3895 21.9545C30.5187 22.1021 30.6489 22.25 30.7795 22.3972C36.0228 28.2944 37.1371 33.2615 33.917 36.3844C30.3255 39.867 22.3117 39.85 18.605 36.3524ZM40.5628 33.0045C39.6777 35.1342 37.395 36.6884 34.4062 37.2889C34.4752 37.2267 34.5464 37.1659 34.6129 37.1015C36.321 35.445 39.4396 30.6322 31.5266 21.733C31.3974 21.5876 31.269 21.4418 31.1409 21.2957C30.7784 20.8822 30.4062 20.4605 30.0224 20.0694C30.2945 19.8169 30.4945 19.4756 30.5706 19.0813H34.2585C34.2806 19.0813 34.3012 19.0752 34.3229 19.0742C34.7815 19.5094 35.2234 20.0082 35.6873 20.5369C35.8158 20.6831 35.9445 20.8299 36.074 20.9757C40.3038 25.7323 41.856 29.8926 40.5628 33.0045Z" fill="#DA2128"/>
<path d="M28.1371 31.2357C28.1371 32.2938 27.3594 33.3604 25.8719 33.5578V34.7407C25.8719 35.0166 25.6478 35.2406 25.3717 35.2406C25.0956 35.2406 24.8715 35.0166 24.8715 34.7407V33.5532C23.8526 33.3999 23.0101 32.7887 22.6985 31.9325C22.6042 31.673 22.7376 31.3864 22.9973 31.2922C23.2567 31.1973 23.5441 31.3313 23.6381 31.5909C23.8426 32.1526 24.4994 32.5487 25.2565 32.5864C25.2938 32.5775 25.3319 32.5718 25.3717 32.5718C25.4109 32.5718 25.4482 32.5772 25.4845 32.5857C26.6205 32.5427 27.1371 31.8892 27.1371 31.236C27.1371 30.5601 26.5913 29.8778 25.3717 29.8778C23.5562 29.8778 22.606 28.692 22.606 27.5201C22.606 26.462 23.3837 25.3953 24.8715 25.198V24.015C24.8715 23.7391 25.0956 23.5151 25.3717 23.5151C25.6478 23.5151 25.8719 23.7391 25.8719 24.015V25.204C26.8941 25.3626 27.7565 25.9941 28.0546 26.8517C28.145 27.1123 28.0073 27.3971 27.7465 27.4877C27.4861 27.5773 27.2011 27.4408 27.11 27.1798C26.9019 26.5807 26.1868 26.1622 25.3721 26.1622C24.1521 26.1622 23.6064 26.8446 23.6064 27.5201C23.6064 28.1957 24.1521 28.8783 25.3721 28.8783C27.1872 28.8783 28.1371 30.0637 28.1371 31.2357Z" fill="#DA2128"/>
</svg>
