<svg xmlns="http://www.w3.org/2000/svg" width="50" height="50" viewBox="0 0 50 50" fill="none">
<circle cx="25" cy="25" r="25" fill="#F8F8F8"/>
<path d="M19.7876 28.75H32.2876V34C32.2876 34.5523 31.8399 35 31.2876 35H20.7876C20.2353 35 19.7876 34.5523 19.7876 34V28.75Z" fill="#D9D9D9"/>
<path d="M38.4732 26.5262C38.402 26.5262 38.3316 26.4993 38.2778 26.4447L25 13.1685L11.723 26.4455C11.6146 26.5539 11.4397 26.5539 11.3313 26.4455C11.2229 26.337 11.2229 26.1622 11.3313 26.0537L24.8045 12.5813C24.913 12.4729 25.0878 12.4729 25.1962 12.5813L38.6687 26.0537C38.7771 26.1622 38.7771 26.337 38.6687 26.4455C38.6149 26.4993 38.5437 26.527 38.4732 26.527V26.5262Z" fill="#C20707" stroke="#D51B1B" stroke-width="0.8"/>
<path d="M34.5476 37.4536H15.4527C15.3 37.4536 15.1758 37.3293 15.1758 37.1766V25.4546C15.1758 25.3019 15.3 25.1776 15.4527 25.1776C15.6055 25.1776 15.7297 25.3019 15.7297 25.4546V36.8996H34.2706V25.4546C34.2706 25.3019 34.3949 25.1776 34.5476 25.1776C34.7003 25.1776 34.8246 25.3019 34.8246 25.4546V37.1766C34.8246 37.3293 34.7003 37.4536 34.5476 37.4536Z" fill="#C20707" stroke="#C20707" stroke-width="0.8"/>
<path d="M34.5484 19.5788C34.3957 19.5788 34.2714 19.4546 34.2714 19.3018V15.4947H30.3053C30.1526 15.4947 30.0283 15.3705 30.0283 15.2178C30.0283 15.065 30.1526 14.9408 30.3053 14.9408H34.5484C34.7011 14.9408 34.8254 15.065 34.8254 15.2178V19.3018C34.8254 19.4546 34.7011 19.5788 34.5484 19.5788Z" fill="#C20707" stroke="#C20707" stroke-width="0.8"/>
<path d="M29.6946 33.0516H20.3063C20.1535 33.0516 20.0293 32.9273 20.0293 32.7746V23.8634C20.0293 23.7107 20.1535 23.5864 20.3063 23.5864H29.6946C29.8474 23.5864 29.9716 23.7107 29.9716 23.8634V32.7746C29.9716 32.9273 29.8474 33.0516 29.6946 33.0516ZM20.5832 32.4976H29.4177V24.1404H20.5832V32.4976Z" fill="#C20707" stroke="#C20707" stroke-width="0.8"/>
<path d="M29.6946 28.5953H20.3063C20.1535 28.5953 20.0293 28.4711 20.0293 28.3183C20.0293 28.1656 20.1535 28.0414 20.3063 28.0414H29.6946C29.8474 28.0414 29.9716 28.1656 29.9716 28.3183C29.9716 28.4711 29.8474 28.5953 29.6946 28.5953Z" fill="#C20707" stroke="#C20707" stroke-width="0.8"/>
<path d="M25.0817 33.0516C24.9289 33.0516 24.8047 32.9273 24.8047 32.7746V23.8634C24.8047 23.7107 24.9289 23.5864 25.0817 23.5864C25.2344 23.5864 25.3586 23.7107 25.3586 23.8634V32.7746C25.3586 32.9273 25.2344 33.0516 25.0817 33.0516Z" fill="#C20707" stroke="#C20707" stroke-width="0.8"/>
</svg>