<svg xmlns="http://www.w3.org/2000/svg" width="51" height="50" viewBox="0 0 51 50" fill="none">
<circle cx="25.5" cy="25" r="25" fill="#F8F8F8"/>
<path d="M13.1782 18.964C13.1782 15.1176 16.2964 11.9995 20.1428 11.9995H30.3217C34.1681 11.9995 37.2862 15.1176 37.2862 18.964H13.1782Z" fill="#D9D9D9"/>
<path d="M16.0158 37.7148H13.5164C12.6228 37.7148 11.8955 36.9873 11.8955 36.0934V32.5229C11.8955 32.2975 12.078 32.1155 12.3028 32.1155C12.5275 32.1155 12.71 32.298 12.71 32.5229V36.0934C12.71 36.5382 13.0718 36.8995 13.5159 36.8995H16.0153C16.4599 36.8995 16.8211 36.5376 16.8211 36.0934V33.1404C16.8211 32.9151 17.0036 32.7331 17.2284 32.7331C17.4532 32.7331 17.6357 32.9156 17.6357 33.1404V36.0934C17.6357 36.9873 16.9083 37.7148 16.0147 37.7148H16.0158Z" fill="#DA2128" stroke="#DA2128" stroke-width="0.5"/>
<path d="M37.4826 37.7148H34.9832C34.0896 37.7148 33.3623 36.9873 33.3623 36.0934V33.1404C33.3623 32.9151 33.5448 32.7331 33.7696 32.7331C33.9943 32.7331 34.1768 32.9156 34.1768 33.1404V36.0934C34.1768 36.5382 34.5386 36.8995 34.9827 36.8995H37.4821C37.9267 36.8995 38.2879 36.5376 38.2879 36.0934V32.5229C38.2879 32.2975 38.4704 32.1155 38.6952 32.1155C38.9199 32.1155 39.1025 32.298 39.1025 32.5229V36.0934C39.1025 36.9873 38.3751 37.7148 37.4815 37.7148H37.4826Z" fill="#DA2128" stroke="#DA2128" stroke-width="0.5"/>
<path d="M35.3532 33.5491H15.6475C15.4222 33.5491 15.2402 33.3666 15.2402 33.1418C15.2402 32.9169 15.4227 32.7344 15.6475 32.7344H35.3538C35.5791 32.7344 35.7611 32.9169 35.7611 33.1418C35.7611 33.3666 35.5785 33.5491 35.3538 33.5491H35.3532Z" fill="#DA2128" stroke="#DA2128" stroke-width="0.5"/>
<path d="M29.7345 29.6356H21.2686C21.0433 29.6356 20.8613 29.453 20.8613 29.2282C20.8613 29.0034 21.0438 28.8208 21.2686 28.8208H29.7345C29.9598 28.8208 30.1418 29.0034 30.1418 29.2282C30.1418 29.453 29.9592 29.6356 29.7345 29.6356Z" fill="#DA2128" stroke="#D51B1B" stroke-width="0.5"/>
<path d="M12.3034 32.9304C12.2217 32.9304 12.1388 32.906 12.0668 32.8546C11.0854 32.1541 10.5 31.0165 10.5 29.8122V24.279C10.5 23.1988 10.9863 22.1961 11.8334 21.527L12.9495 20.6456C13.0216 20.5887 13.1104 20.5579 13.2019 20.5579H37.7981C37.8896 20.5579 37.9784 20.5887 38.0505 20.6456L39.1666 21.527C40.0142 22.1961 40.5 23.1993 40.5 24.279V29.8122C40.5 31.0165 39.914 32.1541 38.9332 32.8546C38.7502 32.9857 38.4956 32.9429 38.3646 32.7598C38.2341 32.5767 38.2763 32.3221 38.4593 32.191C39.2268 31.6427 39.6849 30.7538 39.6849 29.8122V24.279C39.6849 23.4502 39.3118 22.6804 38.6614 22.1668L37.6562 21.3732H13.3438L12.3386 22.1668C11.6882 22.6804 11.3151 23.4502 11.3151 24.279V29.8122C11.3151 30.7538 11.7732 31.6433 12.5407 32.191C12.7237 32.3215 12.7665 32.5761 12.6354 32.7598C12.5558 32.8714 12.4307 32.9304 12.3034 32.9304Z" fill="#DA2128" stroke="#DA2128" stroke-width="0.5"/>
<path d="M16.6678 28.0411C15.8251 28.0411 13.6387 27.8694 13.225 26.1245C13.173 25.9056 13.3084 25.6857 13.5277 25.6337C13.7465 25.5817 13.9664 25.7171 14.0184 25.9365C14.3623 27.3873 16.9099 27.2204 16.9353 27.2182C17.1601 27.2025 17.355 27.3705 17.3713 27.5947C17.3875 27.819 17.2196 28.0146 16.9954 28.0308C16.9716 28.0325 16.8519 28.0406 16.6678 28.0406V28.0411Z" fill="#DA2128" stroke="#D51B1B" stroke-width="0.5"/>
<path d="M34.3336 28.0416C34.15 28.0416 34.0297 28.0335 34.0059 28.0318C33.7817 28.0151 33.6133 27.8195 33.6301 27.5952C33.6468 27.3709 33.8429 27.203 34.0666 27.2193C34.092 27.2209 36.6396 27.3877 36.9835 25.9375C37.0355 25.7187 37.2554 25.5832 37.4742 25.6347C37.693 25.6867 37.8283 25.9061 37.7769 26.1255C37.3631 27.8704 35.1773 28.0421 34.3341 28.0421L34.3336 28.0416Z" fill="#DA2128" stroke="#D51B1B" stroke-width="0.5"/>
<path d="M13.0514 21.1064C13.0314 21.1064 13.0119 21.1048 12.9913 21.1022C12.7687 21.0704 12.6149 20.871 12.6474 20.6566C12.6886 20.3905 13.6818 14.1418 17.0791 14.1418H25.349C25.5743 14.1418 25.7562 14.3177 25.7562 14.5342C25.7562 14.7508 25.5737 14.9266 25.349 14.9266H17.0791C14.8408 14.9266 13.7035 19.1454 13.4538 20.7709C13.424 20.966 13.2496 21.1064 13.0514 21.1064Z" fill="#DA2128" stroke="#DA2128" stroke-width="0.5"/>
<path d="M37.6467 21.1064C37.4479 21.1064 37.2741 20.966 37.2443 20.7709C36.9952 19.1454 35.8579 14.9266 33.619 14.9266H25.3492C25.1239 14.9266 24.9419 14.7508 24.9419 14.5342C24.9419 14.3177 25.1244 14.1418 25.3492 14.1418H33.619C37.0163 14.1418 38.0101 20.3905 38.0507 20.6566C38.0832 20.871 37.9294 21.0704 37.7068 21.1022C37.6868 21.1053 37.6667 21.1064 37.6467 21.1064Z" fill="#DA2128" stroke="#DA2128" stroke-width="0.5"/>
</svg>