<svg width="50" height="50" viewBox="0 0 50 50" fill="none" xmlns="http://www.w3.org/2000/svg">
<circle cx="25" cy="25" r="25" fill="#F8F8F8"/>
<circle cx="26.0662" cy="26.0115" r="3.51936" fill="#D9D9D9"/>
<path d="M24.6697 38.3394C22.9203 38.3394 21.2752 38.0062 19.7342 37.3399C18.1931 36.6726 16.8525 35.7689 15.7122 34.6286C14.571 33.4874 13.6672 32.1463 13.0009 30.6053C12.3336 29.0642 12 27.4191 12 25.6697C12 23.9203 12.3332 22.2752 12.9995 20.7342C13.6658 19.1931 14.5701 17.8525 15.7122 16.7122C16.8544 15.5719 18.195 14.6677 19.7342 13.9995C21.2761 13.3332 22.9213 13 24.6697 13C27.9507 13 30.7812 14.0826 33.1612 16.2477C35.5413 18.4128 36.9035 21.087 37.2479 24.2704H35.8233C35.5764 22.2329 34.8407 20.4043 33.6159 18.7844C32.3912 17.1646 30.8169 15.9694 28.8929 15.1989V15.8155C28.8929 16.5897 28.6175 17.2528 28.0666 17.8046C27.5157 18.3565 26.8526 18.6319 26.0774 18.631H23.262V21.4465C23.262 21.8453 23.1268 22.1799 22.8565 22.4502C22.5862 22.7205 22.2521 22.8552 21.8542 22.8542H19.0387V25.6697H21.6374V29.8929H20.4465L13.6893 23.1358C13.6189 23.5581 13.5546 23.9804 13.4964 24.4027C13.4382 24.8251 13.4087 25.2474 13.4077 25.6697C13.4077 28.7433 14.487 31.3828 16.6456 33.5883C18.8041 35.7937 21.4788 36.9082 24.6697 36.9317V38.3394Z" fill="#D51B1B"/>
<path d="M35.249 35.1348L30.3922 30.3344C29.9718 30.6338 29.5162 30.8684 29.0253 31.0383C28.5345 31.2072 28.0174 31.2917 27.474 31.2917C26.0935 31.2917 24.9274 30.8158 23.9757 29.8642C23.0232 28.9107 22.5469 27.7441 22.5469 26.3645C22.5469 24.985 23.0232 23.8189 23.9757 22.8663C24.9283 21.9137 26.0944 21.4374 27.474 21.4374C28.8536 21.4374 30.0201 21.9137 30.9736 22.8663C31.9271 23.8189 32.403 24.985 32.4011 26.3645C32.4011 26.9258 32.3119 27.456 32.1336 27.9553C31.9553 28.4555 31.7066 28.9158 31.3875 29.3363L36.2442 34.1395L35.249 35.1348ZM27.474 29.8839C28.4594 29.8839 29.2923 29.5437 29.9727 28.8633C30.6531 28.1829 30.9933 27.35 30.9933 26.3645C30.9933 25.3791 30.6531 24.5462 29.9727 23.8658C29.2923 23.1854 28.4594 22.8452 27.474 22.8452C26.4886 22.8452 25.6556 23.1854 24.9752 23.8658C24.2948 24.5462 23.9546 25.3791 23.9546 26.3645C23.9546 27.35 24.2948 28.1829 24.9752 28.8633C25.6556 29.5437 26.4886 29.8839 27.474 29.8839Z" fill="#D51B1B"/>
</svg>



