<svg xmlns="http://www.w3.org/2000/svg" width="50" height="50" viewBox="0 0 50 50" fill="none">
<circle cx="25" cy="25" r="25" fill="#F8F8F8"/>
<path d="M14.5013 28.7443L12.9934 29.6238C12.044 30.1777 11.7194 31.3939 12.2667 32.3471L14.8354 36.8217C15.4 37.8052 16.6684 38.123 17.63 37.522L19.061 36.6276C19.2624 36.5017 19.3259 36.2376 19.2037 36.0339C19.0799 35.8276 19.1473 35.5596 19.3536 35.4358C19.5571 35.3137 19.6265 35.0513 19.5092 34.845L16.2154 29.0479C16.1043 28.8524 15.8597 28.778 15.6586 28.8785C15.5154 28.9502 15.3439 28.9347 15.2158 28.8386L15.1392 28.7811C14.9533 28.6417 14.702 28.6272 14.5013 28.7443Z" fill="#D9D9D9"/>
<path d="M23.811 20.7762L21.5847 18.5499C21.4679 18.433 21.4679 18.2445 21.5847 18.1276C21.7016 18.0107 21.8902 18.0107 22.0071 18.1276L24.0216 20.1421L28.2622 15.9014C28.3791 15.7846 28.5677 15.7846 28.6846 15.9014C28.8014 16.0183 28.8014 16.2069 28.6846 16.3238L24.2321 20.7762C24.1743 20.8341 24.0968 20.8642 24.0204 20.8642C23.9452 20.863 23.8688 20.834 23.811 20.7762Z" fill="#DA2128" stroke="#DA2128"/>
<path d="M38.0418 29.0429C37.4401 28.0015 36.1036 27.6428 35.0612 28.2445L29.5119 31.4484C29.5003 31.0932 29.402 30.7437 29.218 30.4255C28.9264 29.9199 28.4566 29.5577 27.8955 29.4084L19.894 27.2643C18.9973 27.0236 18.1341 27.137 17.3299 27.6022L15.2946 28.7778L15.0527 28.3589C15.0134 28.2906 14.9474 28.2397 14.8711 28.2201C14.7947 28.1992 14.7125 28.2108 14.6443 28.2501L10.9833 30.3619C10.8398 30.444 10.7912 30.6268 10.8734 30.7703L15.4509 38.6977C15.4902 38.7659 15.5561 38.8169 15.6325 38.8365C15.658 38.8435 15.6834 38.8469 15.71 38.8469C15.7621 38.8469 15.8142 38.8331 15.8593 38.8064L19.5203 36.6924C19.6637 36.6103 19.7123 36.4275 19.6302 36.284L19.3189 35.7448L20.4078 35.1165L27.9047 36.6808C28.091 36.7306 28.2808 36.7549 28.4682 36.7549C28.8454 36.7549 29.2168 36.6565 29.5512 36.4633L37.2437 32.0224C38.2851 31.4219 38.6427 30.0843 38.0421 29.0428L38.0418 29.0429ZM15.8196 38.1412L11.5407 30.731L14.6833 28.9167L18.9621 36.3257L15.8196 38.1412ZM36.9434 31.5053L29.2509 35.9462C28.8864 36.1568 28.4595 36.2124 28.0499 36.1024C28.0441 36.1013 28.0395 36.1001 28.0337 36.099L20.4164 34.5091C20.3447 34.4941 20.2695 34.5056 20.2058 34.5427L19.0175 35.2288L15.5926 29.2953L17.628 28.1197C18.2898 27.7378 19.0003 27.6441 19.7385 27.842L27.74 29.9861C28.1461 30.0948 28.4874 30.3575 28.6992 30.7255C28.9109 31.0934 28.9688 31.5192 28.8589 31.9265C28.6332 32.7701 27.762 33.2722 26.9196 33.0466L22.7447 31.9277C22.585 31.8849 22.4207 31.9798 22.379 32.1394C22.3362 32.2991 22.4311 32.4623 22.5908 32.5051L26.7657 33.624C26.9543 33.6749 27.1429 33.698 27.3303 33.698C28.2525 33.698 29.1018 33.1079 29.4004 32.2031L35.3606 28.7619C36.1173 28.3257 37.0881 28.5849 37.5243 29.3416C37.9606 30.0983 37.7001 31.0691 36.9434 31.5053ZM25.42 26.8133C25.4396 26.8167 25.4593 26.819 25.4801 26.819C25.4998 26.819 25.5206 26.8167 25.5403 26.8133C27.1405 26.4869 28.7314 25.5104 29.9071 24.1357C31.1209 22.7171 31.7886 21.0302 31.7886 19.3871L31.7874 13.2314C31.7874 13.0902 31.6879 12.9675 31.5502 12.9386L25.5415 11.6728C25.501 11.6647 25.4593 11.6647 25.4176 11.6728L19.4089 12.9386C19.27 12.9675 19.1717 13.0902 19.1717 13.2314V19.3871C19.1717 21.0301 19.8393 22.7159 21.0531 24.1357C22.2276 25.5115 23.8197 26.4869 25.42 26.8133ZM19.7687 13.4743L25.4789 12.2709L31.1891 13.4743V19.3883C31.1891 22.4384 28.5798 25.5499 25.4789 26.2164C22.3766 25.551 19.7687 22.4384 19.7687 19.3883V13.4743Z" fill="#4D4D4D" stroke="#DA2128"/>
</svg>