<svg width="24" height="24" viewBox="0 0 24 24" fill="none" xmlns="http://www.w3.org/2000/svg">
<g id="Frame 1171275692">
<path id="Vector" d="M6.72414 3V9.2069M16.6552 3V9.2069M6.10345 12.3103H9.82759M17.2759 12.3103H13.5517M6.10345 16.0345H9.82759M13.5517 16.0345H17.2759M4.24138 6.10345H19.1379C19.4672 6.10345 19.7829 6.23424 20.0157 6.46704C20.2485 6.69984 20.3793 7.01559 20.3793 7.34483V19.7586C20.3793 20.0879 20.2485 20.4036 20.0157 20.6364C19.7829 20.8692 19.4672 21 19.1379 21H4.24138C3.91215 21 3.5964 20.8692 3.36359 20.6364C3.13079 20.4036 3 20.0879 3 19.7586V7.34483C3 7.01559 3.13079 6.69984 3.36359 6.46704C3.5964 6.23424 3.91215 6.10345 4.24138 6.10345Z" stroke="#263238" stroke-width="1.5"/>
</g>
</svg>
