<svg xmlns="http://www.w3.org/2000/svg" width="30" height="30" viewBox="0 0 30 30" fill="none">
    <path d="M3.49951 9.49998C3.49951 5.91014 6.40965 3 9.9995 3H19.4995C23.0893 3 25.9995 5.91014 25.9995 9.49998H3.49951Z" fill="#D9D9D9"/>
    <path d="M6.14771 27H3.81506C2.98107 27 2.30225 26.321 2.30225 25.4868V22.1544C2.30225 21.9441 2.47258 21.7742 2.68234 21.7742C2.89211 21.7742 3.06244 21.9446 3.06244 22.1544V25.4868C3.06244 25.9018 3.40008 26.2391 3.81455 26.2391H6.14721C6.56218 26.2391 6.89932 25.9013 6.89932 25.4868V22.7308C6.89932 22.5204 7.06965 22.3505 7.27942 22.3505C7.48918 22.3505 7.65951 22.5209 7.65951 22.7308V25.4868C7.65951 26.321 6.98069 27 6.1467 27H6.14771Z" fill="#4D4D4D" stroke="#4D4D4D" stroke-width="0.5"/>
    <path d="M26.1829 27H23.8502C23.0162 27 22.3374 26.321 22.3374 25.4868V22.7308C22.3374 22.5204 22.5077 22.3505 22.7175 22.3505C22.9273 22.3505 23.0976 22.5209 23.0976 22.7308V25.4868C23.0976 25.9018 23.4352 26.2391 23.8497 26.2391H26.1824C26.5973 26.2391 26.9345 25.9013 26.9345 25.4868V22.1544C26.9345 21.9441 27.1048 21.7742 27.3146 21.7742C27.5243 21.7742 27.6947 21.9446 27.6947 22.1544V25.4868C27.6947 26.321 27.0159 27 26.1819 27H26.1829Z" fill="#4D4D4D" stroke="#4D4D4D" stroke-width="0.5"/>
    <path d="M24.1952 23.1122H5.80393C5.59366 23.1122 5.42383 22.9418 5.42383 22.732C5.42383 22.5222 5.59417 22.3518 5.80393 22.3518H24.1957C24.406 22.3518 24.5758 22.5222 24.5758 22.732C24.5758 22.9418 24.4055 23.1122 24.1957 23.1122H24.1952Z" fill="#4D4D4D" stroke="#4D4D4D" stroke-width="0.5"/>
    <path d="M18.9517 19.4596H11.0505C10.8402 19.4596 10.6704 19.2892 10.6704 19.0794C10.6704 18.8696 10.8407 18.6992 11.0505 18.6992H18.9517C19.162 18.6992 19.3318 18.8696 19.3318 19.0794C19.3318 19.2892 19.1615 19.4596 18.9517 19.4596Z" fill="#DA2128" stroke="#D51B1B" stroke-width="0.5"/>
    <path d="M2.68315 22.5347C2.60683 22.5347 2.52949 22.512 2.46227 22.4639C1.54639 21.8102 1 20.7484 1 19.6245V14.4604C1 13.4522 1.45389 12.5163 2.24442 11.8919L3.28615 11.0693C3.35338 11.0162 3.43627 10.9874 3.52169 10.9874H26.4772C26.5626 10.9874 26.6455 11.0162 26.7128 11.0693L27.7545 11.8919C28.5455 12.5163 28.9989 13.4527 28.9989 14.4604V19.6245C28.9989 20.7484 28.452 21.8102 27.5366 22.4639C27.3658 22.5863 27.1282 22.5463 27.0059 22.3754C26.8841 22.2046 26.9235 21.9669 27.0944 21.8446C27.8106 21.3329 28.2382 20.5032 28.2382 19.6245V14.4604C28.2382 13.6868 27.89 12.9683 27.2829 12.489L26.3448 11.7483H3.65412L2.716 12.489C2.10896 12.9683 1.7607 13.6868 1.7607 14.4604V19.6245C1.7607 20.5032 2.18831 21.3334 2.90454 21.8446C3.07538 21.9664 3.11531 22.204 2.99299 22.3754C2.91869 22.4796 2.80193 22.5347 2.68315 22.5347Z" fill="#4D4D4D" stroke="#4D4D4D" stroke-width="0.5"/>
    <path d="M6.75623 17.9716C5.96975 17.9716 3.92925 17.8113 3.54309 16.1828C3.49456 15.9785 3.62093 15.7733 3.82563 15.7247C4.02983 15.6762 4.23505 15.8026 4.28357 16.0074C4.60453 17.3613 6.98217 17.2056 7.00593 17.2036C7.21569 17.1889 7.39765 17.3457 7.41281 17.555C7.42798 17.7643 7.27129 17.9468 7.06203 17.962C7.03979 17.9635 6.92809 17.9711 6.75623 17.9711V17.9716Z" fill="#DA2128" stroke="#D51B1B" stroke-width="0.5"/>
    <path d="M23.2436 17.972C23.0722 17.972 22.96 17.9644 22.9378 17.9629C22.7285 17.9472 22.5713 17.7647 22.587 17.5554C22.6027 17.3461 22.7857 17.1893 22.9944 17.2045C23.0182 17.206 25.3958 17.3617 25.7168 16.0083C25.7653 15.804 25.9705 15.6776 26.1747 15.7256C26.3789 15.7742 26.5053 15.9789 26.4572 16.1837C26.0711 17.8122 24.0311 17.9725 23.2441 17.9725L23.2436 17.972Z" fill="#DA2128" stroke="#D51B1B" stroke-width="0.5"/>
    <path d="M3.38111 11.4994C3.36241 11.4994 3.34421 11.4979 3.325 11.4955C3.11726 11.4658 2.97372 11.2797 3.00404 11.0796C3.04246 10.8312 3.96945 4.99939 7.14014 4.99939H14.8584C15.0686 4.99939 15.2385 5.16351 15.2385 5.36561C15.2385 5.56772 15.0681 5.73184 14.8584 5.73184H7.14014C5.05112 5.73184 3.98967 9.66923 3.75666 11.1862C3.72886 11.3684 3.5661 11.4994 3.38111 11.4994Z" fill="#4D4D4D" stroke="#4D4D4D" stroke-width="0.5"/>
    <path d="M26.3359 11.4994C26.1504 11.4994 25.9881 11.3684 25.9603 11.1862C25.7278 9.66923 24.6664 5.73184 22.5768 5.73184H14.8586C14.6483 5.73184 14.4785 5.56772 14.4785 5.36561C14.4785 5.16351 14.6489 4.99939 14.8586 4.99939H22.5768C25.7475 4.99939 26.675 10.8312 26.7129 11.0796C26.7433 11.2797 26.5997 11.4658 26.392 11.4955C26.3733 11.4984 26.3546 11.4994 26.3359 11.4994Z" fill="#4D4D4D" stroke="#4D4D4D" stroke-width="0.5"/>
</svg>