<svg width="24" height="24" viewBox="0 0 24 24" fill="currentColor" xmlns="http://www.w3.org/2000/svg">
<g id="Frame 1171275691">
<g id="Vector">
<path d="M7.58463 11.1904C7.80719 11.1904 8.00104 11.1096 8.16617 10.948C8.33129 10.7864 8.41386 10.5966 8.41386 10.3788C8.41386 10.1609 8.33129 9.97119 8.16617 9.80956C8.00104 9.64793 7.80719 9.56711 7.58463 9.56711C7.36206 9.56711 7.16822 9.64793 7.00309 9.80956C6.83796 9.97119 6.7554 10.1609 6.7554 10.3788C6.7554 10.5966 6.83796 10.7864 7.00309 10.948C7.16822 11.1096 7.36206 11.1904 7.58463 11.1904ZM11.8923 11.1904C12.1149 11.1904 12.3087 11.1096 12.4739 10.948C12.639 10.7864 12.7216 10.5966 12.7216 10.3788C12.7216 10.1609 12.639 9.97119 12.4739 9.80956C12.3087 9.64793 12.1149 9.56711 11.8923 9.56711C11.6698 9.56711 11.4759 9.64793 11.3108 9.80956C11.1457 9.97119 11.0631 10.1609 11.0631 10.3788C11.0631 10.5966 11.1457 10.7864 11.3108 10.948C11.4759 11.1096 11.6698 11.1904 11.8923 11.1904ZM16.2 11.1904C16.4226 11.1904 16.6164 11.1096 16.7816 10.948C16.9467 10.7864 17.0292 10.5966 17.0292 10.3788C17.0292 10.1609 16.9467 9.97119 16.7816 9.80956C16.6164 9.64793 16.4226 9.56711 16.2 9.56711C15.9774 9.56711 15.7836 9.64793 15.6185 9.80956C15.4533 9.97119 15.3708 10.1609 15.3708 10.3788C15.3708 10.5966 15.4533 10.7864 15.6185 10.948C15.7836 11.1096 15.9774 11.1904 16.2 11.1904ZM2.20001 21V4.70344C2.20001 4.21785 2.36622 3.81272 2.69863 3.48805C3.03104 3.16339 3.44458 3.0007 3.93924 3H19.8454C20.3408 3 20.7543 3.16268 21.086 3.48805C21.4177 3.81342 21.5839 4.21855 21.5846 4.70344V16.0552C21.5846 16.5401 21.4184 16.9452 21.086 17.2706C20.7536 17.5959 20.3401 17.7583 19.8454 17.7576H5.5137L2.20001 21ZM5.05386 16.7034H19.8454C20.0105 16.7034 20.1624 16.636 20.3009 16.5011C20.4395 16.3661 20.5084 16.2175 20.5077 16.0552V4.70239C20.5077 4.54076 20.4388 4.39213 20.3009 4.2565C20.1631 4.12087 20.0112 4.05341 19.8454 4.05411H3.93924C3.77411 4.05411 3.62227 4.12157 3.4837 4.2565C3.34514 4.39143 3.27622 4.54006 3.27694 4.70239V18.4375L5.05386 16.7034Z" fill="#263238"/>
<path d="M3.27694 16.7034V4.05411M7.58463 11.1904C7.80719 11.1904 8.00104 11.1096 8.16617 10.948C8.33129 10.7864 8.41386 10.5966 8.41386 10.3788C8.41386 10.1609 8.33129 9.97119 8.16617 9.80956C8.00104 9.64793 7.80719 9.56711 7.58463 9.56711C7.36206 9.56711 7.16822 9.64793 7.00309 9.80956C6.83796 9.97119 6.7554 10.1609 6.7554 10.3788C6.7554 10.5966 6.83796 10.7864 7.00309 10.948C7.16822 11.1096 7.36206 11.1904 7.58463 11.1904ZM11.8923 11.1904C12.1149 11.1904 12.3087 11.1096 12.4739 10.948C12.639 10.7864 12.7216 10.5966 12.7216 10.3788C12.7216 10.1609 12.639 9.97119 12.4739 9.80956C12.3087 9.64793 12.1149 9.56711 11.8923 9.56711C11.6698 9.56711 11.4759 9.64793 11.3108 9.80956C11.1457 9.97119 11.0631 10.1609 11.0631 10.3788C11.0631 10.5966 11.1457 10.7864 11.3108 10.948C11.4759 11.1096 11.6698 11.1904 11.8923 11.1904ZM16.2 11.1904C16.4226 11.1904 16.6164 11.1096 16.7816 10.948C16.9467 10.7864 17.0292 10.5966 17.0292 10.3788C17.0292 10.1609 16.9467 9.97119 16.7816 9.80956C16.6164 9.64793 16.4226 9.56711 16.2 9.56711C15.9774 9.56711 15.7836 9.64793 15.6185 9.80956C15.4533 9.97119 15.3708 10.1609 15.3708 10.3788C15.3708 10.5966 15.4533 10.7864 15.6185 10.948C15.7836 11.1096 15.9774 11.1904 16.2 11.1904ZM2.20001 21V4.70344C2.20001 4.21785 2.36622 3.81272 2.69863 3.48805C3.03104 3.16339 3.44458 3.0007 3.93924 3H19.8454C20.3408 3 20.7543 3.16268 21.086 3.48805C21.4177 3.81342 21.5839 4.21855 21.5846 4.70344V16.0552C21.5846 16.5401 21.4184 16.9452 21.086 17.2706C20.7536 17.5959 20.3401 17.7583 19.8454 17.7576H5.5137L2.20001 21ZM5.05386 16.7034H19.8454C20.0105 16.7034 20.1624 16.636 20.3009 16.5011C20.4395 16.3661 20.5084 16.2175 20.5077 16.0552V4.70239C20.5077 4.54076 20.4388 4.39213 20.3009 4.2565C20.1631 4.12087 20.0112 4.05341 19.8454 4.05411H3.93924C3.77411 4.05411 3.62227 4.12157 3.4837 4.2565C3.34514 4.39143 3.27622 4.54006 3.27694 4.70239V18.4375L5.05386 16.7034Z" stroke="#263238" stroke-width="0.3"/>
</g>
</g>
</svg>
