<svg width="24" height="24" viewBox="0 0 24 24" fill="currentColor" xmlns="http://www.w3.org/2000/svg">
<path d="M12 1.95375C5.93624 1.95375 0.993744 6.2025 0.993744 11.52C0.993744 14.6063 2.68499 17.2931 5.28187 19.05C5.27812 19.1531 5.28562 19.32 5.15062 19.8225C4.98187 20.4431 4.64249 21.3188 3.95437 22.305L3.46499 23.0063H4.31999C7.28249 23.0063 8.99624 21.075 9.26249 20.7656C10.1437 20.9719 11.0512 21.0863 12 21.0863C18.0637 21.0863 23.0062 16.8375 23.0062 11.52C23.0062 6.2025 18.0637 1.95375 12 1.95375ZM12 2.84625C17.6494 2.84625 22.1137 6.7575 22.1137 11.52C22.1137 16.2825 17.6494 20.1938 12 20.1938C11.0212 20.1938 10.0987 20.1 9.23249 19.8731L8.95499 19.8L8.77312 20.0231C8.77312 20.0231 7.38749 21.5869 5.17499 21.9638C5.57624 21.24 5.87249 20.565 6.00937 20.055C6.20249 19.3444 6.20624 18.8644 6.20624 18.8644V18.6188L5.99999 18.4875C3.46499 16.875 1.88624 14.3794 1.88624 11.52C1.88624 6.7575 6.35062 2.84625 12 2.84625ZM7.19999 10.56C6.66937 10.56 6.23999 10.9894 6.23999 11.52C6.23999 12.0506 6.66937 12.48 7.19999 12.48C7.73062 12.48 8.15999 12.0506 8.15999 11.52C8.15999 10.9894 7.73062 10.56 7.19999 10.56ZM12 10.56C11.4694 10.56 11.04 10.9894 11.04 11.52C11.04 12.0506 11.4694 12.48 12 12.48C12.5306 12.48 12.96 12.0506 12.96 11.52C12.96 10.9894 12.5306 10.56 12 10.56ZM16.8 10.56C16.2694 10.56 15.84 10.9894 15.84 11.52C15.84 12.0506 16.2694 12.48 16.8 12.48C17.3306 12.48 17.76 12.0506 17.76 11.52C17.76 10.9894 17.3306 10.56 16.8 10.56Z" fill="white"/>
</svg>
