<svg width="24" height="24" viewBox="0 0 24 24" fill="none" xmlns="http://www.w3.org/2000/svg">
<g id="Frame">
<g id="Group">
<path id="Vector" fill-rule="evenodd" clip-rule="evenodd" d="M17.9943 11.9993C18.7424 11.9991 19.4754 11.7891 20.1101 11.3932C20.7449 10.9973 21.2559 10.4313 21.5851 9.75956C21.9143 9.0878 22.0485 8.33718 21.9726 7.59296C21.8966 6.84874 21.6134 6.14074 21.1552 5.54938C20.697 4.95802 20.0822 4.507 19.3805 4.24754C18.6789 3.98809 17.9185 3.9306 17.1858 4.08161C16.4531 4.23261 15.7775 4.58606 15.2356 5.10181C14.6937 5.61756 14.3073 6.27493 14.1203 6.99927H2.99426C2.72905 6.99927 2.47469 7.10463 2.28716 7.29216C2.09962 7.4797 1.99426 7.73405 1.99426 7.99927C1.99426 8.26448 2.09962 8.51884 2.28716 8.70638C2.47469 8.89391 2.72905 8.99927 2.99426 8.99927H14.1203C14.5643 10.7243 16.1303 11.9993 17.9943 11.9993ZM15.9943 7.99927C15.9943 8.5297 16.205 9.03841 16.5801 9.41348C16.9551 9.78855 17.4638 9.99927 17.9943 9.99927C18.5247 9.99927 19.0334 9.78855 19.4085 9.41348C19.7836 9.03841 19.9943 8.5297 19.9943 7.99927C19.9943 7.46884 19.7836 6.96013 19.4085 6.58505C19.0334 6.20998 18.5247 5.99927 17.9943 5.99927C17.4638 5.99927 16.9551 6.20998 16.5801 6.58505C16.205 6.96013 15.9943 7.46884 15.9943 7.99927ZM1.99426 15.9993C1.9933 15.025 2.34795 14.0839 2.99164 13.3525C3.63533 12.6212 4.52381 12.1499 5.49031 12.0272C6.45681 11.9044 7.43489 12.1387 8.24095 12.6859C9.04702 13.2331 9.62566 14.0557 9.86826 14.9993H20.9943C21.2595 14.9993 21.5138 15.1046 21.7014 15.2922C21.8889 15.4797 21.9943 15.7341 21.9943 15.9993C21.9943 16.2645 21.8889 16.5188 21.7014 16.7064C21.5138 16.8939 21.2595 16.9993 20.9943 16.9993H9.86826C9.62253 17.9398 9.0429 18.7587 8.23759 19.3031C7.43228 19.8475 6.45636 20.0802 5.49204 19.9577C4.52773 19.8352 3.64095 19.366 2.99729 18.6375C2.35363 17.9091 1.9971 16.9713 1.99426 15.9993ZM7.99426 15.9993C7.99426 15.4688 7.78355 14.9601 7.40848 14.5851C7.03341 14.21 6.5247 13.9993 5.99426 13.9993C5.46383 13.9993 4.95512 14.21 4.58005 14.5851C4.20498 14.9601 3.99426 15.4688 3.99426 15.9993C3.99426 16.5297 4.20498 17.0384 4.58005 17.4135C4.95512 17.7886 5.46383 17.9993 5.99426 17.9993C6.5247 17.9993 7.03341 17.7886 7.40848 17.4135C7.78355 17.0384 7.99426 16.5297 7.99426 15.9993Z" fill="#7C8091" stroke="white" stroke-width="0.5"/>
</g>
</g>
</svg>
