<svg xmlns="http://www.w3.org/2000/svg" width="30" height="30" viewBox="0 0 30 30" fill="none">
                        <path d="M9.5376 19.25H22.0376V24.5C22.0376 25.0523 21.5899 25.5 21.0376 25.5H10.5376C9.98531 25.5 9.5376 25.0523 9.5376 24.5V19.25Z" fill="#D9D9D9"/>
                        <path d="M28.2232 17.0262C28.152 17.0262 28.0816 16.9993 28.0278 16.9447L14.75 3.66848L1.47302 16.9455C1.36461 17.0539 1.18972 17.0539 1.08131 16.9455C0.972897 16.837 0.972897 16.6622 1.08131 16.5537L14.5545 3.08131C14.663 2.9729 14.8378 2.9729 14.9462 3.08131L28.4187 16.5537C28.5271 16.6622 28.5271 16.837 28.4187 16.9455C28.3649 16.9993 28.2937 17.027 28.2232 17.027V17.0262Z" fill="#C20707" stroke="#D51B1B" stroke-width="0.8"/>
                        <path d="M24.2976 27.9536H5.20275C5.05002 27.9536 4.92578 27.8293 4.92578 27.6766V15.9546C4.92578 15.8019 5.05002 15.6776 5.20275 15.6776C5.35547 15.6776 5.47971 15.8019 5.47971 15.9546V27.3996H24.0206V15.9546C24.0206 15.8019 24.1449 15.6776 24.2976 15.6776C24.4503 15.6776 24.5746 15.8019 24.5746 15.9546V27.6766C24.5746 27.8293 24.4503 27.9536 24.2976 27.9536Z" fill="#C20707" stroke="#4D4D4D" stroke-width="0.8"/>
                        <path d="M24.2984 10.0788C24.1457 10.0788 24.0214 9.95456 24.0214 9.80183V5.99473H20.0553C19.9026 5.99473 19.7783 5.87049 19.7783 5.71776C19.7783 5.56504 19.9026 5.4408 20.0553 5.4408H24.2984C24.4511 5.4408 24.5754 5.56504 24.5754 5.71776V9.80183C24.5754 9.95456 24.4511 10.0788 24.2984 10.0788Z" fill="#C20707" stroke="#4D4D4D" stroke-width="0.8"/>
                        <path d="M19.4446 23.5516H10.0563C9.90354 23.5516 9.7793 23.4273 9.7793 23.2746V14.3634C9.7793 14.2107 9.90354 14.0864 10.0563 14.0864H19.4446C19.5974 14.0864 19.7216 14.2107 19.7216 14.3634V23.2746C19.7216 23.4273 19.5974 23.5516 19.4446 23.5516ZM10.3332 22.9976H19.1677V14.6404H10.3332V22.9976Z" fill="#C20707" stroke="#4D4D4D" stroke-width="0.8"/>
                        <path d="M19.4446 19.0953H10.0563C9.90354 19.0953 9.7793 18.9711 9.7793 18.8183C9.7793 18.6656 9.90354 18.5414 10.0563 18.5414H19.4446C19.5974 18.5414 19.7216 18.6656 19.7216 18.8183C19.7216 18.9711 19.5974 19.0953 19.4446 19.0953Z" fill="#C20707" stroke="#4D4D4D" stroke-width="0.8"/>
                        <path d="M14.8317 23.5516C14.6789 23.5516 14.5547 23.4273 14.5547 23.2746V14.3634C14.5547 14.2107 14.6789 14.0864 14.8317 14.0864C14.9844 14.0864 15.1086 14.2107 15.1086 14.3634V23.2746C15.1086 23.4273 14.9844 23.5516 14.8317 23.5516Z" fill="#C20707" stroke="#4D4D4D" stroke-width="0.8"/>
                    </svg>