<svg xmlns="http://www.w3.org/2000/svg" 
xmlns:xlink="http://www.w3.org/1999/xlink" 
viewBox="0,0,256,256" width="30px" height="30px"><g fill="#ffffff" fill-rule="nonzero" stroke="none" stroke-width="1" stroke-linecap="butt" stroke-linejoin="miter" stroke-miterlimit="10" stroke-dasharray="" stroke-dashoffset="0" font-family="none" font-weight="none" font-size="none" text-anchor="none" style="mix-blend-mode: normal"><g transform="scale(5.12,5.12)"><path d="M1,0c-0.25,0 -0.48828,0.11328 -0.6875,0.3125c-0.39844,0.39844 -0.39844,0.97656 0,1.375l48,48c0.19922,0.19922 0.48828,0.3125 0.6875,0.3125c0.19922,0 0.48828,-0.11328 0.6875,-0.3125c0.39844,-0.39844 0.39844,-0.97656 0,-1.375l-7.5625,-7.5625c4.83203,-3.77734 7.6875,-9.54297 7.6875,-15.84375c0,-7.69922 -4.32422,-14.59375 -11.125,-18.09375c-0.5,-0.19922 -1.08203,-0.125 -1.28125,0.375c-0.19922,0.69922 0.00781,1.30078 0.40625,1.5c6.19922,3.10156 10,9.41406 10,16.3125c0,5.69922 -2.64062,10.97656 -7.0625,14.375l-3.1875,-3.1875c3.29688,-2.69141 5.34375,-6.77344 5.34375,-11.1875c0,-5.30078 -2.89453,-10.1875 -7.59375,-12.6875c-0.5,-0.30078 -1.10547,-0.125 -1.40625,0.375c-0.30078,0.5 -0.11719,1.11328 0.28125,1.3125c4,2.19922 6.625,6.39844 6.625,11c0,3.82813 -1.73437,7.42969 -4.6875,9.75l-3.84375,-3.84375c2.11328,-1.19141 3.53125,-3.39844 3.53125,-5.90625c0,-3.10156 -2.125,-5.79297 -5.125,-6.59375c-0.5,-0.10156 -1.08594,0.1875 -1.1875,0.6875c-0.10156,0.5 0.1875,1.11719 0.6875,1.21875c2.10156,0.5 3.625,2.39453 3.625,4.59375c0,1.99219 -1.24219,3.80078 -3.03125,4.5l-3.96875,-3.96875v-19.125c0,-2.30078 -1.51172,-3.3125 -2.8125,-3.3125c-0.89844,0 -1.79297,0.38672 -2.59375,1.1875l-7.90625,7.9375l-11.8125,-11.8125c-0.19922,-0.19922 -0.4375,-0.3125 -0.6875,-0.3125zM24,5c0.80078,0 0.8125,1.01172 0.8125,1.3125v17.125l-10,-10l7.875,-7.84375c0.5,-0.39844 0.91406,-0.59375 1.3125,-0.59375zM10.8125,14.6875l-1.21875,1.3125h-6.78125c-1.69922,0 -3,1.30078 -3,3v12c0,1.69922 1.30078,3 3,3h6.78125l11.71875,11.6875c1.10156,1.10156 1.98828,1.3125 2.6875,1.3125c1.69922,0 2.8125,-1.48828 2.8125,-3.6875v-12.625l-2,-2v14.625c0,1 -0.3125,1.6875 -0.8125,1.6875c-0.30078,0 -0.78906,-0.28906 -1.1875,-0.6875l-12.71875,-12.625c-0.10156,-0.10156 -0.28125,-0.47656 -0.28125,-0.875v-11.625c0,-0.39844 0.17969,-0.80078 0.28125,-1l2.09375,-2.09375zM2.8125,18h5.1875c-0.10156,0.39844 -0.1875,0.88672 -0.1875,1.1875v11.5c0,0.39844 0.08594,0.91406 0.1875,1.3125h-5.1875c-0.60156,0 -1,-0.39844 -1,-1v-12c0,-0.60156 0.39844,-1 1,-1z"></path></g></g></svg>