<svg xmlns="http://www.w3.org/2000/svg" width="30" height="30" viewBox="0 0 30 30" fill="none">
<path d="M4.64346 18.9644L3.15702 19.8315C2.2076 20.3853 1.88302 21.6015 2.43026 22.5547L4.96857 26.9763C5.53313 27.9597 6.8015 28.2776 7.76308 27.6766L9.17292 26.7954C9.37304 26.6704 9.43609 26.408 9.31468 26.2057C9.19169 26.0007 9.25867 25.7345 9.46366 25.6115C9.66577 25.4903 9.73466 25.2296 9.61823 25.0246L6.34624 19.2659C6.23591 19.0718 5.99292 18.9979 5.79315 19.0977C5.65084 19.1689 5.48054 19.1535 5.35325 19.0581L5.27713 19.001C5.09248 18.8625 4.84284 18.8481 4.64346 18.9644Z" fill="#D9D9D9"/>
<path d="M13.8918 11.0491L11.6803 8.83761C11.5642 8.72152 11.5642 8.53418 11.6803 8.41807C11.7964 8.30198 11.9838 8.30198 12.0999 8.41807L14.101 10.4192L18.3136 6.2067C18.4296 6.09061 18.617 6.09061 18.7331 6.2067C18.8492 6.32279 18.8492 6.51013 18.7331 6.62624L14.3102 11.0492C14.2527 11.1066 14.1757 11.1365 14.0998 11.1365C14.0251 11.1354 13.9493 11.1066 13.8918 11.0491Z" fill="#DA2128" stroke="#DA2128"/>
<path d="M28.0278 19.261C27.4302 18.2265 26.1025 17.8701 25.0671 18.4679L19.5545 21.6505C19.543 21.2976 19.4453 20.9505 19.2626 20.6344C18.9729 20.1321 18.5063 19.7723 17.9488 19.6241L10.0004 17.4942C9.10965 17.2551 8.25217 17.3677 7.45333 17.8298L5.43149 18.9976L5.19126 18.5815C5.15218 18.5137 5.08666 18.4631 5.0108 18.4436C4.93494 18.4229 4.85332 18.4344 4.78551 18.4735L1.14884 20.5712C1.00631 20.6528 0.958031 20.8344 1.03964 20.9769L5.58673 28.8517C5.62581 28.9195 5.69133 28.9701 5.76719 28.9897C5.79248 28.9966 5.81777 29 5.8442 29C5.89593 29 5.94765 28.9862 5.99248 28.9598L9.62915 26.8598C9.77168 26.7782 9.81996 26.5966 9.73835 26.454L9.42915 25.9184L10.5108 25.2943L17.958 26.8483C18.1431 26.8977 18.3316 26.9218 18.5178 26.9218C18.8925 26.9218 19.2614 26.8241 19.5936 26.6322L27.2351 22.2207C28.2695 21.6242 28.6247 20.2954 28.0282 19.2608L28.0278 19.261ZM5.95299 28.2989L1.70251 20.9379L4.82423 19.1356L9.07472 26.4955L5.95299 28.2989ZM26.9368 21.7071L19.2953 26.1185C18.9332 26.3277 18.5091 26.3829 18.1022 26.2737C18.0964 26.2725 18.0918 26.2714 18.0861 26.2702L10.5194 24.6909C10.4481 24.676 10.3734 24.6875 10.3102 24.7243L9.12973 25.4059L5.72758 19.5117L7.74942 18.3439C8.4069 17.9645 9.11264 17.8714 9.84598 18.068L17.7943 20.1979C18.1978 20.3059 18.5369 20.5669 18.7472 20.9324C18.9576 21.2979 19.015 21.7209 18.9058 22.1255C18.6817 22.9634 17.8162 23.4623 16.9794 23.2381L12.8322 22.1266C12.6736 22.0841 12.5103 22.1784 12.469 22.337C12.4264 22.4956 12.5207 22.6576 12.6793 22.7002L16.8265 23.8117C17.0139 23.8623 17.2012 23.8852 17.3874 23.8852C18.3035 23.8852 19.1472 23.299 19.4437 22.4002L25.3644 18.9818C26.1161 18.5485 27.0805 18.806 27.5138 19.5577C27.9472 20.3094 27.6885 21.2737 26.9368 21.7071ZM15.4897 17.0461C15.5093 17.0496 15.5288 17.0519 15.5495 17.0519C15.569 17.0519 15.5897 17.0496 15.6093 17.0461C17.1989 16.722 18.7792 15.7519 19.9471 14.3863C21.1529 12.9771 21.8161 11.3014 21.8161 9.66917L21.815 3.5543C21.815 3.41407 21.7161 3.29223 21.5793 3.26349L15.6104 2.00603C15.5702 1.99799 15.5288 1.99799 15.4874 2.00603L9.5185 3.26349C9.38057 3.29223 9.28287 3.41407 9.28287 3.5543V9.66917C9.28287 11.3014 9.94609 12.976 11.1518 14.3863C12.3185 15.753 13.9001 16.722 15.4897 17.0461ZM9.87597 3.79562L15.5483 2.60021L21.2206 3.79562V9.67037C21.2206 12.7003 18.6286 15.7911 15.5483 16.4532C12.4666 15.7923 9.87597 12.7003 9.87597 9.67037V3.79562Z" fill="#4D4D4D" stroke="#4D4D4D"/>
</svg>