<svg width="20" height="20" viewBox="0 0 20 20" fill="none" xmlns="http://www.w3.org/2000/svg">
<g id="Group 1000004172">
<g id="Group 1000004171">
<path id="Vector" d="M15.0757 8.78804C15.0757 13.0305 9.6212 16.6668 9.6212 16.6668C9.6212 16.6668 4.16666 13.0305 4.16666 8.78804C4.16666 7.3414 4.74133 5.95402 5.76426 4.9311C6.78718 3.90817 8.17457 3.3335 9.6212 3.3335C11.0678 3.3335 12.4552 3.90817 13.4782 4.9311C14.5011 5.95402 15.0757 7.3414 15.0757 8.78804Z" stroke="#263238" stroke-width="1.5" stroke-linecap="round" stroke-linejoin="round"/>
<path id="Vector_2" d="M9.62122 10.6063C10.6254 10.6063 11.4394 9.79233 11.4394 8.78815C11.4394 7.784 10.6254 6.96997 9.62122 6.96997C8.61704 6.96997 7.80304 7.784 7.80304 8.78815C7.80304 9.79233 8.61704 10.6063 9.62122 10.6063Z" stroke="#263238" stroke-width="1.5" stroke-linecap="round" stroke-linejoin="round"/>
</g>
</g>
</svg>
