<svg width="25" height="24" viewBox="0 0 25 24" fill="none" xmlns="http://www.w3.org/2000/svg">
<g id="material-symbols-light:share">
<path id="Vector" d="M17.11 21C16.4473 21 15.885 20.7683 15.423 20.305C14.9617 19.841 14.731 19.2777 14.731 18.615C14.731 18.515 14.775 18.2627 14.863 17.858L7.666 13.585C7.45 13.8343 7.18567 14.03 6.873 14.172C6.56033 14.314 6.22467 14.385 5.866 14.385C5.20867 14.385 4.65 14.151 4.19 13.683C3.73 13.215 3.5 12.654 3.5 12C3.5 11.346 3.73 10.785 4.19 10.317C4.65 9.849 5.20867 9.615 5.866 9.615C6.224 9.615 6.55967 9.686 6.873 9.828C7.18633 9.97 7.45067 10.166 7.666 10.416L14.864 6.161C14.8173 6.03167 14.7837 5.90333 14.763 5.776C14.7417 5.648 14.731 5.51733 14.731 5.384C14.731 4.722 14.9633 4.159 15.428 3.695C15.8927 3.23167 16.4567 3 17.12 3C17.7833 3 18.346 3.23233 18.808 3.697C19.27 4.16167 19.5007 4.72567 19.5 5.389C19.4993 6.05233 19.2677 6.615 18.805 7.077C18.3423 7.539 17.779 7.76967 17.115 7.769C16.7537 7.769 16.4203 7.695 16.115 7.547C15.8097 7.399 15.5497 7.2 15.335 6.95L8.136 11.223C8.18267 11.3523 8.21633 11.481 8.237 11.609C8.25833 11.7363 8.269 11.8667 8.269 12C8.269 12.1333 8.25833 12.2637 8.237 12.391C8.21567 12.5183 8.18233 12.647 8.137 12.777L15.335 17.05C15.5503 16.8 15.8103 16.601 16.115 16.453C16.4203 16.305 16.7537 16.231 17.115 16.231C17.7777 16.231 18.341 16.463 18.805 16.927C19.2683 17.3923 19.5 17.9567 19.5 18.62C19.5 19.2833 19.2677 19.846 18.803 20.308C18.3383 20.77 17.7733 21.0007 17.11 21Z" fill="#263238"/>
</g>
</svg>
