<svg width="24" height="24" viewBox="0 0 24 24" fill="none" xmlns="http://www.w3.org/2000/svg">
<g id="Frame 1171275651">
<path id="Vector" fill-rule="evenodd" clip-rule="evenodd" d="M10.4078 8.14237C10.7102 8.42544 11.1989 8.42544 11.5012 8.14237C11.8026 7.85931 11.8026 7.39936 11.5012 7.1163L8.41034 4.21318C8.108 3.92921 7.61927 3.92921 7.31693 4.21318L4.22603 7.1163C3.92466 7.39936 3.92466 7.85931 4.22603 8.14237C4.52837 8.42544 5.0171 8.42544 5.31944 8.14237L7.09092 6.47852V18.2742C7.09092 18.6743 7.43671 19 7.86365 19C8.29059 19 8.63638 18.6743 8.63638 18.2742V6.47852L10.4078 8.14237ZM14.5922 14.8576C14.2898 14.5746 13.8011 14.5746 13.4988 14.8576C13.1974 15.1407 13.1974 15.6006 13.4988 15.8837L16.5897 18.7868C16.892 19.0708 17.3807 19.0708 17.6831 18.7868L20.774 15.8837C21.0753 15.6006 21.0753 15.1407 20.774 14.8576C20.4716 14.5746 19.9829 14.5746 19.6806 14.8576L17.9091 16.5215V4.72578C17.9091 4.32568 17.5633 4 17.1364 4C16.7094 4 16.3636 4.32568 16.3636 4.72578V16.5215L14.5922 14.8576Z" fill="#7C8091"/>
</g>
</svg>
