<svg width="31" height="24" viewBox="0 0 31 24" fill="none" xmlns="http://www.w3.org/2000/svg">
<g id="Frame 1171275690" clip-path="url(#clip0_1_2306)">
<path id="Vector" d="M8.98494 7.80228C8.70947 5.90584 9.99211 4.1995 11.9515 3.57338C12.2994 3.46229 12.6748 3.49386 13.0012 3.66165C13.3275 3.82945 13.5802 4.12082 13.7077 4.47634L14.336 6.22644C14.4371 6.50796 14.4552 6.81454 14.3881 7.10687C14.3209 7.3992 14.1717 7.66395 13.9594 7.86716L12.0903 9.65573C11.998 9.74395 11.9292 9.85568 11.8906 9.97998C11.8521 10.1043 11.8452 10.2369 11.8705 10.3648L11.8872 10.4433L11.9334 10.6402C11.9746 10.8061 12.0368 11.04 12.1243 11.3191C12.2978 11.8735 12.5748 12.6188 12.9869 13.3634C13.399 14.1079 13.8791 14.731 14.2522 15.1648C14.4466 15.3905 14.6497 15.6079 14.861 15.8165L14.9188 15.8724C15.0123 15.9587 15.1256 16.0184 15.2478 16.0455C15.3699 16.0726 15.4967 16.0662 15.6158 16.027L18.035 15.2327C18.3099 15.1425 18.6043 15.1401 18.8805 15.2257C19.1567 15.3113 19.4021 15.4811 19.5852 15.7132L20.7298 17.163C21.207 17.7665 21.1506 18.6536 20.6018 19.187C19.1022 20.6451 17.0402 20.9446 15.6057 19.7407C13.8478 18.2606 12.3656 16.4562 11.2328 14.4172C10.0918 12.3789 9.32915 10.1353 8.98494 7.80228ZM13.3853 10.4636L14.9369 8.97907C15.3615 8.57265 15.6601 8.04316 15.7943 7.4585C15.9285 6.87384 15.8923 6.26067 15.6903 5.69764L15.0612 3.94754C14.8046 3.23251 14.2963 2.64651 13.6399 2.30898C12.9835 1.97146 12.2284 1.90783 11.5285 2.13106C9.09556 2.9088 7.14195 5.18468 7.55552 8.02784C7.92677 10.5488 8.75021 12.9742 9.98271 15.1768C11.2045 17.3757 12.8031 19.3215 14.699 20.9175C16.85 22.7204 19.7233 22.1056 21.588 20.2913C22.1218 19.7727 22.4458 19.061 22.4938 18.3016C22.5418 17.5422 22.3101 16.7923 21.8461 16.205L20.7016 14.7552C20.3353 14.2908 19.8444 13.9512 19.2919 13.78C18.7393 13.6087 18.1503 13.6136 17.6005 13.7941L15.5927 14.4534C15.5028 14.357 15.4148 14.2587 15.3288 14.1585C14.916 13.6823 14.5509 13.1634 14.2392 12.6098C13.9354 12.0513 13.687 11.4618 13.4981 10.8506C13.4579 10.7227 13.4203 10.5939 13.3853 10.4644" fill="#263238"/>
</g>
<defs>
<clipPath id="clip0_1_2306">
<rect width="30" height="24" fill="white" transform="translate(0.5)"/>
</clipPath>
</defs>
</svg>
