<svg width="24" height="24" viewBox="0 0 24 24" fill="none" xmlns="http://www.w3.org/2000/svg">
<rect x="2.375" y="19.375" width="19.25" height="0.75" rx="0.375" stroke="#263238" stroke-width="0.75"/>
<mask id="path-2-inside-1_1_1483" fill="white">
<rect x="2" y="3" width="20" height="14.5455" rx="1"/>
</mask>
<rect x="2" y="3" width="20" height="14.5455" rx="1" stroke="#263238" stroke-width="3" mask="url(#path-2-inside-1_1_1483)"/>
<path d="M14.2704 9.65696C14.4083 9.73029 14.5237 9.83975 14.6041 9.97362C14.6845 10.1075 14.727 10.2607 14.727 10.4169C14.727 10.5731 14.6845 10.7263 14.6041 10.8602C14.5237 10.994 14.4083 11.1035 14.2704 11.1768L10.5922 13.177C9.99995 13.4994 9.27246 13.0802 9.27246 12.4173V8.41673C9.27246 7.75355 9.99995 7.33469 10.5922 7.65652L14.2704 9.65696Z" stroke="#263238" stroke-width="1.5"/>
</svg>
