<svg width="22" height="22" viewBox="0 0 22 22" fill="none" xmlns="http://www.w3.org/2000/svg">
<g id="Group">
<path id="Vector" fill="currentColor" d="M2.22852 10.8472C3.60953 9.46614 5.84456 9.46614 7.22554 10.8472M17.3073 12.956C18.0347 12.956 18.6242 12.3664 18.6242 11.6391C18.6242 10.6072 17.3073 9.20862 17.3073 9.20862C17.3073 9.20862 15.9905 10.6072 15.9905 11.6391C15.9905 12.3664 16.5801 12.956 17.3073 12.956Z" stroke="black" stroke-width="0.7" stroke-miterlimit="10"/>
<path id="Vector_2" fill="currentColor" d="M3.06128 11.6802C3.98204 10.7595 5.47198 10.7597 6.39245 11.6802M3.89418 12.5132C4.35444 12.0529 5.09953 12.0526 5.55975 12.5129" stroke="black" stroke-width="0.7" stroke-miterlimit="10"/>
<path id="Vector_3" fill="currentColor" d="M8.45406 11.1018C8.45406 13.1602 6.7854 14.8288 4.72703 14.8288C2.66866 14.8288 1 13.1602 1 11.1018C1 9.04342 2.66866 7.37476 4.72703 7.37476C6.7854 7.37476 8.45406 9.04338 8.45406 11.1018Z" stroke="black" stroke-width="0.7" stroke-miterlimit="10"/>
<path id="Vector_4" fill="currentColor" d="M17.3071 14.8094C19.3655 14.8094 21.0341 13.1408 21.0341 11.0824C21.0341 9.02399 19.3655 7.35535 17.3071 7.35535C15.2487 7.35535 13.5801 9.02399 13.5801 11.0824C13.5801 13.1408 15.2487 14.8094 17.3071 14.8094Z" stroke="black" stroke-width="0.7" stroke-miterlimit="10"/>
<path id="Vector_5" fill="currentColor" d="M11.0073 8.45406C13.0657 8.45406 14.7343 6.78541 14.7343 4.72703C14.7343 2.66865 13.0657 1 11.0073 1C8.94892 1 7.28027 2.66865 7.28027 4.72703C7.28027 6.78541 8.94892 8.45406 11.0073 8.45406Z" stroke="black" stroke-width="0.7" stroke-miterlimit="10"/>
<path id="Vector_6" fill="currentColor" d="M11.0074 5.7837C11.9901 5.7837 12.7868 4.98705 12.7868 4.00434C12.7868 3.02162 11.9901 2.22498 11.0074 2.22498C10.0247 2.22498 9.22803 3.02162 9.22803 4.00434C9.22803 4.98705 10.0247 5.7837 11.0074 5.7837Z" stroke="black" stroke-width="0.7" stroke-miterlimit="10"/>
<path id="Vector_7" fill="currentColor" d="M10.1201 5.70113V6.99916H11.9246V5.57132M4.76978 7.29252C5.37274 6.27129 6.21558 5.41245 7.22528 4.79039M14.7312 4.73254C15.7964 5.36651 16.6826 6.26148 17.3059 7.33299M14.6663 18.82V20.946H7.40405L7.40457 16.3543" stroke="black" stroke-width="0.7" stroke-miterlimit="10"/>
<path id="Vector_8" fill="currentColor" d="M10.1006 20.8785V17.9036H11.9284V20.9999M14.6593 18.2022V16.4312M8.23962 16.4049L11.0144 13.6417L13.7956 16.4034L15.5183 16.4064L11.0239 11.9176L6.53149 16.4047L8.23962 16.4049Z" stroke="black" stroke-width="0.7" stroke-miterlimit="10"/>
</g>
</svg>
