<svg width="16" height="20" viewBox="0 0 16 20" fill="currentColor" xmlns="http://www.w3.org/2000/svg">
<g id="Group">
<path id="Vector" fill-rule="evenodd" clip-rule="evenodd" d="M1.47574 18.0545H14.5239V18.8913H1.47574V18.0545ZM12.6732 13.1277H14.4025L15.3008 16.1224C15.4544 16.6964 15.2229 17.1102 14.7543 17.4048H13.0538C13.2467 17.0055 13.3314 16.5126 13.2278 15.9775L12.6732 13.1277ZM10.3763 13.1277H12.0103L12.5877 16.0903C12.6899 16.6777 12.5326 17.1254 12.2764 17.4048H10.6026C10.7331 17.0141 10.7871 16.5397 10.723 15.9996L10.3763 13.1277ZM8.32488 13.1277H9.72247L10.077 16.0733C10.1382 16.6529 10.0412 17.12 9.90135 17.4046H8.32488V13.1277ZM6.27714 13.1277H7.67571V17.4046H6.09531C5.95698 17.1176 5.86213 16.6463 5.92381 16.0733V16.0704C5.92381 16.0694 5.92258 16.0694 5.92381 16.0684L6.27714 13.1277ZM3.98787 13.1277H5.62183L5.27759 15.9996C5.21862 16.5367 5.26481 17.0126 5.3943 17.4048H3.73159C3.46966 17.1269 3.30922 16.6839 3.4134 16.0903L3.98787 13.1277ZM1.59859 13.1277H3.3247L2.77062 15.9775C2.66693 16.5151 2.75514 17.0077 2.95122 17.4048H1.24551C0.778413 17.1102 0.528772 16.6918 0.700032 16.1224L1.59859 13.1277ZM1.35632 11.639H14.644C14.8821 11.639 15.061 11.8208 15.061 12.0574C15.061 12.2955 14.8821 12.4774 14.644 12.4774H1.35632C1.11847 12.4774 0.936649 12.2955 0.936649 12.0574C0.935782 12.0021 0.946055 11.9472 0.966854 11.896C0.987653 11.8448 1.01855 11.7982 1.05771 11.7592C1.09687 11.7201 1.14349 11.6894 1.1948 11.6687C1.2461 11.6481 1.30103 11.638 1.35632 11.639ZM1.35632 10.9903C0.76883 10.9903 0.287978 11.4712 0.287978 12.0577C0.287978 12.4992 0.560469 12.8803 0.944512 13.043L0.0717536 15.9492C-0.167813 16.7483 0.220162 17.4758 0.825098 17.9009V19.2154C0.824839 19.2582 0.833018 19.3007 0.849168 19.3403C0.865318 19.38 0.889123 19.416 0.919221 19.4465C0.949319 19.4769 0.98512 19.5011 1.02458 19.5177C1.06404 19.5343 1.10638 19.543 1.14919 19.5432H14.8485C15.0288 19.5432 15.176 19.3958 15.1748 19.2154V17.9009C15.7787 17.4758 16.1677 16.7483 15.9286 15.9492L15.0561 13.0427C15.4401 12.8801 15.7129 12.499 15.7129 12.0574C15.7129 11.4709 15.2303 10.9901 14.644 10.9901L1.35632 10.9903ZM11.1466 2.04111C11.705 2.65563 12.0669 3.42309 12.1857 4.24487H8.79467L11.1466 2.04111ZM4.85252 2.04111L7.20346 4.24487H3.81341C3.93301 3.42332 4.29478 2.65607 4.85252 2.04111ZM8.32488 0.668083C9.21557 0.73467 10.0269 1.06687 10.677 1.59195L8.32488 3.79571V0.668083ZM7.67571 0.668083V3.79571L5.32379 1.59195C5.97393 1.06687 6.78403 0.73467 7.67571 0.668083ZM7.9998 0C5.29946 0 3.11363 2.17256 3.11363 4.86135V9.7232C3.11363 10.1581 3.76476 10.1581 3.76476 9.7232V4.89354H12.2353V9.7232C12.233 9.7673 12.2397 9.81141 12.2551 9.85283C12.2704 9.89425 12.294 9.93212 12.3244 9.9641C12.3549 9.99609 12.3915 10.0215 12.4322 10.0389C12.4728 10.0562 12.5165 10.0651 12.5607 10.065C12.7459 10.065 12.8943 9.91043 12.8843 9.7232V4.86135C12.8845 2.17256 10.6999 0 7.9998 0Z" fill="black"/>
</g>
</svg>
