<svg width="22" height="20" viewBox="0 0 22 20" fill="currentColor" xmlns="http://www.w3.org/2000/svg">
<g id="bath">
<path id="Vector" d="M20.2215 10.6429H19.8667V3.19287C19.8667 1.41904 18.4477 0 16.6739 0C15.1036 0 13.9743 1.16432 13.8479 2.8703C13.0236 3.02611 12.4167 3.73611 12.4167 4.6119C12.4167 4.82476 12.5586 4.96665 12.7715 4.96665H15.6096C15.8224 4.96665 15.9643 4.82476 15.9643 4.6119C15.9643 3.7458 15.3709 3.0417 14.5605 2.87549C14.6665 1.74818 15.3436 0.709498 16.6739 0.709498C18.0574 0.709498 19.1572 1.80925 19.1572 3.19282V10.6428H8.48001C8.31954 9.82463 7.61203 9.22381 6.74052 9.22381C6.38577 8.79809 5.88909 8.51427 5.32149 8.51427C4.64745 8.51427 4.04434 8.90452 3.76051 9.47213C3.47669 9.33024 3.1574 9.22381 2.83812 9.22381C1.96661 9.22381 1.2591 9.82463 1.09863 10.6428H1.06429C0.461178 10.6428 0 11.104 0 11.7071C0 12.3102 0.461178 12.7714 1.06429 12.7714H1.49063L2.44786 16.5674C2.73169 17.6672 3.72501 18.4477 4.86027 18.4477H5.14409L4.68291 19.3701C4.57648 19.5475 4.64745 19.7603 4.8248 19.8312C4.86027 19.8667 4.93123 19.8667 4.9667 19.8667C5.10859 19.8667 5.21502 19.7957 5.28598 19.6893L5.9068 18.4477H15.7515L16.3546 19.6538C16.4256 19.7957 16.532 19.8667 16.6739 19.8667C16.7448 19.8667 16.7803 19.8667 16.8158 19.7957C16.9577 19.7248 17.0286 19.5119 16.9577 19.3346L16.5133 18.4457C17.6116 18.4068 18.5614 17.6396 18.8379 16.6029L19.8041 12.7714H20.2215C20.8246 12.7714 21.2858 12.3102 21.2858 11.7071C21.2858 11.1041 20.8246 10.6429 20.2215 10.6429ZM15.2193 4.25716H13.1972C13.3391 3.83144 13.7648 3.54762 14.226 3.54762C14.6872 3.54762 15.0774 3.83144 15.2193 4.25716ZM2.83812 9.93335C3.1574 9.93335 3.44123 10.0752 3.68955 10.3236C3.76051 10.43 3.90241 10.4655 4.0443 10.43C4.18619 10.3946 4.25715 10.2881 4.29262 10.1462C4.39905 9.61406 4.82476 9.22381 5.35691 9.22381C5.74716 9.22381 6.10191 9.4012 6.2793 9.75595C6.35027 9.89784 6.52762 9.96881 6.66956 9.93335H6.77599C7.23716 9.93335 7.62742 10.2172 7.76931 10.6429H1.84475C1.98669 10.2172 2.3769 9.93335 2.83812 9.93335ZM18.1993 16.39C17.9865 17.1705 17.2769 17.7382 16.461 17.7382H4.89573C4.07976 17.7382 3.37026 17.1706 3.1574 16.39L2.23501 12.7715H19.0508L18.1993 16.39ZM20.2215 12.0619H1.06429C0.851431 12.0619 0.70954 11.92 0.70954 11.7072C0.70954 11.4943 0.851431 11.3524 1.06429 11.3524H20.2215C20.4343 11.3524 20.5762 11.4943 20.5762 11.7072C20.5762 11.92 20.4343 12.0619 20.2215 12.0619Z" fill="black"/>
<path id="Vector_2" d="M12.7716 6.56304C12.9844 6.56304 13.1263 6.42115 13.1263 6.20829V6.0309C13.1263 5.81804 12.9844 5.67615 12.7716 5.67615C12.5587 5.67615 12.4168 5.81804 12.4168 6.0309V6.20829C12.4168 6.42115 12.5587 6.56304 12.7716 6.56304ZM12.7716 8.19498C12.9844 8.19498 13.1263 8.01758 13.1263 7.84023V7.44998C13.1263 7.23712 12.9844 7.09523 12.7716 7.09523C12.5587 7.09523 12.4168 7.23712 12.4168 7.44998V7.84023C12.4168 8.05305 12.5587 8.19498 12.7716 8.19498ZM12.7716 9.57855C12.9844 9.57855 13.1263 9.43666 13.1263 9.2238V9.04641C13.1263 8.83355 12.9844 8.69166 12.7716 8.69166C12.5587 8.69166 12.4168 8.83355 12.4168 9.04641V9.2238C12.4168 9.43662 12.5587 9.57855 12.7716 9.57855ZM14.1906 6.56304C14.4035 6.56304 14.5454 6.42115 14.5454 6.20829V6.0309C14.5454 5.81804 14.4035 5.67615 14.1906 5.67615C13.9778 5.67615 13.8359 5.81804 13.8359 6.0309V6.20829C13.8359 6.42115 13.9778 6.56304 14.1906 6.56304ZM13.8359 7.84019C13.8359 8.05305 13.9778 8.19494 14.1906 8.19494C14.4035 8.19494 14.5454 8.01754 14.5454 7.84019V7.44993C14.5454 7.23708 14.4035 7.09519 14.1906 7.09519C13.9778 7.09519 13.8359 7.23708 13.8359 7.44993V7.84019ZM13.8359 9.22376C13.8359 9.43662 13.9778 9.57851 14.1906 9.57851C14.4035 9.57851 14.5454 9.43662 14.5454 9.22376V9.04637C14.5454 8.83351 14.4035 8.69162 14.1906 8.69162C13.9778 8.69162 13.8359 8.83351 13.8359 9.04637V9.22376ZM15.6097 6.56304C15.8225 6.56304 15.9644 6.42115 15.9644 6.20829V6.0309C15.9644 5.81804 15.8225 5.67615 15.6097 5.67615C15.3968 5.67615 15.2549 5.81804 15.2549 6.0309V6.20829C15.2549 6.42115 15.3968 6.56304 15.6097 6.56304ZM15.2549 7.84019C15.2549 8.05305 15.3968 8.19494 15.6096 8.19494C15.8225 8.19494 15.9644 8.01758 15.9644 7.84019V7.44993C15.9644 7.23708 15.8225 7.09519 15.6097 7.09519C15.3968 7.09519 15.2549 7.23708 15.2549 7.44993L15.2549 7.84019ZM15.2549 9.22376C15.2549 9.43662 15.3968 9.57851 15.6096 9.57851C15.8225 9.57851 15.9644 9.43662 15.9644 9.22376V9.04637C15.9644 8.83351 15.8225 8.69162 15.6096 8.69162C15.3968 8.69162 15.2549 8.83351 15.2549 9.04637V9.22376Z" fill="black"/>
</g>
</svg>
