<svg width="19" height="19" viewBox="0 0 19 19" fill="currentColor" xmlns="http://www.w3.org/2000/svg">
<g id="Group">
<path id="Vector" d="M17.7879 9.33266V3.3608C17.7879 1.90819 16.6061 0.72644 15.1535 0.72644H3.77076C2.31815 0.72644 1.1364 1.90823 1.1364 3.3608V9.4097C0.432807 10.1453 0 11.1419 0 12.2378V16.766C0 17.5972 0.676244 18.2735 1.50749 18.2735C2.33871 18.2735 3.01495 17.5972 3.01495 16.766V16.2983H15.9851V16.766C15.9851 17.5972 16.6613 18.2735 17.4925 18.2735C18.3238 18.2735 19 17.5972 19 16.766V12.2378C19 11.1031 18.536 10.0749 17.7879 9.33266ZM3.77076 1.46863H15.1535C16.1969 1.46863 17.0457 2.31747 17.0457 3.3608V8.7486C16.8169 8.60768 16.5748 8.4897 16.3228 8.39639V7.16236C16.3228 6.06837 15.4328 5.17834 14.3388 5.17834H11.113C10.4488 5.17834 9.86033 5.50665 9.50004 6.00915C9.13974 5.50665 8.55122 5.17834 7.88712 5.17834H4.66127C3.56729 5.17834 2.67726 6.06834 2.67726 7.16236V8.39639C2.39722 8.50009 2.12941 8.63421 1.87863 8.79632V3.3608C1.87859 2.31747 2.72739 1.46863 3.77076 1.46863ZM4.09439 8.14338C3.8645 8.14338 3.63902 8.16275 3.41937 8.19934V7.16236C3.41937 6.47761 3.97646 5.92053 4.6612 5.92053H7.88704C8.57178 5.92053 9.12887 6.47761 9.12887 7.16236V8.14342H4.09439V8.14338ZM9.87109 7.16232C9.87109 6.47758 10.4282 5.92049 11.1129 5.92049H14.3388C15.0235 5.92049 15.5806 6.47758 15.5806 7.16232V8.1993C15.3575 8.16209 15.1317 8.14337 14.9056 8.14334H9.87109V7.16232ZM4.09439 8.88557H14.9056C16.754 8.88557 18.2578 10.3894 18.2578 12.2378V13.3387H14.5359C14.3309 13.3387 14.1648 13.5049 14.1648 13.7098C14.1648 13.9147 14.3309 14.0809 14.5359 14.0809H18.2578V15.5562H0.742188V14.0809H10.8249C11.0299 14.0809 11.196 13.9147 11.196 13.7098C11.196 13.5049 11.0299 13.3387 10.8249 13.3387H0.742188V12.2378C0.742188 10.3894 2.24597 8.88557 4.09439 8.88557ZM2.27276 16.766C2.27276 17.1879 1.92946 17.5313 1.50749 17.5313C1.08552 17.5313 0.742188 17.1879 0.742188 16.766V16.2983H2.27276V16.766ZM17.4925 17.5313C17.0705 17.5313 16.7272 17.1879 16.7272 16.766V16.2983H18.2578V16.766C18.2578 17.1879 17.9145 17.5313 17.4925 17.5313Z" fill="black"/>
<path id="Vector_2" d="M12.6801 14.0811C12.8852 14.0811 13.0514 13.9148 13.0514 13.7098C13.0514 13.5047 12.8852 13.3385 12.6801 13.3385C12.4751 13.3385 12.3088 13.5047 12.3088 13.7098C12.3088 13.9148 12.4751 14.0811 12.6801 14.0811Z" fill="black"/>
</g>
</svg>
