<svg width="18" height="18" viewBox="0 0 18 18" fill="currentColor" xmlns="http://www.w3.org/2000/svg">
<g id="Frame" clip-path="url(#clip0_10_30)">
<g id="Group">
<path id="Vector" d="M17.0864 4.66523C17.0091 4.66523 16.9349 4.69595 16.8802 4.75064C16.8255 4.80532 16.7948 4.87948 16.7948 4.95682C16.7948 5.03415 16.8255 5.10832 16.8802 5.163C16.9349 5.21768 17.0091 5.2484 17.0864 5.2484C17.2686 5.2484 17.4169 5.39666 17.4169 5.57887V16.1534C17.4169 16.3356 17.2686 16.4838 17.0864 16.4838H2.15768C1.2895 16.4838 0.583172 15.7775 0.583172 14.9093C0.583172 14.0412 1.28946 13.3348 2.15768 13.3348C2.23501 13.3348 2.30918 13.304 2.36386 13.2494C2.41855 13.1947 2.44927 13.1205 2.44927 13.0432V5.24837H4.02377C4.10111 5.24837 4.17527 5.21765 4.22996 5.16297C4.28464 5.10828 4.31536 5.03412 4.31536 4.95678C4.31536 4.87945 4.28464 4.80528 4.22996 4.7506C4.17527 4.69592 4.10111 4.6652 4.02377 4.6652H2.44923V1.22463C2.44923 1.1473 2.41851 1.07313 2.36383 1.01845C2.30914 0.963765 2.23498 0.933044 2.15764 0.933044C0.967922 0.933044 0 1.90097 0 3.09072V14.9093C0 16.0991 0.967922 17.067 2.15768 17.067H17.0864C17.5901 17.067 18 16.6571 18 16.1534V5.57884C18 5.07505 17.5901 4.66523 17.0864 4.66523ZM0.583137 3.09072C0.583137 2.32217 1.13674 1.68043 1.86606 1.54329V12.7713C1.36294 12.8396 0.914309 13.0819 0.583137 13.4355V3.09072Z" fill="black"/>
<path id="Vector_2" d="M13.3544 4.66524H8.378C8.30067 4.66524 8.2265 4.69596 8.17182 4.75064C8.11714 4.80532 8.08642 4.87949 8.08642 4.95682C8.08642 5.03415 8.11714 5.10832 8.17182 5.163C8.2265 5.21769 8.30067 5.24841 8.378 5.24841H13.3544C13.4317 5.24841 13.5059 5.21769 13.5606 5.163C13.6152 5.10832 13.646 5.03415 13.646 4.95682C13.646 4.87949 13.6152 4.80532 13.5606 4.75064C13.5059 4.69596 13.4317 4.66524 13.3544 4.66524ZM13.5859 13.4882L5.49951 2.91365C5.46249 2.8652 5.41121 2.82959 5.3529 2.81181C5.29458 2.79403 5.23215 2.79498 5.1744 2.81452C5.11665 2.83407 5.06648 2.87123 5.03095 2.92077C4.99541 2.97032 4.97631 3.02976 4.97632 3.09073V13.6652C4.97632 13.7426 5.00704 13.8167 5.06172 13.8714C5.1164 13.9261 5.19057 13.9568 5.2679 13.9568H13.3543C13.4087 13.9568 13.4619 13.9416 13.5081 13.9129C13.5543 13.8842 13.5915 13.8431 13.6156 13.7944C13.6397 13.7457 13.6497 13.6912 13.6444 13.637C13.6392 13.5829 13.6189 13.5314 13.5859 13.4882ZM5.55946 13.3737V3.95199L12.7642 13.3737H5.55946Z" fill="black"/>
<path id="Vector_3" d="M10.439 11.933L7.05453 7.50716C7.01748 7.45877 6.9662 7.42321 6.9079 7.40547C6.8496 7.38772 6.7872 7.38869 6.72948 7.40823C6.67175 7.42777 6.6216 7.46491 6.58607 7.51442C6.55054 7.56393 6.53141 7.62333 6.53137 7.68428V12.1101C6.53137 12.1875 6.56209 12.2616 6.61678 12.3163C6.67146 12.371 6.74562 12.4017 6.82296 12.4017H10.2075C10.2618 12.4017 10.3151 12.3865 10.3613 12.3578C10.4075 12.3291 10.4447 12.288 10.4688 12.2393C10.4929 12.1905 10.5028 12.136 10.4976 12.0819C10.4923 12.0278 10.472 11.9762 10.439 11.933ZM7.11451 11.8186V8.54557L9.61739 11.8186H7.11451ZM16.1131 3.2934L15.491 1.73834C15.4694 1.68422 15.4321 1.63782 15.3838 1.60514C15.3356 1.57246 15.2786 1.55499 15.2203 1.55499C15.1621 1.55499 15.1051 1.57246 15.0569 1.60514C15.0086 1.63782 14.9713 1.68422 14.9496 1.73834L14.3276 3.2934C14.3138 3.32785 14.3067 3.36461 14.3067 3.40172V14.5983C14.3067 14.9306 14.5771 15.2009 14.9093 15.2009H15.5313C15.8636 15.2009 16.1339 14.9305 16.1339 14.5983V3.40172C16.134 3.36461 16.1269 3.32784 16.1131 3.2934ZM15.2203 2.63173L15.5361 3.42116H14.9045L15.2203 2.63173ZM15.5508 14.5983C15.5508 14.6034 15.5488 14.6084 15.5451 14.612C15.5415 14.6157 15.5365 14.6177 15.5314 14.6177H14.9094C14.9042 14.6177 14.8993 14.6157 14.8956 14.612C14.892 14.6084 14.8899 14.6034 14.8899 14.5983V13.9568H15.5508V14.5983ZM15.5508 13.3736H14.8899V4.00433H15.5508V13.3736Z" fill="black"/>
</g>
</g>
<defs>
<clipPath id="clip0_10_30">
<rect width="18" height="18" fill="white"/>
</clipPath>
</defs>
</svg>
