<svg xmlns="http://www.w3.org/2000/svg" xmlns:xlink="http://www.w3.org/1999/xlink" viewBox="0,0,256,256" width="24px" height="24px"><g fill="#BC4A4F" fill-rule="nonzero" stroke="none" stroke-width="1" stroke-linecap="butt" stroke-linejoin="miter" stroke-miterlimit="10" stroke-dasharray="" stroke-dashoffset="0" font-family="none" font-weight="none" font-size="none" text-anchor="none" style="mix-blend-mode: normal"><g transform="scale(5.12,5.12)"><path d="M34.00195,5.99414c-0.12388,0.0015 -0.2464,0.02601 -0.36133,0.07227l-26,10c-0.3861,0.14872 -0.64076,0.51984 -0.64062,0.93359v21c-0.0051,0.36064 0.18438,0.69608 0.49587,0.87789c0.3115,0.18181 0.69676,0.18181 1.00825,0c0.3115,-0.18181 0.50097,-0.51725 0.49587,-0.87789v-20.3125l25.35938,-9.75391c0.45831,-0.16731 0.72901,-0.6409 0.64058,-1.12071c-0.08842,-0.47981 -0.51016,-0.8258 -0.998,-0.81874zM39.00195,9.99414c-0.12388,0.0015 -0.2464,0.026 -0.36133,0.07227l-26,10c-0.3861,0.14872 -0.64076,0.51984 -0.64062,0.93359v21c-0.0051,0.36064 0.18438,0.69608 0.49587,0.87789c0.3115,0.18181 0.69676,0.18181 1.00825,0c0.3115,-0.18181 0.50097,-0.51725 0.49587,-0.87789v-20.3125l25.35938,-9.75391c0.45831,-0.16731 0.72901,-0.6409 0.64058,-1.12071c-0.08842,-0.47981 -0.51016,-0.8258 -0.998,-0.81874zM41.88672,14.46289c-0.08194,0.00954 -0.16422,0.02905 -0.24609,0.06055l-23.35937,8.98437c-0.772,0.297 -1.28125,1.03723 -1.28125,1.86523v19.17188c0,0.702 0.70437,1.18364 1.35938,0.93164l23.35938,-8.98437c0.772,-0.297 1.28125,-1.03723 1.28125,-1.86523v-19.17187c0,-0.61425 -0.53973,-1.05896 -1.11328,-0.99219z"></path></g></g></svg>