<svg xmlns="http://www.w3.org/2000/svg" width="24" height="24" viewBox="0 0 24 24" fill="none">
<path d="M19.5909 6C20.0968 6 20.5836 6.18667 20.9368 6.52444C21.2995 6.85333 21.5 7.30667 21.5 7.77778V16.6667C21.5 17.1378 21.2995 17.5911 20.9368 17.92C20.5836 18.2578 20.0968 18.4444 19.5909 18.4444H6.22727C5.72095 18.4444 5.23537 18.2571 4.87734 17.9237C4.51932 17.5903 4.31818 17.1382 4.31818 16.6667V7.77778C4.31818 6.79111 5.16773 6 6.22727 6H19.5909ZM2.40909 20.2222H16.7273V22H2.40909C1.90318 22 1.41636 21.8133 1.06318 21.4756C0.700455 21.1467 0.5 20.6933 0.5 20.2222V10.4444H2.40909V20.2222Z" fill="#C20707"/>
<path d="M19.091 7.7778V16.6667H5.72737M19.5909 6C20.0968 6 20.5836 6.18667 20.9368 6.52444C21.2995 6.85333 21.5 7.30667 21.5 7.77778V16.6667C21.5 17.1378 21.2995 17.5911 20.9368 17.92C20.5836 18.2578 20.0968 18.4444 19.5909 18.4444H6.22727C5.72095 18.4444 5.23537 18.2571 4.87734 17.9237C4.51932 17.5903 4.31818 17.1382 4.31818 16.6667V7.77778C4.31818 6.79111 5.16773 6 6.22727 6H19.5909ZM2.40909 20.2222H16.7273V22H2.40909C1.90318 22 1.41636 21.8133 1.06318 21.4756C0.700455 21.1467 0.5 20.6933 0.5 20.2222V10.4444H2.40909V20.2222Z" stroke="#C20707" stroke-width="0.5"/>
</svg>