<svg xmlns="http://www.w3.org/2000/svg" xmlns:xlink="http://www.w3.org/1999/xlink" viewBox="0,0,256,256" width="24px" height="24px"><g fill="#BC4A4F" fill-rule="nonzero" stroke="none" stroke-width="1" stroke-linecap="butt" stroke-linejoin="miter" stroke-miterlimit="10" stroke-dasharray="" stroke-dashoffset="0" font-family="none" font-weight="none" font-size="none" text-anchor="none" style="mix-blend-mode: normal"><g transform="scale(5.12,5.12)"><path d="M34.21875,2.125l-0.5625,0.8125l-8.90625,12.90625l-7.71875,2.28125c-1.02344,0.30859 -1.89062,0.97656 -2.46875,1.875l-6.40625,9.90625l4.0625,13.78125l7.40625,-1.625c0.1875,-0.03906 0.375,-0.10547 0.5625,-0.15625c1.8125,-0.60937 3.39844,-1.70703 4.59375,-3.21875l0.9375,-1.34375l4.25,2.96875l0.8125,0.5625l0.59375,-0.84375l18.0625,-26.1875l0.59375,-0.8125l-0.84375,-0.5625l-14.125,-9.78125zM34.75,4.90625l12.5,8.65625l-7.03125,10.1875c0.85547,-2.89453 -0.51172,-6.39453 -3.53125,-8.46875c-1.73047,-1.1875 -3.74219,-1.74219 -5.6875,-1.5625c-1.14844,0.10547 -2.18359,0.46094 -3.0625,1.03125zM38.90625,10.875c-0.53516,-0.00391 -1.05078,0.24219 -1.375,0.71875c-0.51953,0.75781 -0.32422,1.82031 0.4375,2.34375c0.76172,0.52344 1.79297,0.32031 2.3125,-0.4375c0.51953,-0.75781 0.32422,-1.78906 -0.4375,-2.3125c-0.28516,-0.19531 -0.61719,-0.30859 -0.9375,-0.3125zM25.375,18.46875c-0.29297,1.39063 -0.10547,2.91797 0.53125,4.34375l0.78125,-0.6875c0.91016,-0.74219 2.07422,-1.125 3.25,-1.125c1.32422,0 2.57422,0.48828 3.53125,1.40625c1.5625,1.49609 1.98047,3.75 1.1875,5.65625c1.31641,-0.11328 2.5,-0.57422 3.46875,-1.3125l-7.84375,11.34375l-3.40625,-2.34375l5.5,-7.71875c0.99219,-1.26172 0.875,-3.07812 -0.28125,-4.1875c-1.13672,-1.08984 -2.90625,-1.15234 -4.125,-0.15625l-5.65625,4.71875l-2.34375,-1.40625zM6.09375,30.03125l-6.09375,1.875l5.03125,17.03125l6.125,-1.875z"></path></g></g></svg>