<svg width="14" height="13" viewBox="0 0 14 13" fill="currentColor" xmlns="http://www.w3.org/2000/svg">
<g id="Group">
<path id="Layer 2" d="M12.0271 0.859375H10.4871V0.640625C10.4871 0.524593 10.441 0.413313 10.3589 0.331266C10.2769 0.249219 10.1656 0.203125 10.0496 0.203125C9.93355 0.203125 9.82227 0.249219 9.74022 0.331266C9.65818 0.413313 9.61208 0.524593 9.61208 0.640625V0.859375H5.00083V0.640625C5.00083 0.524593 4.95474 0.413313 4.87269 0.331266C4.79064 0.249219 4.67936 0.203125 4.56333 0.203125C4.4473 0.203125 4.33602 0.249219 4.25397 0.331266C4.17193 0.413313 4.12583 0.524593 4.12583 0.640625V0.859375H2.58583C2.09769 0.86053 1.62987 1.05496 1.28471 1.40012C0.939538 1.74529 0.745113 2.21311 0.743958 2.70125V10.375C0.745113 10.8631 0.939538 11.331 1.28471 11.6761C1.62987 12.0213 2.09769 12.2157 2.58583 12.2169H12.0271C12.5152 12.2157 12.983 12.0213 13.3282 11.6761C13.6734 11.331 13.8678 10.8631 13.869 10.375V2.70125C13.8678 2.21311 13.6734 1.74529 13.3282 1.40012C12.983 1.05496 12.5152 0.86053 12.0271 0.859375ZM2.58583 1.73437H4.12583V1.95312C4.12583 2.06916 4.17193 2.18044 4.25397 2.26248C4.33602 2.34453 4.4473 2.39062 4.56333 2.39062C4.67936 2.39062 4.79064 2.34453 4.87269 2.26248C4.95474 2.18044 5.00083 2.06916 5.00083 1.95312V1.73437H9.61208V1.95312C9.61208 2.06916 9.65818 2.18044 9.74022 2.26248C9.82227 2.34453 9.93355 2.39062 10.0496 2.39062C10.1656 2.39062 10.2769 2.34453 10.3589 2.26248C10.441 2.18044 10.4871 2.06916 10.4871 1.95312V1.73437H12.0271C12.2835 1.73437 12.5294 1.83624 12.7108 2.01757C12.8921 2.19889 12.994 2.44482 12.994 2.70125V3.73812H1.61896V2.70125C1.61896 2.44482 1.72082 2.19889 1.90215 2.01757C2.08347 1.83624 2.3294 1.73437 2.58583 1.73437ZM12.0271 11.3594H2.58583C2.45737 11.3594 2.3302 11.3338 2.21174 11.2841C2.09328 11.2345 1.9859 11.1617 1.89589 11.07C1.80587 10.9784 1.73502 10.8697 1.68747 10.7504C1.63992 10.631 1.61663 10.5034 1.61896 10.375V4.61312H12.994V10.375C12.9963 10.5034 12.973 10.631 12.9254 10.7504C12.8779 10.8697 12.807 10.9784 12.717 11.07C12.627 11.1617 12.5196 11.2345 12.4012 11.2841C12.2827 11.3338 12.1555 11.3594 12.0271 11.3594Z" fill="black"/>
</g>
</svg>
