<svg width="21" height="22" viewBox="0 0 21 22" fill="none" xmlns="http://www.w3.org/2000/svg">
<path d="M15.2754 10.3024C14.5371 10.3024 13.9365 10.9029 13.9365 11.6412C13.9365 12.3795 14.5371 12.9801 15.2754 12.9801C16.0137 12.9801 16.6143 12.3795 16.6143 11.6412C16.6143 10.9029 16.0137 10.3024 15.2754 10.3024ZM15.2754 12.2215C14.9555 12.2215 14.6951 11.9612 14.6951 11.6412C14.6951 11.3213 14.9555 11.061 15.2754 11.061C15.5953 11.061 15.8557 11.3213 15.8557 11.6412C15.8557 11.9612 15.5953 12.2215 15.2754 12.2215Z" fill="#7C8091"/>
<path d="M15.2754 15.0072C14.5371 15.0072 13.9365 15.6078 13.9365 16.3461C13.9365 17.0844 14.5371 17.6849 15.2754 17.6849C16.0137 17.6849 16.6143 17.0844 16.6143 16.3461C16.6143 15.6078 16.0137 15.0072 15.2754 15.0072ZM15.2754 16.9263C14.9555 16.9263 14.6951 16.666 14.6951 16.3461C14.6951 16.0262 14.9555 15.7658 15.2754 15.7658C15.5953 15.7658 15.8557 16.0262 15.8557 16.3461C15.8557 16.666 15.5953 16.9263 15.2754 16.9263Z" fill="#7C8091"/>
<path d="M10.5708 15.0072C9.83252 15.0072 9.23193 15.6078 9.23193 16.3461C9.23193 17.0844 9.83252 17.6849 10.5708 17.6849C11.3091 17.6849 11.9097 17.0844 11.9097 16.3461C11.9097 15.6078 11.3091 15.0072 10.5708 15.0072ZM10.5708 16.9263C10.2509 16.9263 9.99054 16.666 9.99054 16.3461C9.99054 16.0262 10.2509 15.7658 10.5708 15.7658C10.8907 15.7658 11.1511 16.0262 11.1511 16.3461C11.1511 16.666 10.8907 16.9263 10.5708 16.9263Z" fill="#7C8091"/>
<path d="M10.5708 10.3024C9.83252 10.3024 9.23193 10.9029 9.23193 11.6412C9.23193 12.3795 9.83252 12.9801 10.5708 12.9801C11.3091 12.9801 11.9097 12.3795 11.9097 11.6412C11.9097 10.9029 11.3091 10.3024 10.5708 10.3024ZM10.5708 12.2215C10.2509 12.2215 9.99054 11.9612 9.99054 11.6412C9.99054 11.3213 10.2509 11.061 10.5708 11.061C10.8907 11.061 11.1511 11.3213 11.1511 11.6412C11.1511 11.9612 10.8907 12.2215 10.5708 12.2215Z" fill="#7C8091"/>
<path d="M5.86621 15.0072C5.12793 15.0072 4.52734 15.6078 4.52734 16.3461C4.52734 17.0844 5.12793 17.6849 5.86621 17.6849C6.6045 17.6849 7.20508 17.0844 7.20508 16.3461C7.20508 15.6078 6.6045 15.0072 5.86621 15.0072ZM5.86621 16.9263C5.5463 16.9263 5.28595 16.666 5.28595 16.3461C5.28595 16.0262 5.5463 15.7658 5.86621 15.7658C6.18613 15.7658 6.44647 16.0262 6.44647 16.3461C6.44647 16.666 6.18613 16.9263 5.86621 16.9263Z" fill="#7C8091"/>
<path d="M5.86621 10.3024C5.12793 10.3024 4.52734 10.9029 4.52734 11.6412C4.52734 12.3795 5.12793 12.9801 5.86621 12.9801C6.6045 12.9801 7.20508 12.3795 7.20508 11.6412C7.20508 10.9029 6.6045 10.3024 5.86621 10.3024ZM5.86621 12.2215C5.5463 12.2215 5.28595 11.9612 5.28595 11.6412C5.28595 11.3213 5.5463 11.061 5.86621 11.061C6.18613 11.061 6.44647 11.3213 6.44647 11.6412C6.44647 11.9612 6.18613 12.2215 5.86621 12.2215Z" fill="#7C8091"/>
<path d="M17.2409 2.71695H17.2311V2.14054C17.2311 1.51158 16.7195 1 16.0906 1H15.5201C14.8912 1 14.3796 1.51158 14.3796 2.14054V2.71695H7.14598V2.14054C7.14598 1.51158 6.63439 1 6.00543 1H5.43498C4.80602 1 4.29444 1.51158 4.29444 2.14054V2.71695H4.28463C2.47377 2.71695 1 4.19072 1 6.00228V17.7147C1 19.5262 2.47377 21 4.28533 21H17.2409C19.0525 21 20.5263 19.5262 20.5263 17.7147V6.00228C20.5263 4.19072 19.0525 2.71695 17.2409 2.71695ZM15.1389 2.14054C15.1389 1.92996 15.3102 1.75896 15.5205 1.75896H16.0909C16.3015 1.75896 16.4725 1.93031 16.4725 2.14054V4.05231C16.4725 4.2629 16.3012 4.4339 16.0909 4.4339H15.5205C15.3099 4.4339 15.1389 4.26255 15.1389 4.05231V2.14054ZM5.05375 2.14054C5.05375 1.92996 5.2251 1.75896 5.43533 1.75896H6.00578C6.21637 1.75896 6.38736 1.93031 6.38736 2.14054V4.05231C6.38736 4.2629 6.21602 4.4339 6.00578 4.4339H5.43533C5.22474 4.4339 5.05375 4.26255 5.05375 4.05231V2.14054ZM4.28533 3.47556H4.29514V4.05196C4.29514 4.68093 4.80672 5.19251 5.43568 5.19251H6.00613C6.6351 5.19251 7.14668 4.68093 7.14668 4.05196V3.47556H14.3803V4.05196C14.3803 4.68093 14.8919 5.19251 15.5208 5.19251H16.0913C16.7202 5.19251 17.2318 4.68093 17.2318 4.05196V3.47556H17.2416C18.6348 3.47556 19.768 4.6091 19.768 6.00193V7.21605H1.75896V6.00193C1.75896 4.60875 2.8925 3.47556 4.28533 3.47556ZM17.2409 20.241H4.28533C2.89215 20.241 1.75896 19.1075 1.75896 17.7147V7.97537H19.7676V17.715C19.7676 19.1082 18.6345 20.2414 17.2413 20.2414L17.2409 20.241Z" fill="#7C8091" stroke="#7C8091" stroke-width="0.6"/>
</svg>
