<svg width="20" height="20" viewBox="0 0 20 20" fill="none" xmlns="http://www.w3.org/2000/svg">
<g id="Group 1686551592">
<rect id="Rectangle 34624842" x="5" y="5" width="11.25" height="10" fill="white"/>
<path id="Vector" fill-rule="evenodd" clip-rule="evenodd" d="M10.6291 0.215856C10.2587 -0.0719519 9.74031 -0.0719519 9.36999 0.215856L7.83719 1.40837C7.63281 1.5668 7.37687 1.64274 7.11906 1.62024L5.19062 1.4543C4.72562 1.41399 4.29249 1.69336 4.13594 2.13304L3.47968 3.98836C3.39437 4.2293 3.22187 4.42991 2.99594 4.54991L1.27094 5.47052C0.863136 5.68896 0.651264 6.15304 0.754392 6.60397L1.19878 8.53522C1.25503 8.78271 1.21846 9.04241 1.09471 9.26367L0.130036 10.9905C-0.094964 11.3937 -0.0227768 11.8971 0.306287 12.2205L1.71067 13.6005C1.89161 13.7787 2.00035 14.0187 2.01535 14.2727L2.12785 16.2471C2.15503 16.7102 2.48972 17.0984 2.94533 17.1921L4.84846 17.583C5.10065 17.6346 5.32378 17.779 5.47471 17.988L6.61658 19.5734C6.89033 19.954 7.3872 20.1002 7.82313 19.9287L9.625 19.2218C9.86593 19.1271 10.1341 19.1271 10.375 19.2218L12.1769 19.9287C12.6128 20.1002 13.1097 19.954 13.3825 19.5734L14.5253 17.988C14.6753 17.779 14.8993 17.6346 15.1506 17.583L17.0547 17.1921C17.5093 17.0984 17.845 16.7102 17.8722 16.2471L17.9846 14.2727C17.9996 14.0187 18.1075 13.7787 18.2893 13.6005L19.6937 12.2205C20.0228 11.8971 20.095 11.3937 19.87 10.9905L18.9053 9.26367C18.7815 9.04242 18.745 8.78273 18.8012 8.53522L19.2447 6.60397C19.3487 6.15304 19.1369 5.68897 18.7291 5.47052L17.0041 4.54991C16.7781 4.42991 16.6056 4.2293 16.5203 3.98836L15.8631 2.13304C15.7075 1.69336 15.2744 1.41398 14.8094 1.4543L12.88 1.62024C12.6231 1.64274 12.3672 1.5668 12.1628 1.40837L10.6291 0.215856ZM14.7626 7.64648C15.1198 7.22555 15.0682 6.59461 14.6473 6.23742C14.2254 5.88023 13.5944 5.9318 13.2373 6.35273L8.86014 11.5118L6.71796 9.30302C6.33357 8.90647 5.70077 8.89709 5.30421 9.28146C4.90766 9.66584 4.89734 10.2996 5.28265 10.6961L8.95848 14.4874L14.7626 7.64648Z" fill="#1165E5"/>
</g>
</svg>
