<svg width="24" height="24" viewBox="0 0 24 24" fill="none" xmlns="http://www.w3.org/2000/svg">
<path d="M10.8749 12C10.8749 12.2984 10.9934 12.5845 11.2044 12.7955C11.4154 13.0065 11.7015 13.125 11.9999 13.125C12.2983 13.125 12.5844 13.0065 12.7954 12.7955C13.0064 12.5845 13.1249 12.2984 13.1249 12C13.1249 11.7016 13.0064 11.4155 12.7954 11.2045C12.5844 10.9935 12.2983 10.875 11.9999 10.875C11.7015 10.875 11.4154 10.9935 11.2044 11.2045C10.9934 11.4155 10.8749 11.7016 10.8749 12ZM15.5624 12C15.5624 12.2984 15.6809 12.5845 15.8919 12.7955C16.1029 13.0065 16.389 13.125 16.6874 13.125C16.9858 13.125 17.2719 13.0065 17.4829 12.7955C17.6939 12.5845 17.8124 12.2984 17.8124 12C17.8124 11.7016 17.6939 11.4155 17.4829 11.2045C17.2719 10.9935 16.9858 10.875 16.6874 10.875C16.389 10.875 16.1029 10.9935 15.8919 11.2045C15.6809 11.4155 15.5624 11.7016 15.5624 12ZM6.18739 12C6.18739 12.2984 6.30592 12.5845 6.51689 12.7955C6.72787 13.0065 7.01402 13.125 7.31239 13.125C7.61076 13.125 7.89691 13.0065 8.10788 12.7955C8.31886 12.5845 8.43739 12.2984 8.43739 12C8.43739 11.7016 8.31886 11.4155 8.10788 11.2045C7.89691 10.9935 7.61076 10.875 7.31239 10.875C7.01402 10.875 6.72787 10.9935 6.51689 11.2045C6.30592 11.4155 6.18739 11.7016 6.18739 12ZM21.6843 7.93125C21.1546 6.67266 20.3952 5.54297 19.4272 4.57266C18.466 3.60798 17.325 2.84117 16.0686 2.31563C14.7796 1.77422 13.4108 1.5 11.9999 1.5H11.953C10.5327 1.50703 9.15692 1.78828 7.86317 2.34141C6.61762 2.87234 5.48724 3.64052 4.53505 4.60312C3.57645 5.57109 2.82411 6.69609 2.3038 7.95C1.76473 9.24844 1.49286 10.6289 1.49989 12.0492C1.50784 13.6769 1.89292 15.2806 2.62489 16.7344V20.2969C2.62489 20.5828 2.73848 20.857 2.94066 21.0592C3.14285 21.2614 3.41708 21.375 3.70301 21.375H7.26786C8.72167 22.107 10.3253 22.492 11.953 22.5H12.0022C13.4061 22.5 14.7679 22.2281 16.0499 21.6961C17.2999 21.1768 18.4367 20.419 19.3968 19.4648C20.3647 18.5063 21.1265 17.3859 21.6585 16.1367C22.2116 14.843 22.4929 13.4672 22.4999 12.0469C22.5069 10.6195 22.2304 9.23438 21.6843 7.93125ZM18.1429 18.1969C16.4999 19.8234 14.3202 20.7188 11.9999 20.7188H11.96C10.5468 20.7117 9.14286 20.3602 7.90301 19.6992L7.70614 19.5938H4.40614V16.2938L4.30067 16.0969C3.63973 14.857 3.28817 13.4531 3.28114 12.0398C3.27176 9.70312 4.16473 7.50937 5.80301 5.85703C7.43895 4.20469 9.62567 3.29062 11.9624 3.28125H12.0022C13.1741 3.28125 14.3108 3.50859 15.3819 3.95859C16.4272 4.39687 17.3647 5.02734 18.171 5.83359C18.9749 6.6375 19.6077 7.57734 20.046 8.62266C20.5007 9.70547 20.728 10.8539 20.7233 12.0398C20.7093 14.3742 19.7929 16.5609 18.1429 18.1969Z" fill="#263238" stroke="white" stroke-width="0.3"/>
</svg>
