<svg width="19" height="15" viewBox="0 0 19 15" fill="currentColor" xmlns="http://www.w3.org/2000/svg">
<g id="Group">
<path id="Vector" d="M17.8867 11.4922V9.72656C17.8867 7.8938 17.2958 6.15178 16.1777 4.68885C15.1853 3.39029 13.8131 2.39438 12.2811 1.8521C12.2385 0.96901 11.5068 0.263672 10.6133 0.263672H8.38672C7.49324 0.263672 6.76151 0.96901 6.71887 1.8521C5.18685 2.39438 3.8147 3.39029 2.82228 4.68885C1.70425 6.15178 1.11328 7.8938 1.11328 9.72656V11.4922C0.465389 11.722 0 12.3407 0 13.0664C0 13.9872 0.749127 14.7363 1.66992 14.7363H17.3301C18.2509 14.7363 19 13.9872 19 13.0664C19 12.3407 18.5346 11.722 17.8867 11.4922ZM2.22656 9.72656C2.22656 7.71928 3.08401 5.84017 4.49023 4.49952V6.38672C4.49023 6.69413 4.73946 6.94336 5.04688 6.94336C5.35429 6.94336 5.60352 6.69413 5.60352 6.38672V3.62641C5.95705 3.40058 6.32955 3.20591 6.7168 3.04457V7.5C6.7168 7.80741 6.96602 8.05664 7.27344 8.05664C7.58085 8.05664 7.83008 7.80741 7.83008 7.5V1.93359C7.83008 1.62666 8.07979 1.37695 8.38672 1.37695H10.6133C10.9202 1.37695 11.1699 1.62666 11.1699 1.93359V7.5C11.1699 7.80741 11.4191 8.05664 11.7266 8.05664C12.034 8.05664 12.2832 7.80741 12.2832 7.5V3.04457C12.6704 3.20594 13.0429 3.40061 13.3965 3.62641V6.38672C13.3965 6.69413 13.6457 6.94336 13.9531 6.94336C14.2605 6.94336 14.5098 6.69413 14.5098 6.38672V4.49952C15.916 5.84017 16.7734 7.71928 16.7734 9.72656V11.3965H2.22656V9.72656ZM17.3301 13.623H1.66992C1.36299 13.623 1.11328 13.3733 1.11328 13.0664C1.11328 12.7595 1.36299 12.5098 1.66992 12.5098H17.3301C17.637 12.5098 17.8867 12.7595 17.8867 13.0664C17.8867 13.3733 17.637 13.623 17.3301 13.623Z" fill="black"/>
</g>
</svg>
