<svg xmlns="http://www.w3.org/2000/svg" version="1.1" xmlns:xlink="http://www.w3.org/1999/xlink" width="512" height="512" x="0" y="0" viewBox="0 0 512 512" style="enable-background:new 0 0 512 512" xml:space="preserve" class=""><g><path d="M355.549 378.416h100.654v32H355.55zm156.451 16c0 58.51-47.613 106.113-106.138 106.113-58.51 0-106.11-47.602-106.11-106.113 0-25.221 8.845-48.41 23.587-66.641-31.835-25.901-71.189-40.014-112.408-40.014C112.268 287.76 32 368.032 32 466.699v16H0v-16c0-56.123 22.001-109.034 61.95-148.985 21.736-21.737 47.314-38.146 75.152-48.603-41.12-23.964-68.818-68.539-68.818-119.467 0-76.189 61.982-138.173 138.168-138.173s138.169 61.984 138.169 138.173c0 49.544-26.215 93.074-65.497 117.466 24.712 8.486 47.775 21.603 68.084 38.9 16.813-11.2 36.983-17.736 58.654-17.736 58.525 0 106.138 47.615 106.138 106.141zm-305.62-138.6c.942-.02 1.886-.027 2.83-.034 57.272-1.468 103.41-48.516 103.41-106.138 0-58.544-47.627-106.173-106.168-106.173S100.284 91.1 100.284 149.644c0 58.52 47.588 106.134 106.097 106.173zM480 394.417c0-40.882-33.258-74.142-74.138-74.142-40.865 0-74.11 33.26-74.11 74.142 0 40.866 33.246 74.113 74.11 74.113 40.88 0 74.138-33.247 74.138-74.113z" fill="#000000" opacity="1" data-original="#000000" class=""></path></g></svg>