<?xml version="1.0" standalone="no"?>
<!DOCTYPE svg PUBLIC "-//W3C//DTD SVG 20010904//EN"
 "http://www.w3.org/TR/2001/REC-SVG-20010904/DTD/svg10.dtd">
<svg version="1.0" xmlns="http://www.w3.org/2000/svg"
 width="1024.000000pt" height="1024.000000pt" viewBox="0 0 1024.000000 1024.000000"
 preserveAspectRatio="xMidYMid meet">

<g transform="translate(0.000000,1024.000000) scale(0.100000,-0.100000)"
fill="#000000" stroke="none">
<path d="M6615 9029 c-77 -3 -900 -7 -1830 -8 -1103 -1 -1713 -5 -1755 -11
-152 -24 -288 -101 -446 -253 -151 -143 -221 -270 -253 -451 -8 -41 -11 -911
-11 -2739 l0 -2679 31 -92 c38 -115 81 -192 159 -283 133 -156 346 -274 547
-303 43 -6 835 -10 2127 -10 2293 0 2106 -6 2258 70 43 21 103 56 135 77 71
46 205 181 245 246 16 26 33 47 38 47 9 0 81 161 101 225 17 55 26 4938 9
5019 -6 30 -30 84 -54 123 -58 94 -242 309 -324 379 -37 31 -105 93 -152 138
-47 45 -121 113 -166 152 -129 111 -378 332 -392 349 -14 16 -27 17 -267 4z
m-23 -594 c-3 -295 0 -314 62 -358 l31 -22 478 4 477 4 0 -1519 c0 -836 1
-1991 1 -2569 1 -1029 1 -1051 -19 -1107 -52 -146 -177 -255 -362 -313 -51
-16 -186 -18 -1995 -22 -1154 -3 -2000 -1 -2088 5 l-148 9 -97 48 c-114 57
-186 124 -234 218 -28 56 -32 75 -40 202 -13 190 -2 5213 12 5282 13 70 30
108 79 181 67 98 221 187 364 211 29 5 824 9 1767 10 l1715 1 -3 -265z m423
122 c22 -11 68 -39 101 -62 34 -23 85 -50 113 -60 29 -9 51 -19 49 -21 -11
-10 -204 -34 -277 -34 l-84 0 7 61 c3 34 6 82 6 106 0 41 2 44 23 37 12 -3 40
-16 62 -27z"/>
<path d="M3183 8164 c4 -54 7 -199 7 -321 l0 -221 347 1 346 2 -2 -500 c-1
-275 1 -560 5 -632 l7 -133 406 0 406 0 1 626 c1 344 5 628 9 632 4 4 154 7
333 6 l327 0 0 313 0 313 -1021 0 c-562 0 -1056 3 -1099 7 l-78 6 6 -99z"/>
<path d="M6820 7857 c-109 -31 -180 -116 -195 -233 -9 -70 8 -123 55 -177 49
-55 128 -89 210 -90 132 -3 260 125 260 257 0 92 -56 188 -131 226 -50 26
-141 33 -199 17z"/>
<path d="M5980 7851 c-77 -24 -148 -90 -168 -160 -31 -103 -4 -204 72 -266 77
-63 192 -84 274 -50 50 21 108 79 138 137 65 127 -8 291 -148 333 -54 16 -126
18 -168 6z"/>
<path d="M6020 7033 c-149 -25 -228 -123 -218 -270 11 -153 104 -237 263 -237
90 -1 118 10 177 70 85 84 102 229 38 323 -50 72 -99 101 -200 114 -19 2 -46
2 -60 0z"/>
<path d="M6769 7013 c-62 -32 -113 -93 -129 -155 -49 -181 70 -340 255 -340
105 0 179 52 236 167 28 57 30 69 24 117 -20 149 -125 238 -280 238 -36 0 -67
-8 -106 -27z"/>
<path d="M3245 5834 c-54 -28 -83 -64 -94 -116 -17 -75 1 -131 60 -190 l48
-48 1848 1 c1016 0 1870 4 1896 8 64 11 96 36 130 101 52 102 30 198 -57 239
l-42 21 -1880 0 c-1681 0 -1882 -2 -1909 -16z"/>
<path d="M4815 5040 c-1527 -5 -1550 -5 -1584 -25 -19 -11 -43 -32 -54 -47
-25 -34 -34 -122 -17 -173 16 -49 64 -102 103 -113 20 -6 741 -9 1904 -8
l1872 1 28 21 c69 52 112 152 94 221 -12 45 -75 109 -113 117 -46 9 -712 11
-2233 6z"/>
<path d="M3255 4214 c-72 -37 -108 -93 -108 -170 0 -64 26 -117 77 -158 l38
-31 1876 0 c1804 0 1878 1 1914 18 64 32 126 154 113 223 -7 42 -58 102 -102
120 -27 12 -355 14 -1905 14 -1677 0 -1876 -2 -1903 -16z"/>
<path d="M3353 3421 c-83 -5 -95 -9 -130 -37 -48 -39 -83 -99 -83 -145 0 -53
45 -136 93 -167 l41 -27 1859 3 c1277 1 1873 5 1900 13 46 12 82 48 108 104
45 102 31 172 -46 223 l-44 29 -258 6 c-308 8 -3308 6 -3440 -2z"/>
</g>
</svg>
