<svg width="19" height="19" viewBox="0 0 19 19" fill="currentColor" xmlns="http://www.w3.org/2000/svg">
<g id="Group">
<path id="Vector" d="M18.6289 0H12.7333C12.66 1.87049e-05 12.5882 0.021794 12.5272 0.0625733C12.4662 0.103353 12.4186 0.161305 12.3906 0.229106C12.3625 0.296906 12.3551 0.371511 12.3694 0.44349C12.3837 0.515468 12.4191 0.581589 12.4709 0.633494L13.8596 2.02213L9.1858 6.6959L4.86931 2.37942C4.72436 2.23454 4.48946 2.23454 4.34447 2.37942L0.109661 6.61423C-0.0352515 6.75914 -0.0352515 6.99411 0.109661 7.13906C0.182135 7.2115 0.277098 7.24776 0.372061 7.24776C0.467024 7.24776 0.561987 7.2115 0.634461 7.13906L4.60691 3.16665L9.77658 8.33632C9.84905 8.40876 9.94402 8.44502 10.039 8.44502C10.1339 8.44502 10.2289 8.40876 10.3014 8.33632C10.4463 8.19141 10.4463 7.95643 10.3014 7.81149L9.71064 7.22074L14.3844 2.54696L16.4565 4.61911L12.6902 8.38549C12.5453 8.53041 12.5453 8.76538 12.6902 8.91033C12.7627 8.98277 12.8576 9.01902 12.9526 9.01902C13.0475 9.01902 13.1425 8.98277 13.215 8.91033L16.9813 5.14395L18.3665 6.5291C18.4184 6.58103 18.4845 6.61641 18.5565 6.63074C18.6285 6.64508 18.7031 6.63774 18.7709 6.60965C18.8388 6.58156 18.8967 6.53397 18.9375 6.47293C18.9783 6.41188 19 6.34011 19 6.2667V0.371094C19 0.166176 18.8338 0 18.6289 0ZM18.2578 5.37076L13.6292 0.742187H18.2578V5.37076ZM12.2965 9.30406C12.2275 9.23467 12.1318 9.19533 12.0342 9.19533C11.9366 9.19533 11.8409 9.23467 11.7718 9.30406C11.7024 9.37309 11.6631 9.46883 11.6631 9.56643C11.6631 9.66402 11.7024 9.75976 11.7718 9.82875C11.8409 9.89777 11.9366 9.93752 12.0342 9.93752C12.1318 9.93752 12.2275 9.89781 12.2965 9.82875C12.3656 9.75976 12.4053 9.66402 12.4053 9.56643C12.4053 9.46883 12.3656 9.37309 12.2965 9.30406Z" fill="black"/>
<path id="Vector_2" d="M7.14298 9.84712L5.13158 7.83576L5.73048 7.23685C5.87543 7.09194 5.87543 6.85696 5.73052 6.71205C5.58557 6.56717 5.35067 6.56717 5.20568 6.71205L0.109416 11.8083C-0.0354956 11.9532 -0.0354956 12.1882 0.109416 12.3332C0.143841 12.3677 0.184743 12.395 0.229774 12.4137C0.274804 12.4323 0.323076 12.4419 0.371817 12.4418C0.420558 12.4419 0.46883 12.4323 0.51386 12.4137C0.558891 12.395 0.599793 12.3677 0.634217 12.3332L4.60678 8.3606L6.61818 10.372C6.69065 10.4444 6.78561 10.4807 6.88058 10.4807C6.97554 10.4807 7.0705 10.4444 7.14298 10.372C7.28789 10.227 7.28789 9.99207 7.14298 9.84712ZM9.51724 13.6155L9.49991 13.6154C9.29499 13.6154 9.12881 13.7816 9.12881 13.9865C9.12881 14.1914 9.29499 14.3576 9.49991 14.3576L9.51174 14.3577H9.51456C9.71818 14.3577 9.88406 14.1933 9.88558 13.9893C9.8871 13.7844 9.72219 13.617 9.51724 13.6155Z" fill="black"/>
<path id="Vector_3" d="M18.6289 18.2579H17.978V16.5949C17.978 16.5121 17.9503 16.4316 17.8993 16.3664C17.8483 16.3011 17.777 16.2548 17.6966 16.2348L15.9718 15.8051L15.3535 14.3131L16.2691 12.7899C16.3118 12.7189 16.3295 12.6357 16.3194 12.5535C16.3093 12.4713 16.2721 12.3948 16.2135 12.3363L14.7754 10.8981C14.7168 10.8396 14.6403 10.8023 14.5581 10.7922C14.4759 10.7822 14.3927 10.7999 14.3217 10.8425L12.7985 11.7582L11.3066 11.1399L10.8768 9.41507C10.8568 9.33471 10.8105 9.26335 10.7453 9.21235C10.68 9.16136 10.5996 9.13366 10.5168 9.13367H8.4832C8.40039 9.13366 8.31995 9.16136 8.2547 9.21235C8.18945 9.26335 8.14314 9.33471 8.12313 9.41507L7.6934 11.1399L6.2015 11.7582L4.67823 10.8425C4.60725 10.7998 4.52404 10.7821 4.44184 10.7922C4.35964 10.8023 4.28317 10.8396 4.22461 10.8981L2.78651 12.3363C2.72794 12.3949 2.69066 12.4713 2.68058 12.5536C2.6705 12.6358 2.6882 12.719 2.73088 12.7899L3.64652 14.3131L3.02824 15.8051L1.30343 16.2348C1.22307 16.2548 1.15171 16.3011 1.10071 16.3664C1.04972 16.4316 1.02202 16.5121 1.02203 16.5949V18.2579H0.371094C0.166176 18.2579 0 18.424 0 18.629C0 18.8339 0.166176 19 0.371094 19H18.6289C18.8338 19 19 18.8339 19 18.629C19 18.424 18.8338 18.2579 18.6289 18.2579ZM17.2357 18.2579H13.4432C13.6493 16.9973 13.2418 15.7022 12.3256 14.7859C11.9238 14.3842 11.4528 14.0786 10.9258 13.8776C10.7343 13.8046 10.5199 13.9006 10.4469 14.0921C10.3739 14.2836 10.4699 14.498 10.6614 14.5711C11.0901 14.7345 11.4734 14.9834 11.8008 15.3107C12.5759 16.0859 12.9038 17.194 12.6888 18.2578H6.31086C6.09592 17.194 6.42386 16.0858 7.199 15.3107C7.52957 14.9802 7.91706 14.7298 8.35069 14.5664C8.5425 14.4942 8.6394 14.2801 8.56718 14.0883C8.49493 13.8965 8.28088 13.7997 8.0891 13.8718C7.55599 14.0726 7.07991 14.3802 6.67416 14.7859C5.75793 15.7022 5.35047 16.9972 5.55657 18.2578H1.76418V16.8849L3.38913 16.4801C3.44542 16.466 3.49765 16.439 3.54161 16.4011C3.58557 16.3633 3.62004 16.3156 3.64225 16.262L4.40377 14.4244C4.42599 14.3708 4.43533 14.3127 4.43102 14.2548C4.42671 14.1969 4.40889 14.1409 4.37898 14.0911L3.51634 12.6561L4.54438 11.628L5.97947 12.4907C6.0292 12.5206 6.08526 12.5384 6.14314 12.5427C6.20102 12.5471 6.2591 12.5377 6.31271 12.5155L8.15033 11.754C8.20393 11.7318 8.25158 11.6973 8.28944 11.6533C8.32731 11.6094 8.35433 11.5571 8.36835 11.5008L8.77318 9.87589H10.2268L10.6316 11.5008C10.6456 11.5571 10.6726 11.6094 10.7105 11.6533C10.7483 11.6973 10.796 11.7318 10.8496 11.754L12.6872 12.5155C12.7408 12.5377 12.7989 12.5471 12.8568 12.5428C12.9147 12.5385 12.9707 12.5206 13.0205 12.4907L14.4555 11.628L15.4836 12.6561L14.6209 14.0911C14.591 14.1409 14.5732 14.1969 14.5689 14.2548C14.5646 14.3127 14.5739 14.3708 14.5962 14.4244L15.3577 16.262C15.3799 16.3156 15.4144 16.3633 15.4583 16.4011C15.5023 16.439 15.5545 16.466 15.6108 16.4801L17.2357 16.8849V18.2579Z" fill="black"/>
</g>
</svg>
