<svg width="18" height="18" viewBox="0 0 18 18" fill="none" xmlns="http://www.w3.org/2000/svg">
<g id="Group">
<path id="Vector" d="M16.8032 9.23308C16.7675 9.16056 16.7489 9.08079 16.7489 8.99994C16.7489 8.9191 16.7675 8.83933 16.8032 8.76681L17.4745 7.39344C17.8483 6.62876 17.5522 5.71734 16.8003 5.31842L15.45 4.60194C15.3784 4.56427 15.3165 4.51067 15.269 4.44527C15.2215 4.37987 15.1896 4.30442 15.1759 4.22475L14.9118 2.71905C14.7647 1.88072 13.9893 1.31738 13.1467 1.4366L11.6331 1.6507C11.5531 1.66226 11.4715 1.65528 11.3946 1.6303C11.3177 1.60531 11.2476 1.56299 11.1897 1.50659L10.091 0.443754C9.47927 -0.148063 8.52092 -0.148098 7.9092 0.443754L6.81051 1.5067C6.75257 1.56308 6.68246 1.60539 6.60557 1.63038C6.52869 1.65536 6.44709 1.66235 6.36708 1.6508L4.85351 1.4367C4.01064 1.31742 3.23545 1.88083 3.08839 2.71916L2.8243 4.22479C2.81058 4.30446 2.77873 4.37991 2.73121 4.44531C2.6837 4.51072 2.62179 4.56433 2.55026 4.60201L1.19992 5.31849C0.44807 5.71737 0.151916 6.62886 0.525695 7.39354L1.197 8.76688C1.23273 8.8394 1.25132 8.91917 1.25132 9.00001C1.25132 9.08086 1.23273 9.16063 1.197 9.23315L0.525659 10.6065C0.15188 11.3712 0.448035 12.2826 1.19988 12.6815L2.55023 13.398C2.62176 13.4356 2.68368 13.4893 2.7312 13.5547C2.77872 13.6201 2.81058 13.6955 2.8243 13.7752L3.08839 15.2809C3.22227 16.044 3.87666 16.5793 4.62876 16.5792C4.70283 16.5792 4.77799 16.574 4.85354 16.5633L6.36712 16.3492C6.44713 16.3376 6.52873 16.3446 6.60562 16.3696C6.68251 16.3946 6.75262 16.4369 6.81054 16.4933L7.9092 17.5561C8.21513 17.8521 8.60754 18 9.0001 18C9.39254 17.9999 9.7852 17.852 10.091 17.5561L11.1897 16.4933C11.3082 16.3787 11.4698 16.3263 11.6331 16.3492L13.1467 16.5633C13.9897 16.6825 14.7647 16.1192 14.9118 15.2808L15.1759 13.7752C15.1896 13.6955 15.2215 13.6201 15.269 13.5547C15.3165 13.4893 15.3784 13.4357 15.45 13.398L16.8003 12.6815C17.5522 12.2826 17.8483 11.3711 17.4745 10.6065L16.8032 9.23308ZM16.3137 11.7644L14.9634 12.4809C14.5328 12.7093 14.2376 13.1157 14.1534 13.5958L13.8893 15.1014C13.866 15.2374 13.7905 15.3588 13.6789 15.4399C13.5674 15.5209 13.4286 15.5552 13.2921 15.5353L11.7785 15.3212C11.2958 15.2529 10.8182 15.4082 10.4679 15.7471L9.36916 16.8099C9.27042 16.9061 9.13798 16.96 9.00008 16.96C8.86218 16.96 8.72974 16.9061 8.63099 16.8099L7.53233 15.747C7.23625 15.4606 6.84918 15.3054 6.44509 15.3054C6.37106 15.3054 6.29642 15.3106 6.22168 15.3212L4.7081 15.5353C4.57164 15.5551 4.43283 15.5208 4.32127 15.4398C4.20971 15.3587 4.13423 15.2373 4.11091 15.1014L3.84678 13.5957C3.76255 13.1156 3.46731 12.7092 3.03675 12.4808L1.68641 11.7644C1.56433 11.7002 1.47214 11.5909 1.42952 11.4597C1.3869 11.3286 1.39722 11.186 1.45828 11.0623L2.12962 9.68895C2.34365 9.25105 2.34365 8.74881 2.12962 8.3109L1.45828 6.93753C1.39722 6.81388 1.3869 6.67126 1.42952 6.54011C1.47214 6.40895 1.56433 6.29964 1.68641 6.2355L3.03675 5.51902C3.46727 5.29054 3.76255 4.88421 3.84675 4.40412L4.11084 2.89845C4.13412 2.76253 4.2096 2.64108 4.32117 2.56002C4.43274 2.47896 4.57156 2.4447 4.70803 2.46456L6.22161 2.67866C6.70412 2.74697 7.18193 2.59168 7.53226 2.25281L8.63096 1.18998C8.7297 1.09372 8.86214 1.03984 9.00004 1.03984C9.13794 1.03984 9.27038 1.09372 9.36913 1.18998L10.4678 2.25281C10.8181 2.59172 11.2959 2.74697 11.7784 2.67866L13.292 2.46456C13.4285 2.44472 13.5673 2.47899 13.6789 2.56004C13.7904 2.6411 13.8659 2.76254 13.8892 2.89845L14.1533 4.40415C14.2375 4.88424 14.5328 5.29061 14.9633 5.51902L16.3137 6.2355C16.4358 6.29964 16.5279 6.40895 16.5706 6.54011C16.6132 6.67126 16.6029 6.81388 16.5418 6.93753L15.8705 8.31087C15.6564 8.74874 15.6564 9.25105 15.8705 9.68891L16.5418 11.0623C16.6029 11.1859 16.6132 11.3285 16.5706 11.4597C16.528 11.5909 16.4358 11.7002 16.3137 11.7644Z" fill="black"/>
<path id="Vector_2" d="M12.7929 5.20715C12.5903 5.00444 12.2616 5.00444 12.0589 5.20715L5.20733 12.0587C5.00462 12.2614 5.00462 12.5901 5.20733 12.7928C5.25547 12.8411 5.31268 12.8794 5.37567 12.9055C5.43866 12.9315 5.50618 12.9449 5.57436 12.9449C5.70718 12.9449 5.84007 12.8942 5.94139 12.7928L12.7929 5.94128C12.9957 5.73853 12.9957 5.40989 12.7929 5.20715ZM6.92382 4.32825C5.87434 4.32825 5.02051 5.18208 5.02051 6.23156C5.02051 7.28104 5.87434 8.13487 6.92382 8.13487C7.9733 8.13487 8.82713 7.28104 8.82713 6.23156C8.82713 5.18208 7.9733 4.32825 6.92382 4.32825ZM6.92382 7.09668C6.44679 7.09668 6.0587 6.70859 6.0587 6.23153C6.0587 5.75449 6.44679 5.36641 6.92382 5.36641C7.40085 5.36641 7.78898 5.75449 7.78898 6.23153C7.78894 6.70859 7.40085 7.09668 6.92382 7.09668ZM11.0765 9.86511C10.027 9.86511 9.17314 10.7189 9.17314 11.7684C9.17314 12.8179 10.027 13.6717 11.0765 13.6717C12.1259 13.6717 12.9798 12.8179 12.9798 11.7684C12.9798 10.7189 12.1259 9.86511 11.0765 9.86511ZM11.0765 12.6335C10.5994 12.6335 10.2113 12.2455 10.2113 11.7684C10.2113 11.2914 10.5994 10.9033 11.0765 10.9033C11.5535 10.9033 11.9416 11.2914 11.9416 11.7684C11.9416 12.2455 11.5535 12.6335 11.0765 12.6335Z" fill="black"/>
</g>
</svg>
