<svg xmlns="http://www.w3.org/2000/svg" version="1.1" xmlns:xlink="http://www.w3.org/1999/xlink" width="512" height="512" x="0" y="0" viewBox="0 0 512 512" style="enable-background:new 0 0 512 512" xml:space="preserve" class=""><g><path d="M104 496h304a40.045 40.045 0 0 0 40-40V120a8 8 0 0 0-2.343-5.657l-96-96A8 8 0 0 0 344 16H104a40.045 40.045 0 0 0-40 40v400a40.045 40.045 0 0 0 40 40zM352 43.313 420.687 112H376a24.027 24.027 0 0 1-24-24zM80 56a24.028 24.028 0 0 1 24-24h232v56a40.045 40.045 0 0 0 40 40h56v328a24.028 24.028 0 0 1-24 24H104a24.028 24.028 0 0 1-24-24z" fill="#000000" opacity="1" data-original="#000000" class=""></path><path d="M192 168a8 8 0 0 0 8 8h192a8 8 0 0 0 0-16H200a8 8 0 0 0-8 8zM120 224h160a8 8 0 0 0 0-16H120a8 8 0 0 0 0 16zM392 256H248a8 8 0 0 0 0 16h144a8 8 0 0 0 0-16zM120 320h192a8 8 0 0 0 0-16H120a8 8 0 0 0 0 16zM120 176h48a8 8 0 0 0 0-16h-48a8 8 0 0 0 0 16zM392 208h-80a8 8 0 0 0 0 16h80a8 8 0 0 0 0-16zM120 272h96a8 8 0 0 0 0-16h-96a8 8 0 0 0 0 16zM392 304h-48a8 8 0 0 0 0 16h48a8 8 0 0 0 0-16zM328 400h-80a8 8 0 0 0 0 16h80a8 8 0 0 0 0-16zM120 416h96a8 8 0 0 0 0-16h-96a8 8 0 0 0 0 16zM120 368h64a8 8 0 0 0 0-16h-64a8 8 0 0 0 0 16zM120 128h96a8 8 0 0 0 0-16h-96a8 8 0 0 0 0 16zM304 360a8 8 0 0 0-8-8h-80a8 8 0 0 0 0 16h80a8 8 0 0 0 8-8zM392 352h-64a8 8 0 0 0 0 16h64a8 8 0 0 0 0-16zM392 400h-32a8 8 0 0 0 0 16h32a8 8 0 0 0 0-16z" fill="#000000" opacity="1" data-original="#000000" class=""></path></g></svg>