<svg xmlns="http://www.w3.org/2000/svg" width="24" height="24" viewBox="0 0 24 24" fill="none">
  <path d="M11.8825 2C11.9606 2 12.0388 2 12.1169 2C12.1317 2.00586 12.1464 2.01523 12.1616 2.0168C12.7153 2.07812 13.2429 2.55195 13.2458 3.27148C13.2474 3.68477 13.2485 4.09805 13.2433 4.51133C13.2423 4.59141 13.2673 4.61504 13.3423 4.62871C13.9821 4.7459 14.597 4.94258 15.1843 5.22285C16.3497 5.77891 17.3169 6.57617 18.074 7.62305C18.73 8.53047 19.1619 9.53633 19.3642 10.6385C19.381 10.7301 19.4129 10.7576 19.5078 10.7561C19.908 10.7496 20.3084 10.7561 20.7086 10.7527C21.4232 10.7467 21.9121 11.2621 21.9814 11.8279C21.9838 11.8467 21.9936 11.8645 22 11.8826V12.1365C21.9768 12.2238 21.9582 12.3127 21.9299 12.3982C21.7594 12.9125 21.2918 13.241 20.7199 13.2457C20.3066 13.249 19.8933 13.248 19.4799 13.2447C19.4117 13.2441 19.3883 13.2631 19.3709 13.3314C19.2724 13.7221 19.1941 14.1207 19.0578 14.4982C18.4072 16.2984 17.2334 17.66 15.5601 18.5879C14.8777 18.9664 14.1466 19.2143 13.3812 19.3635C13.2169 19.3955 13.247 19.3719 13.2466 19.5277C13.2458 19.9281 13.2513 20.3285 13.245 20.7287C13.2366 21.2631 12.9923 21.6555 12.5069 21.8842C12.3856 21.9412 12.2476 21.9623 12.1171 22H11.8827C11.8677 21.9943 11.8532 21.985 11.8378 21.9834C11.2606 21.9189 10.7477 21.4186 10.753 20.7207C10.7559 20.3107 10.7515 19.9008 10.7559 19.491C10.7567 19.4137 10.737 19.3859 10.6593 19.3719C9.75047 19.2064 8.90124 18.8814 8.11354 18.3992C7.0561 17.752 6.20766 16.8955 5.57035 15.832C5.10745 15.06 4.79593 14.2301 4.63635 13.3438C4.62327 13.2707 4.5971 13.2436 4.5178 13.2443C4.10471 13.2488 3.69142 13.2492 3.27833 13.2457C2.64844 13.2404 2.15977 12.8508 2.03125 12.257C2.02246 12.2166 2.01055 12.1768 2 12.1367C2 12.0391 2 11.9414 2 11.8438C2.00605 11.8328 2.01621 11.8225 2.01777 11.8109C2.08731 11.2705 2.5709 10.7385 3.31642 10.7521C3.7133 10.7594 4.11037 10.7502 4.50725 10.7559C4.59495 10.757 4.62268 10.7283 4.63792 10.6471C4.96702 8.9 5.81469 7.45078 7.15845 6.29258C8.16393 5.42598 9.32644 4.8791 10.6306 4.63555C10.7309 4.6168 10.7583 4.58125 10.7565 4.47949C10.7497 4.05977 10.7462 3.63984 10.7565 3.22031C10.7681 2.75 10.9862 2.38965 11.3977 2.16445C11.5452 2.08359 11.7204 2.05332 11.8829 2L11.8825 2ZM7.00083 12.1033C7.05552 14.8373 9.33581 17.0492 12.0972 17.0037C14.8058 16.9592 17.0292 14.6744 17.0093 11.9736C16.9892 9.24492 14.7181 6.9043 11.8302 6.99961C9.18718 7.08691 6.95513 9.27402 7.00064 12.1033H7.00083Z" fill="#C20707"/>
  <path d="M9.50393 11.9912C9.49768 10.6297 10.6143 9.51287 11.9897 9.50487C13.3657 9.49666 14.4895 10.6131 14.4946 11.9931C14.4999 13.3652 13.3848 14.4892 12.0126 14.4953C10.6217 14.5014 9.51018 13.392 9.50393 11.9912Z" fill="#C20707"/>
</svg>