<svg xmlns="http://www.w3.org/2000/svg" version="1.1" xmlns:xlink="http://www.w3.org/1999/xlink" width="512" height="512" x="0" y="0" viewBox="0 0 100 100" style="enable-background:new 0 0 512 512" xml:space="preserve" class=""><g><path d="M95.91 88a1 1 0 0 0 1-1V29.44a1 1 0 0 0-1-1H72a2.82 2.82 0 0 0-2.59 1.71L68.25 33a.79.79 0 0 1-.74.49H44.89V11.26a1 1 0 0 0-1-1H11.25a1 1 0 0 0-.71.29L2.38 18.7a1 1 0 0 0-.29.71V41a1 1 0 0 0 2 0V19.82l7.57-7.56h31.23v53.05H4.09V47a1 1 0 0 0-2 0v19.31a1 1 0 0 0 1 1h10.22V96.32a2.81 2.81 0 0 0 2.81 2.81h78a2.81 2.81 0 0 0 2.81-2.81V93a1 1 0 0 0-2 0v3.27a.81.81 0 0 1-.81.81h-78a.81.81 0 0 1-.81-.81v-20h23a.79.79 0 0 1 .69.39l2 3.28a2.78 2.78 0 0 0 2.41 1.39h24.1a2.82 2.82 0 0 0 2.59-1.72l1.19-2.8a.8.8 0 0 1 .74-.49h22.88V87a1 1 0 0 0 1 1Zm-51-34.79h24.5l-1.16 2.69a.79.79 0 0 1-.74.49H44.89Zm22.6-17.76a2.81 2.81 0 0 0 2.59-1.71l1.19-2.81a.8.8 0 0 1 .74-.49h22.88v20.77h-50V35.45ZM43.89 67.31a1 1 0 0 0 1-1v-7.92h22.62a2.81 2.81 0 0 0 2.59-1.71l1.19-2.81a.8.8 0 0 1 .74-.49h22.88v20.77h-79.6v-6.84Zm24.37 11.51a.82.82 0 0 1-.75.51H43.39a.81.81 0 0 1-.69-.4L41 76.15h28.4Z" fill="#000000" opacity="1" data-original="#000000" class=""></path><path d="M31.91 22H14.57a1 1 0 1 0 0 2h17.34a1 1 0 0 0 0-2ZM32.42 32.52H15.08a1 1 0 1 0 0 2h17.34a1 1 0 0 0 0-2ZM32.42 43.05H15.08a1 1 0 1 0 0 2h17.34a1 1 0 0 0 0-2ZM32.42 53.59H15.08a1 1 0 1 0 0 2h17.34a1 1 0 0 0 0-2ZM61.38 30.11a1 1 0 0 0 1.74 0l4.41-7.65a1 1 0 0 0-.86-1.5h-3.42V2.08a1 1 0 1 0-2 0V21h-3.42a1 1 0 0 0-.86.5 1 1 0 0 0 0 1ZM64.93 23l-2.68 4.65L59.56 23Z" fill="#000000" opacity="1" data-original="#000000" class=""></path></g></svg>