<svg width="16" height="16" viewBox="0 0 16 16" fill="none" xmlns="http://www.w3.org/2000/svg">
<path fill-rule="evenodd" clip-rule="evenodd" d="M11.9962 7.99953C12.4949 7.99941 12.9836 7.85942 13.4068 7.59549C13.8299 7.33155 14.1706 6.95423 14.3901 6.50639C14.6096 6.05855 14.6991 5.55814 14.6484 5.06199C14.5977 4.56584 14.409 4.09384 14.1035 3.6996C13.798 3.30536 13.3881 3.00468 12.9204 2.83172C12.4526 2.65875 11.9457 2.62042 11.4572 2.72109C10.9688 2.82176 10.5183 3.0574 10.1571 3.40123C9.79581 3.74506 9.53821 4.18331 9.41353 4.6662H1.9962C1.81939 4.6662 1.64982 4.73644 1.52479 4.86146C1.39977 4.98649 1.32953 5.15606 1.32953 5.33287C1.32953 5.50968 1.39977 5.67925 1.52479 5.80427C1.64982 5.92929 1.81939 5.99953 1.9962 5.99953H9.41353C9.70953 7.14953 10.7535 7.99953 11.9962 7.99953ZM10.6629 5.33287C10.6629 5.68649 10.8033 6.02563 11.0534 6.27567C11.3034 6.52572 11.6426 6.6662 11.9962 6.6662C12.3498 6.6662 12.689 6.52572 12.939 6.27567C13.1891 6.02563 13.3295 5.68649 13.3295 5.33287C13.3295 4.97924 13.1891 4.64011 12.939 4.39006C12.689 4.14001 12.3498 3.99953 11.9962 3.99953C11.6426 3.99953 11.3034 4.14001 11.0534 4.39006C10.8033 4.64011 10.6629 4.97924 10.6629 5.33287ZM1.32953 10.6662C1.32889 10.0167 1.56532 9.38927 1.99445 8.90172C2.42357 8.41416 3.01589 8.09998 3.66023 8.01815C4.30456 7.93632 4.95661 8.09246 5.49399 8.45727C6.03137 8.82208 6.41713 9.37048 6.57886 9.99953H13.9962C14.173 9.99953 14.3426 10.0698 14.4676 10.1948C14.5926 10.3198 14.6629 10.4894 14.6629 10.6662C14.6629 10.843 14.5926 11.0126 14.4676 11.1376C14.3426 11.2626 14.173 11.3329 13.9962 11.3329H6.57886C6.41504 11.9599 6.02862 12.5058 5.49175 12.8687C4.95488 13.2317 4.30426 13.3868 3.66138 13.3052C3.01851 13.2235 2.42732 12.9107 1.99822 12.4251C1.56911 11.9394 1.33142 11.3142 1.32953 10.6662ZM5.32953 10.6662C5.32953 10.3126 5.18905 9.97344 4.93901 9.72339C4.68896 9.47334 4.34982 9.33287 3.9962 9.33287C3.64257 9.33287 3.30344 9.47334 3.05339 9.72339C2.80334 9.97344 2.66286 10.3126 2.66286 10.6662C2.66286 11.0198 2.80334 11.359 3.05339 11.609C3.30344 11.8591 3.64257 11.9995 3.9962 11.9995C4.34982 11.9995 4.68896 11.8591 4.93901 11.609C5.18905 11.359 5.32953 11.0198 5.32953 10.6662Z" fill="#263238"/>
</svg>
