<svg xmlns="http://www.w3.org/2000/svg" version="1.1" xmlns:xlink="http://www.w3.org/1999/xlink" width="512" height="512" x="0" y="0" viewBox="0 0 128 128" style="enable-background:new 0 0 512 512" xml:space="preserve" class=""><g><path d="M24 88v1a7 7 0 0 0 7 7h26a7 7 0 0 0 7-7v-1a15.58 15.58 0 0 0-11.32-15.35 13 13 0 1 0-17.36 0A15.58 15.58 0 0 0 24 88zm20-34a9 9 0 1 1-9 9 9 9 0 0 1 9-9zm-4 22h8a11.74 11.74 0 0 1 12 12v1a3 3 0 0 1-3 3H31a3 3 0 0 1-3-3v-1a11.74 11.74 0 0 1 12-12z" fill="#000000" opacity="1" data-original="#000000" class=""></path><path d="M106 74a2 2 0 0 0-2 2v25a3 3 0 0 1-3 3H19a3 3 0 0 1-3-3V43a3 3 0 0 1 3-3h44a2 2 0 0 0 0-4H19a7 7 0 0 0-7 7v58a7 7 0 0 0 7 7h82a7 7 0 0 0 7-7V76a2 2 0 0 0-2-2zM104.25 36.59 91.67 49.17l-7.92-7.92a2 2 0 0 0-2.83 2.83l9.33 9.33a2 2 0 0 0 1.42.59 2 2 0 0 0 1.41-.59l14-14a2 2 0 0 0-2.83-2.82z" fill="#000000" opacity="1" data-original="#000000" class=""></path><path d="M118.28 25.47a2 2 0 0 0-1.82-1.78 40.29 40.29 0 0 1-11.06-3.08 39.26 39.26 0 0 1-10.05-6.09 2 2 0 0 0-2.7 0 39.17 39.17 0 0 1-10.05 6.09 40.37 40.37 0 0 1-11 3.08 2 2 0 0 0-1.83 1.78c-.09.85-2.09 20.82 2.85 30.68 5.91 11.78 20 18.39 20.59 18.67a2 2 0 0 0 1.68 0c.59-.28 14.68-6.89 20.59-18.67 4.89-9.86 2.89-29.83 2.8-30.68zm-6.43 28.89C107.36 63.33 97 69.2 94 70.77c-3-1.57-13.36-7.44-17.85-16.41-3.68-7.36-2.94-22.09-2.58-26.91a47.29 47.29 0 0 0 10.6-3.16 45.43 45.43 0 0 0 9.83-5.7 45.43 45.43 0 0 0 9.83 5.7 47.29 47.29 0 0 0 10.6 3.16c.37 4.82 1.11 19.55-2.58 26.91zM74 96h20a2 2 0 0 0 0-4H74a2 2 0 0 0 0 4zM74 84h12a2 2 0 0 0 0-4H74a2 2 0 0 0 0 4z" fill="#000000" opacity="1" data-original="#000000" class=""></path></g></svg>