<?xml version="1.0" encoding="UTF-8"?>
<svg id="Layer_1" xmlns="http://www.w3.org/2000/svg" version="1.1" xmlns:xlink="http://www.w3.org/1999/xlink" viewBox="0 0 506.02 477.11">
  <!-- Generator: Adobe Illustrator 29.1.0, SVG Export Plug-In . SVG Version: 2.1.0 Build 142)  -->
  <defs>
    <style>
      .st0, .st1 {
        fill: #c12026;
      }

      .st1 {
        stroke: url(#linear-gradient);
        stroke-miterlimit: 10;
        stroke-width: 4px;
      }

      .st2 {
        font-family: Gilroy-ExtraBold, Gilroy;
        font-size: 92.99px;
        font-weight: 700;
      }

      .st3 {
        letter-spacing: 0em;
      }
    </style>
    <linearGradient id="linear-gradient" x1="117.52" y1="161.38" x2="385.85" y2="161.38" gradientUnits="userSpaceOnUse">
      <stop offset="0" stop-color="#ecc680"/>
      <stop offset="0" stop-color="#ffdf9a"/>
      <stop offset=".23" stop-color="#a77a2b"/>
      <stop offset=".41" stop-color="#d9b25c"/>
      <stop offset=".59" stop-color="#fff19c"/>
      <stop offset=".77" stop-color="#ffd780"/>
      <stop offset="1" stop-color="#a37e2d"/>
    </linearGradient>
  </defs>
  <text class="st2" transform="translate(22.65 397.03)"><tspan class="st0" x="0" y="0">Broker</tspan><tspan class="st3" x="283.16" y="0">App</tspan></text>
  <path class="st1" d="M181.41,205.39c-10.37,10.37-25.96,13.47-39.51,7.86-13.55-5.61-22.38-18.83-22.38-33.49V33.08h163.25c39.68,0,59.98,6.58,76.42,19.73,16.44,13.15,24.66,26.02,24.66,54.14,0,22.45-9.07,40.59-27.21,54.42,18.14,13.83,27.21,31.97,27.21,54.42,0,28.12-8.22,48.75-24.66,61.9-16.44,13.15-36.74,11.97-76.42,11.97h-45.6c-14.66,0-27.88-1.07-33.49-14.62-5.61-13.55-2.51-29.14,7.86-39.51,27.79-27.79,54.45-54.45,54.45-54.45v65.54h50.37V100.56h-146.05v50.37h65.54s-26.66,26.66-54.45,54.45h0Z"/>
</svg>