<svg width="12" height="14" viewBox="0 0 12 14" fill="none" xmlns="http://www.w3.org/2000/svg">
<path d="M10.8182 5.90909C10.8182 9.72727 5.90909 13 5.90909 13C5.90909 13 1 9.72727 1 5.90909C1 4.60712 1.51721 3.35847 2.43784 2.43784C3.35847 1.51721 4.60712 1 5.90909 1C7.21104 1 8.45969 1.51721 9.38036 2.43784C10.301 3.35847 10.8182 4.60712 10.8182 5.90909Z" stroke="#263238" stroke-linecap="round" stroke-linejoin="round"/>
<path d="M5.90931 7.54555C6.81308 7.54555 7.54568 6.81295 7.54568 5.90919C7.54568 5.00545 6.81308 4.27283 5.90931 4.27283C5.00555 4.27283 4.27295 5.00545 4.27295 5.90919C4.27295 6.81295 5.00555 7.54555 5.90931 7.54555Z" stroke="#C20707" stroke-linecap="round" stroke-linejoin="round"/>
</svg>
