<svg width="24" height="24" viewBox="0 0 24 24" fill="none" xmlns="http://www.w3.org/2000/svg">
<path d="M18.3439 8.375C18.2065 10.2814 16.7923 11.75 15.2501 11.75C13.7079 11.75 12.2914 10.2819 12.1564 8.375C12.0157 6.39172 13.3925 5 15.2501 5C17.1078 5 18.4845 6.42781 18.3439 8.375Z" stroke="#263238" stroke-width="1.5" stroke-linecap="round" stroke-linejoin="round"/>
<path d="M15.2508 14.75C12.1959 14.75 9.25829 16.2673 8.52235 19.2223C8.42485 19.6133 8.67001 20 9.07173 20H21.4303C21.832 20 22.0758 19.6133 21.9797 19.2223C21.2438 16.22 18.3061 14.75 15.2508 14.75Z" stroke="#263238" stroke-width="1.5" stroke-miterlimit="10"/>
<path d="M8.87594 9.21594C8.76625 10.7384 7.62344 11.9375 6.39156 11.9375C5.15969 11.9375 4.015 10.7389 3.90719 9.21594C3.79515 7.63203 4.9075 6.5 6.39156 6.5C7.87562 6.5 8.98797 7.66109 8.87594 9.21594Z" stroke="#263238" stroke-width="1.5" stroke-linecap="round" stroke-linejoin="round"/>
<path d="M9.15671 14.8434C8.31061 14.4557 7.37874 14.3066 6.39108 14.3066C3.95358 14.3066 1.60515 15.5184 1.01686 17.8785C0.939521 18.1907 1.13546 18.4996 1.45608 18.4996H6.71921" stroke="#263238" stroke-width="1.5" stroke-miterlimit="10" stroke-linecap="round"/>
</svg>
