<svg width="19" height="19" viewBox="0 0 19 19" fill="none" xmlns="http://www.w3.org/2000/svg">
<path d="M10.4499 11.9801L5.87988 12.9501L6.84988 8.3801C6.91988 8.0501 7.07988 7.7501 7.31988 7.5101L13.7199 1.1101C14.3999 0.430098 15.4999 0.430098 16.1799 1.1101L17.7099 2.6401C18.3899 3.3201 18.3899 4.4201 17.7099 5.1001L11.3099 11.5001C11.0799 11.7401 10.7799 11.9101 10.4499 11.9801Z" stroke="#020000" stroke-width="1.2" stroke-miterlimit="10" stroke-linecap="round" stroke-linejoin="round"/>
<path d="M15.6401 7.21016V16.2602C15.6401 17.3302 14.7701 18.1902 13.7101 18.1902H2.5301C1.4601 18.1902 0.600098 17.3202 0.600098 16.2602V5.09016C0.600098 4.02016 1.4701 3.16016 2.5301 3.16016H11.5501" stroke="#020000" stroke-width="1.2" stroke-miterlimit="10" stroke-linecap="round" stroke-linejoin="round"/>
</svg>
