<svg width="24" height="24" viewBox="0 0 24 24" fill="none" xmlns="http://www.w3.org/2000/svg">
<path d="M5.53633 12.5047L5.53637 12.5047L5.54019 12.4982C5.6994 12.2262 5.83273 11.8671 5.92591 11.5286C6.01895 11.1906 6.08923 10.8107 6.08923 10.4898V8.6298C6.08923 5.36071 8.74649 2.7093 12.0201 2.6998C15.2801 2.7003 17.9392 5.35845 17.9392 8.6298V10.4998C17.9392 10.821 18.0096 11.2013 18.1044 11.5409C18.199 11.8795 18.3358 12.2413 18.5031 12.5163C18.5035 12.517 18.5039 12.5176 18.5043 12.5182L19.6304 14.3918C19.6307 14.3923 19.6309 14.3927 19.6312 14.3931C19.9419 14.9169 19.9997 15.5304 19.7908 16.0911C19.5788 16.65 19.1351 17.0865 18.5523 17.2836C17.5033 17.6332 16.428 17.9042 15.3461 18.078L15.3461 18.0779L15.3329 18.0803C15.2179 18.1012 15.1366 18.1155 15.0604 18.1225L15.0363 18.1247L15.0124 18.1287C14.8527 18.1553 14.6903 18.1735 14.5074 18.1938L14.4994 18.1947L14.4914 18.1958C14.2899 18.2232 14.076 18.242 13.8429 18.2622L13.8429 18.2622L13.8366 18.2628C13.2378 18.3208 12.6287 18.3498 12.0192 18.3498C11.3994 18.3498 10.78 18.3207 10.1709 18.2627L10.1709 18.2626L10.1572 18.2616C9.90468 18.2429 9.66163 18.2148 9.41807 18.1774L9.41809 18.1772L9.40513 18.1755C9.25859 18.156 9.11561 18.1369 8.98234 18.1179C8.91774 18.1065 8.85572 18.0981 8.80698 18.0914L8.80205 18.0908C8.74474 18.083 8.70399 18.0773 8.6655 18.0703L8.66551 18.0703L8.65889 18.0691C7.57652 17.8839 6.51909 17.6313 5.47477 17.2832L5.47478 17.2831L5.47013 17.2816C4.84861 17.0796 4.39607 16.6375 4.19887 16.1043L4.19784 16.1016C4.00634 15.5909 4.06449 14.9665 4.40791 14.382L5.53633 12.5047ZM11.9892 11.4098C12.7682 11.4098 13.3992 10.7788 13.3992 9.9998V6.89981C13.3992 6.12082 12.7682 5.4898 11.9892 5.4898C11.2102 5.4898 10.5792 6.12082 10.5792 6.89981V9.9998C10.5792 10.7788 11.2102 11.4098 11.9892 11.4098Z" stroke="#263238" stroke-width="1.3"/>
<path d="M11.9997 21.35C11.4496 21.35 10.9076 21.1509 10.4967 20.7992C10.9978 20.8375 11.5077 20.86 12.0197 20.86C12.521 20.86 13.0201 20.8377 13.5106 20.7997C13.1004 21.1435 12.573 21.35 11.9997 21.35Z" stroke="#263238" stroke-width="1.3"/>
</svg>
