<svg width="21" height="18" viewBox="0 0 21 18" fill="currentColor" xmlns="http://www.w3.org/2000/svg">
<g id="property">
<g id="Vector">
<mask id="path-1-outside-1_109_1177" maskUnits="userSpaceOnUse" x="0" y="-0.664673" width="21" height="19" fill='currentColor'>
<rect fill="currentColor" y="-0.664673" width="21" height="19"/>
<path d="M19.7138 11.288C19.354 10.7593 18.6294 10.6193 18.0991 10.9758L15.6852 12.5912L15.6782 7.56286L16.5168 8.34847C16.6941 8.51509 16.9284 8.60772 17.1718 8.6074H17.1732C17.3041 8.60702 17.4335 8.57994 17.5535 8.52782C17.6736 8.4757 17.7817 8.39964 17.8714 8.30428C18.0464 8.11746 18.1382 7.87371 18.1298 7.61784C18.1215 7.36197 18.014 7.12468 17.8271 6.94968L16.2373 5.46034C16.1847 5.41319 16.1158 5.3885 16.0452 5.39156C15.9747 5.39462 15.9081 5.4252 15.8599 5.47673C15.8116 5.52826 15.7854 5.59666 15.7869 5.66725C15.7885 5.73785 15.8176 5.80504 15.8681 5.85442L17.458 7.34375C17.4982 7.38122 17.5306 7.42628 17.5532 7.47635C17.5759 7.52641 17.5885 7.58048 17.5901 7.63542C17.592 7.69035 17.5831 7.74512 17.5637 7.79655C17.5443 7.84799 17.5149 7.89507 17.4772 7.93507C17.4383 7.97697 17.3911 8.01037 17.3387 8.03314C17.2862 8.05592 17.2296 8.06758 17.1724 8.0674H17.1718C17.0653 8.0674 16.9638 8.02728 16.8859 7.95435L16.8859 7.95432L10.5729 2.04045C10.5228 1.9935 10.4567 1.96741 10.388 1.96751C10.3193 1.9676 10.2532 1.99387 10.2032 2.04097L3.90667 7.97253C3.86674 8.01028 3.81973 8.03976 3.76835 8.05926C3.71697 8.07877 3.66225 8.08791 3.60732 8.08617C3.55237 8.08468 3.49826 8.0723 3.44813 8.04975C3.398 8.0272 3.35285 7.99493 3.31528 7.9548C3.27748 7.9149 3.24798 7.86791 3.22847 7.81653C3.20896 7.76515 3.19984 7.71041 3.20164 7.65548C3.20313 7.60054 3.2155 7.54644 3.23804 7.49631C3.26058 7.44618 3.29283 7.40102 3.33294 7.36344L10.1001 0.988562C10.2605 0.837426 10.5122 0.837057 10.673 0.987786L14.6321 4.69661C14.658 4.72085 14.6884 4.73976 14.7216 4.75225C14.7548 4.76474 14.7901 4.77058 14.8255 4.76942C14.8609 4.76827 14.8958 4.76014 14.9281 4.74551C14.9604 4.73088 14.9895 4.71003 15.0137 4.68416C15.038 4.65828 15.0569 4.62789 15.0694 4.59471C15.0819 4.56152 15.0877 4.52621 15.0866 4.49077C15.0854 4.45533 15.0773 4.42047 15.0626 4.38817C15.048 4.35587 15.0272 4.32677 15.0013 4.30253L11.0422 0.59371C10.6738 0.248511 10.0974 0.249287 9.72988 0.595521L7.56355 2.63628L7.56296 2.27227C7.56304 2.21584 7.55193 2.15996 7.53026 2.10786C7.50859 2.05576 7.4768 2.00847 7.43673 1.96874C7.39696 1.92886 7.34968 1.89725 7.29763 1.87572C7.24558 1.8542 7.18978 1.8432 7.13346 1.84336H7.13283L5.58316 1.84554C5.52674 1.84546 5.47085 1.85658 5.41875 1.87825C5.36665 1.89992 5.31937 1.9317 5.27964 1.97177C5.23968 2.01163 5.20803 2.05901 5.18651 2.11118C5.165 2.16335 5.15404 2.21927 5.15429 2.27571L5.15857 4.9019L2.96269 6.97048C2.77635 7.14599 2.66955 7.38358 2.6619 7.63945C2.65425 7.89532 2.74672 8.13885 2.92224 8.32512C3.09772 8.51146 3.3353 8.6183 3.59121 8.62595C3.601 8.62624 3.61079 8.62639 3.62058 8.62639C3.8657 8.62639 4.09782 8.5344 4.27696 8.36557L5.11369 7.57735L5.11701 9.95248C4.84556 9.9127 4.57159 9.89261 4.29724 9.89237H3.83526V9.73048C3.83526 9.18701 3.39308 8.74483 2.84961 8.74483H1.98565C1.44218 8.7448 1 9.18693 1 9.73045V13.9611C1 14.0327 1.02844 14.1014 1.07908 14.152C1.12971 14.2027 1.19838 14.2311 1.26998 14.2311C1.34159 14.2311 1.41026 14.2027 1.46089 14.152C1.51152 14.1014 1.53996 14.0327 1.53996 13.9611V9.73045C1.53996 9.4847 1.7399 9.28476 1.98565 9.28476H2.84957C3.09532 9.28476 3.29526 9.4847 3.29526 9.73045V16.1239C3.29526 16.3697 3.09532 16.5696 2.84957 16.5696H1.98565C1.7399 16.5696 1.53996 16.3697 1.53996 16.1239V15.6515C1.53996 15.5799 1.51152 15.5112 1.46089 15.4606C1.41026 15.4099 1.34159 15.3815 1.26998 15.3815C1.19838 15.3815 1.12971 15.4099 1.07908 15.4606C1.02844 15.5112 1 15.5799 1 15.6515V16.1239C1 16.6674 1.44218 17.1096 1.98565 17.1096H2.84957C3.39305 17.1096 3.83522 16.6674 3.83522 16.1239V16.0872L7.78905 17.5845C7.79637 17.5872 7.80379 17.5897 7.81133 17.5918C7.98323 17.6403 8.15505 17.6647 8.3247 17.6647C8.41647 17.6647 8.5076 17.6575 8.59782 17.6433L14.4083 16.8057L14.4124 16.8051C14.9069 16.7259 15.3718 16.5176 15.7601 16.2012C15.7634 16.1985 15.7668 16.1956 15.77 16.1927L19.5238 12.8165C19.961 12.4284 20.0426 11.7713 19.7138 11.288ZM7.02314 2.38351L7.0244 3.14417L5.69769 4.39397L5.6944 2.38532L7.02314 2.38351ZM10.3888 2.6079L15.1375 7.05633L15.1457 12.9522L14.3813 13.4638L13.5718 13.4184L13.5505 13.2034C13.5147 12.8372 13.3617 12.4922 13.1143 12.2199C12.8668 11.9475 12.5381 11.7622 12.1769 11.6916L12.172 8.18403C12.1717 7.91486 11.9525 7.69612 11.6834 7.69612H11.6827L9.10945 7.69974C9.04525 7.69965 8.98168 7.71229 8.92241 7.73694C8.86313 7.76159 8.80934 7.79776 8.76414 7.84334C8.71869 7.88866 8.68267 7.94255 8.65819 8.00189C8.63371 8.06123 8.62124 8.12483 8.6215 8.18902L8.62579 11.2472C8.11547 11.1307 7.62599 10.9367 7.17435 10.6721C7.1176 10.639 7.06028 10.6068 7.00242 10.5756C6.97988 10.5635 6.95698 10.5521 6.93426 10.5402C6.89909 10.5218 6.86399 10.5034 6.82845 10.4858C6.80015 10.4717 6.77152 10.4584 6.743 10.4449C6.71275 10.4305 6.68253 10.416 6.65205 10.4021C6.62102 10.388 6.58972 10.3746 6.55847 10.3611C6.52991 10.3488 6.50135 10.3364 6.47261 10.3245C6.44047 10.3112 6.40815 10.2985 6.37578 10.2858C6.34708 10.2746 6.31834 10.2634 6.28948 10.2526C6.25745 10.2407 6.22528 10.2291 6.19303 10.2178C6.09929 10.1847 6.00469 10.1541 5.90934 10.126C5.88071 10.1176 5.85211 10.1092 5.82333 10.1012C5.78573 10.0908 5.74802 10.0809 5.71021 10.0713C5.69252 10.0667 5.67493 10.0616 5.65712 10.0572L5.65295 7.0693L10.3888 2.6079ZM11.6369 11.6241L9.37869 11.3641L9.16594 11.3396L9.16158 8.23963L11.6321 8.23616L11.6369 11.6241ZM19.1641 12.4139L15.4139 15.7868C15.101 16.0404 14.7269 16.2076 14.3292 16.2716L8.52124 17.1088L8.51762 17.1093L8.51359 17.11C8.33763 17.1378 8.15439 17.1261 7.96889 17.0752L3.83526 15.5098V10.4323H4.29724C4.7037 10.4324 5.10871 10.4807 5.50385 10.5759C5.55058 10.5872 5.5972 10.5988 5.6436 10.6114L5.65576 10.6148C5.70227 10.6275 5.7486 10.6409 5.79478 10.6549C5.80305 10.6574 5.81136 10.6599 5.8196 10.6624C5.86874 10.6776 5.91765 10.6934 5.9663 10.7101L5.98134 10.7153C6.08829 10.7522 6.19399 10.7927 6.29828 10.8366C6.34902 10.8579 6.39942 10.88 6.44945 10.903C6.49659 10.9246 6.5434 10.9471 6.58991 10.9702C6.59538 10.9729 6.60088 10.9755 6.60635 10.9782C6.65179 11.001 6.69686 11.0245 6.74167 11.0486C6.75013 11.0531 6.75856 11.0578 6.76702 11.0624C6.81223 11.087 6.85719 11.1121 6.90171 11.1382C7.54419 11.514 8.24361 11.7574 8.98055 11.8617C8.98288 11.862 8.98517 11.8623 8.9875 11.8626L12.0125 12.2109C12.2385 12.243 12.4502 12.3406 12.6215 12.4915C12.7929 12.6424 12.9163 12.8402 12.9767 13.0603C12.9942 13.1238 13.0064 13.1895 13.0131 13.2568L13.0252 13.3776L7.35582 12.8809C7.3205 12.8778 7.28492 12.8817 7.2511 12.8924C7.21729 12.9031 7.1859 12.9203 7.15874 12.943C7.10388 12.9891 7.06955 13.055 7.0633 13.1263C7.05705 13.1977 7.07939 13.2685 7.12541 13.3234C7.17143 13.3783 7.23735 13.4126 7.30868 13.4188L13.3025 13.944C13.3039 13.9441 13.3053 13.9441 13.3067 13.9442C13.3081 13.9443 13.3095 13.9445 13.3109 13.9446L14.4413 14.008C14.4463 14.0083 14.4514 14.0085 14.4564 14.0085C14.4617 14.0085 14.467 14.0076 14.4723 14.0073C14.4784 14.0069 14.4844 14.0067 14.4904 14.0059C14.4984 14.0049 14.5063 14.0032 14.5142 14.0014C14.5199 14.0002 14.5255 13.9993 14.5311 13.9976C14.5397 13.9952 14.548 13.9918 14.5564 13.9884C14.5609 13.9866 14.5656 13.9853 14.57 13.9832C14.5826 13.9774 14.5949 13.9706 14.6066 13.9628L15.5661 13.3207L15.5662 13.3206L18.3998 11.4242C18.6849 11.2326 19.0741 11.3077 19.2673 11.5918C19.444 11.8513 19.4001 12.2043 19.1641 12.4139Z"/>
</mask>
<path d="M19.7138 11.288C19.354 10.7593 18.6294 10.6193 18.0991 10.9758L15.6852 12.5912L15.6782 7.56286L16.5168 8.34847C16.6941 8.51509 16.9284 8.60772 17.1718 8.6074H17.1732C17.3041 8.60702 17.4335 8.57994 17.5535 8.52782C17.6736 8.4757 17.7817 8.39964 17.8714 8.30428C18.0464 8.11746 18.1382 7.87371 18.1298 7.61784C18.1215 7.36197 18.014 7.12468 17.8271 6.94968L16.2373 5.46034C16.1847 5.41319 16.1158 5.3885 16.0452 5.39156C15.9747 5.39462 15.9081 5.4252 15.8599 5.47673C15.8116 5.52826 15.7854 5.59666 15.7869 5.66725C15.7885 5.73785 15.8176 5.80504 15.8681 5.85442L17.458 7.34375C17.4982 7.38122 17.5306 7.42628 17.5532 7.47635C17.5759 7.52641 17.5885 7.58048 17.5901 7.63542C17.592 7.69035 17.5831 7.74512 17.5637 7.79655C17.5443 7.84799 17.5149 7.89507 17.4772 7.93507C17.4383 7.97697 17.3911 8.01037 17.3387 8.03314C17.2862 8.05592 17.2296 8.06758 17.1724 8.0674H17.1718C17.0653 8.0674 16.9638 8.02728 16.8859 7.95435L16.8859 7.95432L10.5729 2.04045C10.5228 1.9935 10.4567 1.96741 10.388 1.96751C10.3193 1.9676 10.2532 1.99387 10.2032 2.04097L3.90667 7.97253C3.86674 8.01028 3.81973 8.03976 3.76835 8.05926C3.71697 8.07877 3.66225 8.08791 3.60732 8.08617C3.55237 8.08468 3.49826 8.0723 3.44813 8.04975C3.398 8.0272 3.35285 7.99493 3.31528 7.9548C3.27748 7.9149 3.24798 7.86791 3.22847 7.81653C3.20896 7.76515 3.19984 7.71041 3.20164 7.65548C3.20313 7.60054 3.2155 7.54644 3.23804 7.49631C3.26058 7.44618 3.29283 7.40102 3.33294 7.36344L10.1001 0.988562C10.2605 0.837426 10.5122 0.837057 10.673 0.987786L14.6321 4.69661C14.658 4.72085 14.6884 4.73976 14.7216 4.75225C14.7548 4.76474 14.7901 4.77058 14.8255 4.76942C14.8609 4.76827 14.8958 4.76014 14.9281 4.74551C14.9604 4.73088 14.9895 4.71003 15.0137 4.68416C15.038 4.65828 15.0569 4.62789 15.0694 4.59471C15.0819 4.56152 15.0877 4.52621 15.0866 4.49077C15.0854 4.45533 15.0773 4.42047 15.0626 4.38817C15.048 4.35587 15.0272 4.32677 15.0013 4.30253L11.0422 0.59371C10.6738 0.248511 10.0974 0.249287 9.72988 0.595521L7.56355 2.63628L7.56296 2.27227C7.56304 2.21584 7.55193 2.15996 7.53026 2.10786C7.50859 2.05576 7.4768 2.00847 7.43673 1.96874C7.39696 1.92886 7.34968 1.89725 7.29763 1.87572C7.24558 1.8542 7.18978 1.8432 7.13346 1.84336H7.13283L5.58316 1.84554C5.52674 1.84546 5.47085 1.85658 5.41875 1.87825C5.36665 1.89992 5.31937 1.9317 5.27964 1.97177C5.23968 2.01163 5.20803 2.05901 5.18651 2.11118C5.165 2.16335 5.15404 2.21927 5.15429 2.27571L5.15857 4.9019L2.96269 6.97048C2.77635 7.14599 2.66955 7.38358 2.6619 7.63945C2.65425 7.89532 2.74672 8.13885 2.92224 8.32512C3.09772 8.51146 3.3353 8.6183 3.59121 8.62595C3.601 8.62624 3.61079 8.62639 3.62058 8.62639C3.8657 8.62639 4.09782 8.5344 4.27696 8.36557L5.11369 7.57735L5.11701 9.95248C4.84556 9.9127 4.57159 9.89261 4.29724 9.89237H3.83526V9.73048C3.83526 9.18701 3.39308 8.74483 2.84961 8.74483H1.98565C1.44218 8.7448 1 9.18693 1 9.73045V13.9611C1 14.0327 1.02844 14.1014 1.07908 14.152C1.12971 14.2027 1.19838 14.2311 1.26998 14.2311C1.34159 14.2311 1.41026 14.2027 1.46089 14.152C1.51152 14.1014 1.53996 14.0327 1.53996 13.9611V9.73045C1.53996 9.4847 1.7399 9.28476 1.98565 9.28476H2.84957C3.09532 9.28476 3.29526 9.4847 3.29526 9.73045V16.1239C3.29526 16.3697 3.09532 16.5696 2.84957 16.5696H1.98565C1.7399 16.5696 1.53996 16.3697 1.53996 16.1239V15.6515C1.53996 15.5799 1.51152 15.5112 1.46089 15.4606C1.41026 15.4099 1.34159 15.3815 1.26998 15.3815C1.19838 15.3815 1.12971 15.4099 1.07908 15.4606C1.02844 15.5112 1 15.5799 1 15.6515V16.1239C1 16.6674 1.44218 17.1096 1.98565 17.1096H2.84957C3.39305 17.1096 3.83522 16.6674 3.83522 16.1239V16.0872L7.78905 17.5845C7.79637 17.5872 7.80379 17.5897 7.81133 17.5918C7.98323 17.6403 8.15505 17.6647 8.3247 17.6647C8.41647 17.6647 8.5076 17.6575 8.59782 17.6433L14.4083 16.8057L14.4124 16.8051C14.9069 16.7259 15.3718 16.5176 15.7601 16.2012C15.7634 16.1985 15.7668 16.1956 15.77 16.1927L19.5238 12.8165C19.961 12.4284 20.0426 11.7713 19.7138 11.288ZM7.02314 2.38351L7.0244 3.14417L5.69769 4.39397L5.6944 2.38532L7.02314 2.38351ZM10.3888 2.6079L15.1375 7.05633L15.1457 12.9522L14.3813 13.4638L13.5718 13.4184L13.5505 13.2034C13.5147 12.8372 13.3617 12.4922 13.1143 12.2199C12.8668 11.9475 12.5381 11.7622 12.1769 11.6916L12.172 8.18403C12.1717 7.91486 11.9525 7.69612 11.6834 7.69612H11.6827L9.10945 7.69974C9.04525 7.69965 8.98168 7.71229 8.92241 7.73694C8.86313 7.76159 8.80934 7.79776 8.76414 7.84334C8.71869 7.88866 8.68267 7.94255 8.65819 8.00189C8.63371 8.06123 8.62124 8.12483 8.6215 8.18902L8.62579 11.2472C8.11547 11.1307 7.62599 10.9367 7.17435 10.6721C7.1176 10.639 7.06028 10.6068 7.00242 10.5756C6.97988 10.5635 6.95698 10.5521 6.93426 10.5402C6.89909 10.5218 6.86399 10.5034 6.82845 10.4858C6.80015 10.4717 6.77152 10.4584 6.743 10.4449C6.71275 10.4305 6.68253 10.416 6.65205 10.4021C6.62102 10.388 6.58972 10.3746 6.55847 10.3611C6.52991 10.3488 6.50135 10.3364 6.47261 10.3245C6.44047 10.3112 6.40815 10.2985 6.37578 10.2858C6.34708 10.2746 6.31834 10.2634 6.28948 10.2526C6.25745 10.2407 6.22528 10.2291 6.19303 10.2178C6.09929 10.1847 6.00469 10.1541 5.90934 10.126C5.88071 10.1176 5.85211 10.1092 5.82333 10.1012C5.78573 10.0908 5.74802 10.0809 5.71021 10.0713C5.69252 10.0667 5.67493 10.0616 5.65712 10.0572L5.65295 7.0693L10.3888 2.6079ZM11.6369 11.6241L9.37869 11.3641L9.16594 11.3396L9.16158 8.23963L11.6321 8.23616L11.6369 11.6241ZM19.1641 12.4139L15.4139 15.7868C15.101 16.0404 14.7269 16.2076 14.3292 16.2716L8.52124 17.1088L8.51762 17.1093L8.51359 17.11C8.33763 17.1378 8.15439 17.1261 7.96889 17.0752L3.83526 15.5098V10.4323H4.29724C4.7037 10.4324 5.10871 10.4807 5.50385 10.5759C5.55058 10.5872 5.5972 10.5988 5.6436 10.6114L5.65576 10.6148C5.70227 10.6275 5.7486 10.6409 5.79478 10.6549C5.80305 10.6574 5.81136 10.6599 5.8196 10.6624C5.86874 10.6776 5.91765 10.6934 5.9663 10.7101L5.98134 10.7153C6.08829 10.7522 6.19399 10.7927 6.29828 10.8366C6.34902 10.8579 6.39942 10.88 6.44945 10.903C6.49659 10.9246 6.5434 10.9471 6.58991 10.9702C6.59538 10.9729 6.60088 10.9755 6.60635 10.9782C6.65179 11.001 6.69686 11.0245 6.74167 11.0486C6.75013 11.0531 6.75856 11.0578 6.76702 11.0624C6.81223 11.087 6.85719 11.1121 6.90171 11.1382C7.54419 11.514 8.24361 11.7574 8.98055 11.8617C8.98288 11.862 8.98517 11.8623 8.9875 11.8626L12.0125 12.2109C12.2385 12.243 12.4502 12.3406 12.6215 12.4915C12.7929 12.6424 12.9163 12.8402 12.9767 13.0603C12.9942 13.1238 13.0064 13.1895 13.0131 13.2568L13.0252 13.3776L7.35582 12.8809C7.3205 12.8778 7.28492 12.8817 7.2511 12.8924C7.21729 12.9031 7.1859 12.9203 7.15874 12.943C7.10388 12.9891 7.06955 13.055 7.0633 13.1263C7.05705 13.1977 7.07939 13.2685 7.12541 13.3234C7.17143 13.3783 7.23735 13.4126 7.30868 13.4188L13.3025 13.944C13.3039 13.9441 13.3053 13.9441 13.3067 13.9442C13.3081 13.9443 13.3095 13.9445 13.3109 13.9446L14.4413 14.008C14.4463 14.0083 14.4514 14.0085 14.4564 14.0085C14.4617 14.0085 14.467 14.0076 14.4723 14.0073C14.4784 14.0069 14.4844 14.0067 14.4904 14.0059C14.4984 14.0049 14.5063 14.0032 14.5142 14.0014C14.5199 14.0002 14.5255 13.9993 14.5311 13.9976C14.5397 13.9952 14.548 13.9918 14.5564 13.9884C14.5609 13.9866 14.5656 13.9853 14.57 13.9832C14.5826 13.9774 14.5949 13.9706 14.6066 13.9628L15.5661 13.3207L15.5662 13.3206L18.3998 11.4242C18.6849 11.2326 19.0741 11.3077 19.2673 11.5918C19.444 11.8513 19.4001 12.2043 19.1641 12.4139Z" fill="currentColor"/>
<path d="M19.7138 11.288C19.354 10.7593 18.6294 10.6193 18.0991 10.9758L15.6852 12.5912L15.6782 7.56286L16.5168 8.34847C16.6941 8.51509 16.9284 8.60772 17.1718 8.6074H17.1732C17.3041 8.60702 17.4335 8.57994 17.5535 8.52782C17.6736 8.4757 17.7817 8.39964 17.8714 8.30428C18.0464 8.11746 18.1382 7.87371 18.1298 7.61784C18.1215 7.36197 18.014 7.12468 17.8271 6.94968L16.2373 5.46034C16.1847 5.41319 16.1158 5.3885 16.0452 5.39156C15.9747 5.39462 15.9081 5.4252 15.8599 5.47673C15.8116 5.52826 15.7854 5.59666 15.7869 5.66725C15.7885 5.73785 15.8176 5.80504 15.8681 5.85442L17.458 7.34375C17.4982 7.38122 17.5306 7.42628 17.5532 7.47635C17.5759 7.52641 17.5885 7.58048 17.5901 7.63542C17.592 7.69035 17.5831 7.74512 17.5637 7.79655C17.5443 7.84799 17.5149 7.89507 17.4772 7.93507C17.4383 7.97697 17.3911 8.01037 17.3387 8.03314C17.2862 8.05592 17.2296 8.06758 17.1724 8.0674H17.1718C17.0653 8.0674 16.9638 8.02728 16.8859 7.95435L16.8859 7.95432L10.5729 2.04045C10.5228 1.9935 10.4567 1.96741 10.388 1.96751C10.3193 1.9676 10.2532 1.99387 10.2032 2.04097L3.90667 7.97253C3.86674 8.01028 3.81973 8.03976 3.76835 8.05926C3.71697 8.07877 3.66225 8.08791 3.60732 8.08617C3.55237 8.08468 3.49826 8.0723 3.44813 8.04975C3.398 8.0272 3.35285 7.99493 3.31528 7.9548C3.27748 7.9149 3.24798 7.86791 3.22847 7.81653C3.20896 7.76515 3.19984 7.71041 3.20164 7.65548C3.20313 7.60054 3.2155 7.54644 3.23804 7.49631C3.26058 7.44618 3.29283 7.40102 3.33294 7.36344L10.1001 0.988562C10.2605 0.837426 10.5122 0.837057 10.673 0.987786L14.6321 4.69661C14.658 4.72085 14.6884 4.73976 14.7216 4.75225C14.7548 4.76474 14.7901 4.77058 14.8255 4.76942C14.8609 4.76827 14.8958 4.76014 14.9281 4.74551C14.9604 4.73088 14.9895 4.71003 15.0137 4.68416C15.038 4.65828 15.0569 4.62789 15.0694 4.59471C15.0819 4.56152 15.0877 4.52621 15.0866 4.49077C15.0854 4.45533 15.0773 4.42047 15.0626 4.38817C15.048 4.35587 15.0272 4.32677 15.0013 4.30253L11.0422 0.59371C10.6738 0.248511 10.0974 0.249287 9.72988 0.595521L7.56355 2.63628L7.56296 2.27227C7.56304 2.21584 7.55193 2.15996 7.53026 2.10786C7.50859 2.05576 7.4768 2.00847 7.43673 1.96874C7.39696 1.92886 7.34968 1.89725 7.29763 1.87572C7.24558 1.8542 7.18978 1.8432 7.13346 1.84336H7.13283L5.58316 1.84554C5.52674 1.84546 5.47085 1.85658 5.41875 1.87825C5.36665 1.89992 5.31937 1.9317 5.27964 1.97177C5.23968 2.01163 5.20803 2.05901 5.18651 2.11118C5.165 2.16335 5.15404 2.21927 5.15429 2.27571L5.15857 4.9019L2.96269 6.97048C2.77635 7.14599 2.66955 7.38358 2.6619 7.63945C2.65425 7.89532 2.74672 8.13885 2.92224 8.32512C3.09772 8.51146 3.3353 8.6183 3.59121 8.62595C3.601 8.62624 3.61079 8.62639 3.62058 8.62639C3.8657 8.62639 4.09782 8.5344 4.27696 8.36557L5.11369 7.57735L5.11701 9.95248C4.84556 9.9127 4.57159 9.89261 4.29724 9.89237H3.83526V9.73048C3.83526 9.18701 3.39308 8.74483 2.84961 8.74483H1.98565C1.44218 8.7448 1 9.18693 1 9.73045V13.9611C1 14.0327 1.02844 14.1014 1.07908 14.152C1.12971 14.2027 1.19838 14.2311 1.26998 14.2311C1.34159 14.2311 1.41026 14.2027 1.46089 14.152C1.51152 14.1014 1.53996 14.0327 1.53996 13.9611V9.73045C1.53996 9.4847 1.7399 9.28476 1.98565 9.28476H2.84957C3.09532 9.28476 3.29526 9.4847 3.29526 9.73045V16.1239C3.29526 16.3697 3.09532 16.5696 2.84957 16.5696H1.98565C1.7399 16.5696 1.53996 16.3697 1.53996 16.1239V15.6515C1.53996 15.5799 1.51152 15.5112 1.46089 15.4606C1.41026 15.4099 1.34159 15.3815 1.26998 15.3815C1.19838 15.3815 1.12971 15.4099 1.07908 15.4606C1.02844 15.5112 1 15.5799 1 15.6515V16.1239C1 16.6674 1.44218 17.1096 1.98565 17.1096H2.84957C3.39305 17.1096 3.83522 16.6674 3.83522 16.1239V16.0872L7.78905 17.5845C7.79637 17.5872 7.80379 17.5897 7.81133 17.5918C7.98323 17.6403 8.15505 17.6647 8.3247 17.6647C8.41647 17.6647 8.5076 17.6575 8.59782 17.6433L14.4083 16.8057L14.4124 16.8051C14.9069 16.7259 15.3718 16.5176 15.7601 16.2012C15.7634 16.1985 15.7668 16.1956 15.77 16.1927L19.5238 12.8165C19.961 12.4284 20.0426 11.7713 19.7138 11.288ZM7.02314 2.38351L7.0244 3.14417L5.69769 4.39397L5.6944 2.38532L7.02314 2.38351ZM10.3888 2.6079L15.1375 7.05633L15.1457 12.9522L14.3813 13.4638L13.5718 13.4184L13.5505 13.2034C13.5147 12.8372 13.3617 12.4922 13.1143 12.2199C12.8668 11.9475 12.5381 11.7622 12.1769 11.6916L12.172 8.18403C12.1717 7.91486 11.9525 7.69612 11.6834 7.69612H11.6827L9.10945 7.69974C9.04525 7.69965 8.98168 7.71229 8.92241 7.73694C8.86313 7.76159 8.80934 7.79776 8.76414 7.84334C8.71869 7.88866 8.68267 7.94255 8.65819 8.00189C8.63371 8.06123 8.62124 8.12483 8.6215 8.18902L8.62579 11.2472C8.11547 11.1307 7.62599 10.9367 7.17435 10.6721C7.1176 10.639 7.06028 10.6068 7.00242 10.5756C6.97988 10.5635 6.95698 10.5521 6.93426 10.5402C6.89909 10.5218 6.86399 10.5034 6.82845 10.4858C6.80015 10.4717 6.77152 10.4584 6.743 10.4449C6.71275 10.4305 6.68253 10.416 6.65205 10.4021C6.62102 10.388 6.58972 10.3746 6.55847 10.3611C6.52991 10.3488 6.50135 10.3364 6.47261 10.3245C6.44047 10.3112 6.40815 10.2985 6.37578 10.2858C6.34708 10.2746 6.31834 10.2634 6.28948 10.2526C6.25745 10.2407 6.22528 10.2291 6.19303 10.2178C6.09929 10.1847 6.00469 10.1541 5.90934 10.126C5.88071 10.1176 5.85211 10.1092 5.82333 10.1012C5.78573 10.0908 5.74802 10.0809 5.71021 10.0713C5.69252 10.0667 5.67493 10.0616 5.65712 10.0572L5.65295 7.0693L10.3888 2.6079ZM11.6369 11.6241L9.37869 11.3641L9.16594 11.3396L9.16158 8.23963L11.6321 8.23616L11.6369 11.6241ZM19.1641 12.4139L15.4139 15.7868C15.101 16.0404 14.7269 16.2076 14.3292 16.2716L8.52124 17.1088L8.51762 17.1093L8.51359 17.11C8.33763 17.1378 8.15439 17.1261 7.96889 17.0752L3.83526 15.5098V10.4323H4.29724C4.7037 10.4324 5.10871 10.4807 5.50385 10.5759C5.55058 10.5872 5.5972 10.5988 5.6436 10.6114L5.65576 10.6148C5.70227 10.6275 5.7486 10.6409 5.79478 10.6549C5.80305 10.6574 5.81136 10.6599 5.8196 10.6624C5.86874 10.6776 5.91765 10.6934 5.9663 10.7101L5.98134 10.7153C6.08829 10.7522 6.19399 10.7927 6.29828 10.8366C6.34902 10.8579 6.39942 10.88 6.44945 10.903C6.49659 10.9246 6.5434 10.9471 6.58991 10.9702C6.59538 10.9729 6.60088 10.9755 6.60635 10.9782C6.65179 11.001 6.69686 11.0245 6.74167 11.0486C6.75013 11.0531 6.75856 11.0578 6.76702 11.0624C6.81223 11.087 6.85719 11.1121 6.90171 11.1382C7.54419 11.514 8.24361 11.7574 8.98055 11.8617C8.98288 11.862 8.98517 11.8623 8.9875 11.8626L12.0125 12.2109C12.2385 12.243 12.4502 12.3406 12.6215 12.4915C12.7929 12.6424 12.9163 12.8402 12.9767 13.0603C12.9942 13.1238 13.0064 13.1895 13.0131 13.2568L13.0252 13.3776L7.35582 12.8809C7.3205 12.8778 7.28492 12.8817 7.2511 12.8924C7.21729 12.9031 7.1859 12.9203 7.15874 12.943C7.10388 12.9891 7.06955 13.055 7.0633 13.1263C7.05705 13.1977 7.07939 13.2685 7.12541 13.3234C7.17143 13.3783 7.23735 13.4126 7.30868 13.4188L13.3025 13.944C13.3039 13.9441 13.3053 13.9441 13.3067 13.9442C13.3081 13.9443 13.3095 13.9445 13.3109 13.9446L14.4413 14.008C14.4463 14.0083 14.4514 14.0085 14.4564 14.0085C14.4617 14.0085 14.467 14.0076 14.4723 14.0073C14.4784 14.0069 14.4844 14.0067 14.4904 14.0059C14.4984 14.0049 14.5063 14.0032 14.5142 14.0014C14.5199 14.0002 14.5255 13.9993 14.5311 13.9976C14.5397 13.9952 14.548 13.9918 14.5564 13.9884C14.5609 13.9866 14.5656 13.9853 14.57 13.9832C14.5826 13.9774 14.5949 13.9706 14.6066 13.9628L15.5661 13.3207L15.5662 13.3206L18.3998 11.4242C18.6849 11.2326 19.0741 11.3077 19.2673 11.5918C19.444 11.8513 19.4001 12.2043 19.1641 12.4139Z" stroke="currentColor" stroke-width="0.2" mask="url(#path-1-outside-1_109_1177)"/>
</g>
</g>
</svg>
