<svg xmlns="http://www.w3.org/2000/svg" version="1.1" xmlns:xlink="http://www.w3.org/1999/xlink" width="512" height="512" x="0" y="0" viewBox="0 0 128 128" style="enable-background:new 0 0 512 512" xml:space="preserve" class=""><g><path d="M92 79.91V63.4a8.4 8.4 0 0 0-8-8.4v-9a20 20 0 1 0-40 0v9a8.4 8.4 0 0 0-8 8.38v16.53A16.09 16.09 0 0 0 52.07 96h23.86A16.09 16.09 0 0 0 92 79.91zM64 30a16 16 0 0 1 16 16v9H48v-9a16 16 0 0 1 16-16zM40 79.91V63.4a4.4 4.4 0 0 1 4.4-4.4h39.2a4.4 4.4 0 0 1 4.4 4.4v16.51A12.09 12.09 0 0 1 75.93 92H52.07A12.09 12.09 0 0 1 40 79.91z" fill="#000000" opacity="1" data-original="#000000" class=""></path><path d="M64 63.48a6.8 6.8 0 0 0-2 13.29v6a2 2 0 1 0 4 0v-6a6.8 6.8 0 0 0-2-13.29zm0 9.59a2.8 2.8 0 1 1 2.79-2.79A2.79 2.79 0 0 1 64 73.07z" fill="#000000" opacity="1" data-original="#000000" class=""></path><path d="M119.39 64a55.3 55.3 0 0 0-38-52.6 2 2 0 1 0-1.25 3.8 51.4 51.4 0 0 1-11.07 99.94L74 110.2a2 2 0 1 0-2.82-2.83L62.59 116a1.42 1.42 0 0 0-.25.3.55.55 0 0 0-.08.15 1.28 1.28 0 0 0-.11.2l-.06.2a.84.84 0 0 0-.09.15 2 2 0 0 0 0 .78 1.21 1.21 0 0 0 .05.18l.06.2.11.19a.55.55 0 0 0 .08.15 1.79 1.79 0 0 0 .25.31l8.61 8.6a2 2 0 0 0 2.84-2.82l-5.4-5.41A55.44 55.44 0 0 0 119.39 64zM47.78 112.78a51.4 51.4 0 0 1 11.14-99.92L54 17.8a2 2 0 1 0 2.82 2.83L65.41 12a1.42 1.42 0 0 0 .25-.3.55.55 0 0 0 .08-.15 1.28 1.28 0 0 0 .11-.2l.06-.2A.84.84 0 0 0 66 11a2 2 0 0 0 0-.78 1.21 1.21 0 0 0 0-.18l-.06-.2-.11-.19a.55.55 0 0 0-.08-.15 1.79 1.79 0 0 0-.25-.31L56.8.59a2 2 0 0 0-2.8 0 2 2 0 0 0 0 2.82l5.4 5.41a55.39 55.39 0 0 0-12.88 107.76 2 2 0 0 0 .63.1 2 2 0 0 0 .63-3.9z" fill="#000000" opacity="1" data-original="#000000" class=""></path></g></svg>