<?xml version="1.0" encoding="UTF-8"?>
<svg id="Layer_1" data-name="Layer 1" xmlns="http://www.w3.org/2000/svg" viewBox="0 0 512 512">
  <defs>
    <style>
      .cls-1 {
        fill: black;
        fill-rule: evenodd;
      }
    </style>
  </defs>
  <path class="cls-1" d="m354.676,444.679h-197.352c-10.098,0-18.388,8.289-18.388,18.388v18.388h234.127v-18.388c0-10.098-8.29-18.388-18.388-18.388h0Zm-75.402-55.426h-46.548v40.881h46.548v-40.881h0Zm201.705-55.72H31.021v23.934c0,9.467,7.773,17.241,17.241,17.241h415.477c9.468,0,17.24-7.773,17.24-17.241v-23.934h0Zm-41.932-258.359v243.813h41.932V92.415c0-9.468-7.773-17.24-17.24-17.24h-24.692Zm-366.093-14.545v-19.212c0-14.008,11.409-25.417,25.417-25.417h315.259c14.008,0,25.417,11.409,25.417,25.417v19.212h24.692c17.497,0,31.786,14.288,31.786,31.786v265.052c0,17.498-14.288,31.786-31.786,31.786h-169.919v40.881h60.856c18.128,0,32.933,14.805,32.933,32.933v25.66c0,4.016-3.256,7.273-7.273,7.273h-248.673c-4.016,0-7.273-3.256-7.273-7.273v-25.66c0-18.128,14.805-32.933,32.933-32.933h60.856v-40.881H48.262c-17.497,0-31.786-14.289-31.786-31.786V92.415c0-17.498,14.289-31.786,31.786-31.786h24.692Zm0,258.359V75.175h-24.692c-9.468,0-17.241,7.773-17.241,17.24v226.573h41.932ZM424.501,108.384H87.499v210.604h337.002V108.384h0Zm-337.002-14.545h337.002v-52.421c0-5.978-4.894-10.872-10.872-10.872H98.371c-5.978,0-10.872,4.894-10.872,10.872v52.421h0Z"/>
</svg>
