<svg width="8" height="8" viewBox="0 0 8 8" fill="none" xmlns="http://www.w3.org/2000/svg">
<path fill-rule="evenodd" clip-rule="evenodd" d="M4.25162 0.0863422C4.10349 -0.0287807 3.89612 -0.0287807 3.748 0.0863422L3.13487 0.563346C3.05312 0.626721 2.95075 0.657096 2.84762 0.648096L2.07625 0.58172C1.89025 0.565595 1.717 0.677345 1.65437 0.853217L1.39187 1.59534C1.35775 1.69172 1.28875 1.77196 1.19838 1.81996L0.508377 2.18821C0.345254 2.27559 0.260506 2.46121 0.301757 2.64159L0.47951 3.41409C0.50201 3.51308 0.487385 3.61697 0.437885 3.70547L0.0520142 4.39621C-0.0379856 4.55747 -0.0091107 4.75884 0.122515 4.88821L0.684267 5.44021C0.756642 5.51146 0.800139 5.60746 0.806139 5.70909L0.851139 6.49884C0.862014 6.68409 0.995887 6.83934 1.17813 6.87684L1.93938 7.03321C2.04026 7.05384 2.12951 7.11159 2.18988 7.19521L2.64663 7.82934C2.75613 7.98159 2.95488 8.04009 3.12925 7.97147L3.85 7.68872C3.94637 7.65085 4.05363 7.65085 4.15 7.68872L4.87075 7.97147C5.04512 8.04009 5.24387 7.98159 5.35299 7.82934L5.81011 7.19521C5.87011 7.11159 5.95974 7.05383 6.06024 7.03321L6.82187 6.87684C7.00374 6.83934 7.13799 6.68409 7.14886 6.49884L7.19386 5.70909C7.19986 5.60746 7.24299 5.51146 7.31573 5.44021L7.87748 4.88821C8.00911 4.75884 8.03799 4.55747 7.94799 4.39621L7.56211 3.70547C7.51261 3.61697 7.49799 3.51309 7.52049 3.41409L7.69787 2.64159C7.73949 2.46121 7.65474 2.27559 7.49162 2.18821L6.80162 1.81996C6.71125 1.77196 6.64224 1.69172 6.60813 1.59534L6.34525 0.853217C6.283 0.677346 6.10975 0.565592 5.92375 0.58172L5.152 0.648096C5.04925 0.657096 4.94688 0.62672 4.86512 0.563346L4.25162 0.0863422ZM5.90503 3.05859C6.0479 2.89022 6.02727 2.63784 5.8589 2.49497C5.69015 2.35209 5.43778 2.37272 5.2949 2.54109L3.54406 4.6047L2.68718 3.72121C2.53343 3.56259 2.28031 3.55883 2.12169 3.71258C1.96307 3.86634 1.95894 4.11983 2.11306 4.27845L3.58339 5.79496L5.90503 3.05859Z" fill="#1165E5"/>
</svg>
