<svg width="15" height="18" viewBox="0 0 15 18" fill="none" xmlns="http://www.w3.org/2000/svg">
<g id="verified">
<path id="Vector" d="M10.4028 11.1903L10.3969 11.1845L10.3902 11.1797C9.79069 10.7515 9.10085 10.4911 8.40596 10.4911H5.05625C3.66901 10.4911 2.45878 11.4447 2.11251 12.9093L1.61167 14.4954C1.61158 14.4957 1.61149 14.4959 1.61141 14.4962C1.51799 14.7776 1.60481 15.1493 1.88047 15.3488C1.92827 15.4369 1.99847 15.5257 2.10118 15.5942C2.21359 15.6692 2.35898 15.7157 2.54396 15.7157H8.32221C8.55072 15.7157 8.73337 15.7914 8.85864 15.9167C8.98391 16.042 9.05964 16.2246 9.05964 16.4531C9.05964 16.6816 8.98391 16.8643 8.85864 16.9895C8.73337 17.1148 8.55072 17.1905 8.32221 17.1905H2.54396C1.73796 17.1905 1.0961 16.8701 0.612189 16.3068C0.128529 15.6603 -0.0290287 14.8579 0.21029 14.1399L0.210488 14.14L0.21213 14.1338L0.630698 12.5432C0.630725 12.5431 0.630752 12.543 0.630779 12.5429C1.20595 10.4071 3.01038 9.01626 5.05625 9.01626H8.40596C9.46988 9.01626 10.5369 9.42593 11.3582 10.083L11.3582 10.083L11.3607 10.0849C11.5022 10.191 11.5955 10.3727 11.6142 10.5692C11.6329 10.7646 11.5766 10.9637 11.4337 11.1066L11.4287 11.1116L11.4244 11.1173C11.3183 11.2588 11.1366 11.3522 10.9402 11.3709C10.7448 11.3895 10.5457 11.3333 10.4028 11.1903ZM6.7311 7.97884C4.69129 7.97884 3.06268 6.3473 3.06268 4.39415C3.06268 2.44101 4.69129 0.809473 6.7311 0.809473C8.77091 0.809473 10.3995 2.44101 10.3995 4.39415C10.3995 6.3473 8.77091 7.97884 6.7311 7.97884ZM6.7311 6.50398C7.95605 6.50398 8.92467 5.54067 8.92467 4.39415C8.92467 3.24763 7.95605 2.28433 6.7311 2.28433C5.50615 2.28433 4.53753 3.24763 4.53753 4.39415C4.53753 5.54067 5.50615 6.50398 6.7311 6.50398Z" fill="black" stroke="white" stroke-width="0.2"/>
<path id="Vector_2" d="M11.5172 14.3465L11.6154 14.4446L11.6774 14.3205L12.8498 11.9757C12.9187 11.8378 13.0611 11.7271 13.2406 11.6704C13.418 11.6144 13.6228 11.6143 13.8079 11.6873C13.9441 11.7569 14.0534 11.8983 14.1096 12.0762C14.1656 12.2537 14.1656 12.4585 14.0926 12.6437L12.4197 15.9896C12.3884 16.0523 12.3197 16.1244 12.2215 16.1932C12.1292 16.2578 12.0181 16.3142 11.9064 16.3531H11.7554C11.6415 16.3531 11.551 16.3342 11.4716 16.2989C11.3917 16.2634 11.3178 16.209 11.24 16.1311L9.64884 14.54C9.35292 14.2441 9.35292 13.8049 9.64884 13.509C9.94476 13.2131 10.3839 13.2131 10.6798 13.509L11.5172 14.3465Z" fill="black" stroke="white" stroke-width="0.2"/>
</g>
</svg>
