<svg width="21" height="22" viewBox="0 0 21 22" fill="none" xmlns="http://www.w3.org/2000/svg">
<g id="Group">
<path id="Vector" d="M10.5859 10.8946V7.25072M10.5859 15.0496L14.093 13.0248V8.97522L10.5859 6.95044L7.07886 8.97522V13.0248L10.5859 15.0496Z" stroke="black" stroke-width="0.9" stroke-miterlimit="22.9256" stroke-linecap="round" stroke-linejoin="round"/>
<path id="Vector_2" d="M7.1543 12.9813L10.586 11L14.063 13.0074" stroke="black" stroke-width="0.9" stroke-miterlimit="22.9256" stroke-linecap="round" stroke-linejoin="round"/>
<path id="Vector_3" d="M10.5861 20.5859C13.8142 20.5859 16.4311 16.2942 16.4311 11C16.4311 5.70583 13.8142 1.41406 10.5861 1.41406C7.3579 1.41406 4.74097 5.70583 4.74097 11C4.74097 16.2942 7.3579 20.5859 10.5861 20.5859Z" stroke="black" stroke-width="0.9" stroke-miterlimit="22.9256" stroke-linecap="round" stroke-linejoin="round"/>
<path id="Vector_4" d="M10.5859 16.8451C15.8801 16.8451 20.1719 14.2281 20.1719 11C20.1719 7.77184 15.8801 5.15491 10.5859 5.15491C5.29177 5.15491 1 7.77184 1 11C1 14.2281 5.29177 16.8451 10.5859 16.8451Z" stroke="black" stroke-width="0.9" stroke-miterlimit="22.9256" stroke-linecap="round" stroke-linejoin="round"/>
</g>
</svg>
